<svg width="803" height="803" viewBox="0 0 803 803" fill="none" xmlns="http://www.w3.org/2000/svg">
<rect x="1" y="1" width="89" height="89" fill="#D9D9D9" stroke="black" stroke-width="2"/>
<rect x="179" y="1" width="89" height="89" fill="#D9D9D9" stroke="black" stroke-width="2"/>
<rect x="90" y="1" width="89" height="89" fill="#D9D9D9" stroke="black" stroke-width="2"/>
<rect x="535" y="1" width="89" height="89" fill="#D9D9D9" stroke="black" stroke-width="2"/>
<rect x="713" y="1" width="89" height="89" fill="#D9D9D9" stroke="black" stroke-width="2"/>
<rect x="624" y="1" width="89" height="89" fill="#D9D9D9" stroke="black" stroke-width="2"/>
<rect x="268" y="1" width="89" height="89" fill="white" stroke="black" stroke-width="2"/>
<rect x="446" y="1" width="89" height="89" fill="white" stroke="black" stroke-width="2"/>
<rect x="357" y="1" width="89" height="89" fill="white" stroke="black" stroke-width="2"/>
<rect x="1" y="268" width="89" height="89" fill="white" stroke="black" stroke-width="2"/>
<rect x="179" y="268" width="89" height="89" fill="white" stroke="black" stroke-width="2"/>
<rect x="90" y="268" width="89" height="89" fill="white" stroke="black" stroke-width="2"/>
<rect x="535" y="268" width="89" height="89" fill="white" stroke="black" stroke-width="2"/>
<rect x="713" y="268" width="89" height="89" fill="white" stroke="black" stroke-width="2"/>
<rect x="624" y="268" width="89" height="89" fill="white" stroke="black" stroke-width="2"/>
<rect x="268" y="268" width="89" height="89" fill="#D9D9D9" stroke="black" stroke-width="2"/>
<rect x="446" y="268" width="89" height="89" fill="#D9D9D9" stroke="black" stroke-width="2"/>
<rect x="357" y="268" width="89" height="89" fill="#D9D9D9" stroke="black" stroke-width="2"/>
<rect x="1" y="446" width="89" height="89" fill="white" stroke="black" stroke-width="2"/>
<rect x="179" y="446" width="89" height="89" fill="white" stroke="black" stroke-width="2"/>
<rect x="90" y="446" width="89" height="89" fill="white" stroke="black" stroke-width="2"/>
<rect x="535" y="446" width="89" height="89" fill="white" stroke="black" stroke-width="2"/>
<rect x="713" y="446" width="89" height="89" fill="white" stroke="black" stroke-width="2"/>
<rect x="624" y="446" width="89" height="89" fill="white" stroke="black" stroke-width="2"/>
<rect x="268" y="446" width="89" height="89" fill="#D9D9D9" stroke="black" stroke-width="2"/>
<rect x="446" y="446" width="89" height="89" fill="#D9D9D9" stroke="black" stroke-width="2"/>
<rect x="357" y="446" width="89" height="89" fill="#D9D9D9" stroke="black" stroke-width="2"/>
<rect x="1" y="357" width="89" height="89" fill="white" stroke="black" stroke-width="2"/>
<rect x="179" y="357" width="89" height="89" fill="white" stroke="black" stroke-width="2"/>
<rect x="90" y="357" width="89" height="89" fill="white" stroke="black" stroke-width="2"/>
<rect x="535" y="357" width="89" height="89" fill="white" stroke="black" stroke-width="2"/>
<rect x="713" y="357" width="89" height="89" fill="white" stroke="black" stroke-width="2"/>
<rect x="624" y="357" width="89" height="89" fill="white" stroke="black" stroke-width="2"/>
<rect x="268" y="357" width="89" height="89" fill="#D9D9D9" stroke="black" stroke-width="2"/>
<rect x="446" y="357" width="89" height="89" fill="#D9D9D9" stroke="black" stroke-width="2"/>
<rect x="357" y="357" width="89" height="89" fill="#D9D9D9" stroke="black" stroke-width="2"/>
<rect x="1" y="179" width="89" height="89" fill="#D9D9D9" stroke="black" stroke-width="2"/>
<rect x="179" y="179" width="89" height="89" fill="#D9D9D9" stroke="black" stroke-width="2"/>
<rect x="90" y="179" width="89" height="89" fill="#D9D9D9" stroke="black" stroke-width="2"/>
<rect x="535" y="179" width="89" height="89" fill="#D9D9D9" stroke="black" stroke-width="2"/>
<rect x="713" y="179" width="89" height="89" fill="#D9D9D9" stroke="black" stroke-width="2"/>
<rect x="624" y="179" width="89" height="89" fill="#D9D9D9" stroke="black" stroke-width="2"/>
<rect x="268" y="179" width="89" height="89" fill="white" stroke="black" stroke-width="2"/>
<rect x="446" y="179" width="89" height="89" fill="white" stroke="black" stroke-width="2"/>
<rect x="357" y="179" width="89" height="89" fill="white" stroke="black" stroke-width="2"/>
<rect x="1" y="90" width="89" height="89" fill="#D9D9D9" stroke="black" stroke-width="2"/>
<rect x="179" y="90" width="89" height="89" fill="#D9D9D9" stroke="black" stroke-width="2"/>
<rect x="90" y="90" width="89" height="89" fill="#D9D9D9" stroke="black" stroke-width="2"/>
<rect x="535" y="90" width="89" height="89" fill="#D9D9D9" stroke="black" stroke-width="2"/>
<rect x="713" y="90" width="89" height="89" fill="#D9D9D9" stroke="black" stroke-width="2"/>
<rect x="624" y="90" width="89" height="89" fill="#D9D9D9" stroke="black" stroke-width="2"/>
<rect x="268" y="90" width="89" height="89" fill="white" stroke="black" stroke-width="2"/>
<rect x="446" y="90" width="89" height="89" fill="white" stroke="black" stroke-width="2"/>
<rect x="357" y="90" width="89" height="89" fill="white" stroke="black" stroke-width="2"/>
<rect x="1" y="535" width="89" height="89" fill="#D9D9D9" stroke="black" stroke-width="2"/>
<rect x="179" y="535" width="89" height="89" fill="#D9D9D9" stroke="black" stroke-width="2"/>
<rect x="90" y="535" width="89" height="89" fill="#D9D9D9" stroke="black" stroke-width="2"/>
<rect x="535" y="535" width="89" height="89" fill="#D9D9D9" stroke="black" stroke-width="2"/>
<rect x="713" y="535" width="89" height="89" fill="#D9D9D9" stroke="black" stroke-width="2"/>
<rect x="624" y="535" width="89" height="89" fill="#D9D9D9" stroke="black" stroke-width="2"/>
<rect x="268" y="535" width="89" height="89" fill="white" stroke="black" stroke-width="2"/>
<rect x="446" y="535" width="89" height="89" fill="white" stroke="black" stroke-width="2"/>
<rect x="357" y="535" width="89" height="89" fill="white" stroke="black" stroke-width="2"/>
<rect x="1" y="713" width="89" height="89" fill="#D9D9D9" stroke="black" stroke-width="2"/>
<rect x="179" y="713" width="89" height="89" fill="#D9D9D9" stroke="black" stroke-width="2"/>
<rect x="90" y="713" width="89" height="89" fill="#D9D9D9" stroke="black" stroke-width="2"/>
<rect x="535" y="713" width="89" height="89" fill="#D9D9D9" stroke="black" stroke-width="2"/>
<rect x="713" y="713" width="89" height="89" fill="#D9D9D9" stroke="black" stroke-width="2"/>
<rect x="624" y="713" width="89" height="89" fill="#D9D9D9" stroke="black" stroke-width="2"/>
<rect x="268" y="713" width="89" height="89" fill="white" stroke="black" stroke-width="2"/>
<rect x="446" y="713" width="89" height="89" fill="white" stroke="black" stroke-width="2"/>
<rect x="357" y="713" width="89" height="89" fill="white" stroke="black" stroke-width="2"/>
<rect x="1" y="624" width="89" height="89" fill="#D9D9D9" stroke="black" stroke-width="2"/>
<rect x="179" y="624" width="89" height="89" fill="#D9D9D9" stroke="black" stroke-width="2"/>
<rect x="90" y="624" width="89" height="89" fill="#D9D9D9" stroke="black" stroke-width="2"/>
<rect x="535" y="624" width="89" height="89" fill="#D9D9D9" stroke="black" stroke-width="2"/>
<rect x="713" y="624" width="89" height="89" fill="#D9D9D9" stroke="black" stroke-width="2"/>
<rect x="624" y="624" width="89" height="89" fill="#D9D9D9" stroke="black" stroke-width="2"/>
<rect x="268" y="624" width="89" height="89" fill="white" stroke="black" stroke-width="2"/>
<rect x="446" y="624" width="89" height="89" fill="white" stroke="black" stroke-width="2"/>
<rect x="357" y="624" width="89" height="89" fill="white" stroke="black" stroke-width="2"/>
<rect x="324" y="370" width="155" height="63" rx="10" fill="#FF7A30" fill-opacity="0.75"/>
<path d="M380.061 397.594C379.966 396.754 379.575 396.103 378.889 395.641C378.202 395.174 377.338 394.94 376.296 394.94C375.551 394.94 374.905 395.058 374.361 395.295C373.816 395.526 373.393 395.846 373.091 396.254C372.795 396.656 372.648 397.115 372.648 397.63C372.648 398.062 372.748 398.435 372.949 398.749C373.157 399.062 373.426 399.326 373.757 399.539C374.095 399.746 374.456 399.92 374.84 400.062C375.225 400.199 375.595 400.311 375.95 400.4L377.726 400.862C378.306 401.004 378.9 401.196 379.51 401.439C380.12 401.681 380.685 402.001 381.206 402.397C381.727 402.794 382.147 403.285 382.466 403.871C382.792 404.457 382.955 405.158 382.955 405.975C382.955 407.005 382.688 407.919 382.156 408.718C381.629 409.517 380.862 410.148 379.856 410.609C378.856 411.071 377.646 411.302 376.225 411.302C374.864 411.302 373.686 411.086 372.692 410.654C371.698 410.222 370.919 409.609 370.357 408.816C369.795 408.017 369.484 407.07 369.425 405.975H372.177C372.23 406.632 372.443 407.18 372.816 407.618C373.195 408.05 373.677 408.372 374.263 408.585C374.855 408.792 375.503 408.896 376.208 408.896C376.983 408.896 377.672 408.775 378.276 408.532C378.886 408.283 379.365 407.94 379.714 407.502C380.063 407.058 380.238 406.54 380.238 405.949C380.238 405.41 380.084 404.969 379.776 404.626C379.475 404.282 379.063 403.998 378.542 403.773C378.028 403.549 377.445 403.35 376.793 403.179L374.645 402.593C373.189 402.196 372.035 401.613 371.183 400.844C370.336 400.074 369.913 399.056 369.913 397.79C369.913 396.742 370.197 395.828 370.765 395.047C371.334 394.265 372.103 393.659 373.074 393.227C374.044 392.789 375.139 392.57 376.358 392.57C377.59 392.57 378.676 392.786 379.617 393.218C380.564 393.65 381.309 394.245 381.854 395.002C382.398 395.754 382.682 396.618 382.706 397.594H380.061ZM391.754 411.275C390.475 411.275 389.36 410.982 388.407 410.396C387.454 409.81 386.714 408.991 386.187 407.937C385.661 406.884 385.397 405.653 385.397 404.244C385.397 402.829 385.661 401.592 386.187 400.533C386.714 399.474 387.454 398.651 388.407 398.065C389.36 397.479 390.475 397.186 391.754 397.186C393.032 397.186 394.148 397.479 395.101 398.065C396.054 398.651 396.793 399.474 397.32 400.533C397.847 401.592 398.11 402.829 398.11 404.244C398.11 405.653 397.847 406.884 397.32 407.937C396.793 408.991 396.054 409.81 395.101 410.396C394.148 410.982 393.032 411.275 391.754 411.275ZM391.763 409.047C392.591 409.047 393.278 408.828 393.822 408.39C394.367 407.952 394.769 407.369 395.03 406.641C395.296 405.913 395.429 405.111 395.429 404.235C395.429 403.365 395.296 402.566 395.03 401.838C394.769 401.104 394.367 400.515 393.822 400.071C393.278 399.627 392.591 399.406 391.763 399.406C390.928 399.406 390.236 399.627 389.685 400.071C389.141 400.515 388.735 401.104 388.469 401.838C388.209 402.566 388.078 403.365 388.078 404.235C388.078 405.111 388.209 405.913 388.469 406.641C388.735 407.369 389.141 407.952 389.685 408.39C390.236 408.828 390.928 409.047 391.763 409.047ZM403.718 392.818V411H401.063V392.818H403.718ZM418.944 397.364L413.999 411H411.158L406.205 397.364H409.054L412.508 407.857H412.65L416.095 397.364H418.944ZM426.842 411.275C425.499 411.275 424.342 410.988 423.371 410.414C422.406 409.834 421.661 409.02 421.134 407.973C420.613 406.919 420.353 405.685 420.353 404.271C420.353 402.874 420.613 401.643 421.134 400.577C421.661 399.512 422.394 398.681 423.336 398.083C424.282 397.485 425.389 397.186 426.656 397.186C427.425 397.186 428.171 397.313 428.893 397.568C429.615 397.822 430.263 398.222 430.837 398.766C431.411 399.311 431.864 400.018 432.196 400.888C432.527 401.752 432.693 402.803 432.693 404.04V404.981H421.853V402.992H430.092C430.092 402.294 429.95 401.675 429.665 401.137C429.381 400.592 428.982 400.163 428.467 399.849C427.958 399.536 427.36 399.379 426.674 399.379C425.928 399.379 425.277 399.562 424.72 399.929C424.17 400.29 423.744 400.764 423.442 401.35C423.146 401.93 422.998 402.56 422.998 403.241V404.794C422.998 405.706 423.158 406.481 423.478 407.12C423.803 407.76 424.256 408.248 424.836 408.585C425.416 408.917 426.094 409.082 426.869 409.082C427.372 409.082 427.831 409.011 428.245 408.869C428.659 408.721 429.017 408.502 429.319 408.212C429.621 407.922 429.852 407.564 430.012 407.138L432.524 407.591C432.323 408.331 431.962 408.979 431.441 409.535C430.926 410.086 430.278 410.515 429.497 410.822C428.721 411.124 427.837 411.275 426.842 411.275Z" fill="white" fill-opacity="0.75"/>
</svg>
