<svg width="1301" height="2643" viewBox="0 0 1285 2643" fill="none" xmlns="http://www.w3.org/2000/svg">
<rect x="1" width="1280" height="2642" rx="210" fill="black"/>
<rect x="12.5" y="11.5" width="1257" height="2619" rx="198.5" stroke="#565553" stroke-width="13"/>
<rect x="3.5" y="2.5" width="1275" height="2637" rx="207.5" stroke="#3F3E3B" stroke-width="5"/>
<g opacity="0.9" filter="url(#filter0_f_1269_319)">
<rect x="6" y="6" width="1270" height="2631" rx="206" stroke="#31302E" stroke-width="5"/>
</g>
<g opacity="0.8" filter="url(#filter1_f_1269_319)">
<rect x="23" y="22" width="1236" height="2598" rx="188" stroke="#646464" stroke-width="2"/>
</g>
<path d="M54 224H1228V2434C1228 2516.84 1160.84 2584 1078 2584H204C121.157 2584 54 2516.84 54 2434V224Z" fill="white"/>
<g filter="url(#filter2_d_1269_319)">
<rect x="54" y="224" width="1174" height="197" fill="white"/>
</g>
<rect x="114" y="285" width="100" height="10" fill="#6C6C6C"/>
<rect x="114" y="318" width="100" height="10" fill="#6C6C6C"/>
<rect x="114" y="351" width="100" height="10" fill="#6C6C6C"/>
<rect x="1068" y="285" width="100" height="10" fill="#6C6C6C"/>
<rect x="1102" y="318" width="66" height="10" fill="#6C6C6C"/>
<rect x="1135" y="351" width="33" height="10" fill="#6C6C6C"/>
<path d="M498.491 355L478.605 282.273H487.554L502.753 341.506H503.463L518.946 282.273H528.889L544.372 341.506H545.082L560.281 282.273H569.23L549.344 355H540.253L524.201 297.045H523.633L507.582 355H498.491ZM596.138 356.136C591.213 356.136 586.893 354.964 583.176 352.621C579.483 350.277 576.594 346.998 574.511 342.784C572.451 338.57 571.422 333.646 571.422 328.011C571.422 322.33 572.451 317.37 574.511 313.132C576.594 308.894 579.483 305.604 583.176 303.26C586.893 300.916 591.213 299.744 596.138 299.744C601.062 299.744 605.37 300.916 609.064 303.26C612.781 305.604 615.669 308.894 617.728 313.132C619.812 317.37 620.853 322.33 620.853 328.011C620.853 333.646 619.812 338.57 617.728 342.784C615.669 346.998 612.781 350.277 609.064 352.621C605.37 354.964 601.062 356.136 596.138 356.136ZM596.138 348.608C599.878 348.608 602.956 347.649 605.37 345.732C607.785 343.814 609.573 341.293 610.733 338.168C611.893 335.043 612.473 331.657 612.473 328.011C612.473 324.366 611.893 320.968 610.733 317.82C609.573 314.671 607.785 312.126 605.37 310.185C602.956 308.243 599.878 307.273 596.138 307.273C592.397 307.273 589.319 308.243 586.905 310.185C584.49 312.126 582.702 314.671 581.542 317.82C580.382 320.968 579.802 324.366 579.802 328.011C579.802 331.657 580.382 335.043 581.542 338.168C582.702 341.293 584.49 343.814 586.905 345.732C589.319 347.649 592.397 348.608 596.138 348.608ZM633.636 355V300.455H641.733V308.693H642.301C643.295 305.994 645.095 303.804 647.699 302.124C650.303 300.443 653.239 299.602 656.506 299.602C657.121 299.602 657.891 299.614 658.814 299.638C659.737 299.661 660.436 299.697 660.909 299.744V308.267C660.625 308.196 659.974 308.089 658.956 307.947C657.962 307.782 656.908 307.699 655.795 307.699C653.144 307.699 650.777 308.255 648.693 309.368C646.634 310.457 645 311.972 643.793 313.913C642.609 315.831 642.017 318.021 642.017 320.483V355H633.636ZM689.77 356.136C685.224 356.136 681.212 354.988 677.732 352.692C674.251 350.372 671.529 347.105 669.564 342.891C667.599 338.653 666.616 333.646 666.616 327.869C666.616 322.14 667.599 317.169 669.564 312.955C671.529 308.741 674.263 305.485 677.767 303.189C681.271 300.893 685.319 299.744 689.912 299.744C693.463 299.744 696.268 300.336 698.328 301.52C700.411 302.68 701.998 304.006 703.087 305.497C704.199 306.965 705.063 308.172 705.679 309.119H706.389V282.273H714.77V355H706.673V346.619H705.679C705.063 347.614 704.187 348.868 703.051 350.384C701.915 351.875 700.293 353.213 698.186 354.396C696.079 355.556 693.274 356.136 689.77 356.136ZM690.906 348.608C694.268 348.608 697.109 347.732 699.429 345.98C701.749 344.205 703.513 341.754 704.72 338.629C705.928 335.481 706.531 331.847 706.531 327.727C706.531 323.655 705.939 320.092 704.756 317.038C703.572 313.961 701.82 311.57 699.5 309.865C697.18 308.137 694.315 307.273 690.906 307.273C687.355 307.273 684.396 308.184 682.028 310.007C679.685 311.806 677.921 314.257 676.737 317.358C675.577 320.436 674.997 323.892 674.997 327.727C674.997 331.61 675.589 335.137 676.773 338.31C677.98 341.458 679.756 343.968 682.099 345.838C684.467 347.685 687.402 348.608 690.906 348.608ZM739.653 282.273V355H731.273V282.273H739.653ZM777.862 356.136C772.607 356.136 768.073 354.976 764.262 352.656C760.474 350.312 757.55 347.045 755.49 342.855C753.454 338.641 752.436 333.741 752.436 328.153C752.436 322.566 753.454 317.642 755.49 313.381C757.55 309.096 760.415 305.758 764.084 303.366C767.777 300.952 772.086 299.744 777.01 299.744C779.851 299.744 782.656 300.218 785.426 301.165C788.196 302.112 790.718 303.651 792.99 305.781C795.263 307.888 797.074 310.682 798.424 314.162C799.773 317.642 800.448 321.927 800.448 327.017V330.568H758.402V323.324H791.925C791.925 320.246 791.309 317.5 790.078 315.085C788.871 312.67 787.143 310.765 784.894 309.368C782.668 307.971 780.04 307.273 777.01 307.273C773.672 307.273 770.784 308.101 768.345 309.759C765.931 311.392 764.072 313.523 762.77 316.151C761.468 318.778 760.817 321.596 760.817 324.602V329.432C760.817 333.551 761.527 337.043 762.948 339.908C764.392 342.749 766.392 344.915 768.949 346.406C771.506 347.874 774.477 348.608 777.862 348.608C780.064 348.608 782.053 348.3 783.828 347.685C785.628 347.045 787.178 346.098 788.48 344.844C789.782 343.565 790.789 341.979 791.499 340.085L799.595 342.358C798.743 345.104 797.311 347.519 795.299 349.602C793.286 351.662 790.8 353.272 787.841 354.432C784.882 355.568 781.556 356.136 777.862 356.136Z" fill="black"/>
<path d="M498.491 355L497.527 355.264L497.728 356H498.491V355ZM478.605 282.273V281.273H477.295L477.64 282.536L478.605 282.273ZM487.554 282.273L488.522 282.024L488.33 281.273H487.554V282.273ZM502.753 341.506L501.784 341.754L501.977 342.506H502.753V341.506ZM503.463 341.506V342.506H504.235L504.43 341.759L503.463 341.506ZM518.946 282.273V281.273H518.174L517.978 282.02L518.946 282.273ZM528.889 282.273L529.856 282.02L529.661 281.273H528.889V282.273ZM544.372 341.506L543.404 341.759L543.6 342.506H544.372V341.506ZM545.082 341.506V342.506H545.858L546.051 341.754L545.082 341.506ZM560.281 282.273V281.273H559.505L559.312 282.024L560.281 282.273ZM569.23 282.273L570.194 282.536L570.54 281.273H569.23V282.273ZM549.344 355V356H550.107L550.308 355.264L549.344 355ZM540.253 355L539.289 355.267L539.492 356H540.253V355ZM524.201 297.045L525.165 296.779L524.962 296.045H524.201V297.045ZM523.633 297.045V296.045H522.873L522.67 296.779L523.633 297.045ZM507.582 355V356H508.343L508.546 355.267L507.582 355ZM499.456 354.736L479.569 282.009L477.64 282.536L497.527 355.264L499.456 354.736ZM478.605 283.273H487.554V281.273H478.605V283.273ZM486.585 282.521L501.784 341.754L503.721 341.257L488.522 282.024L486.585 282.521ZM502.753 342.506H503.463V340.506H502.753V342.506ZM504.43 341.759L519.913 282.526L517.978 282.02L502.495 341.253L504.43 341.759ZM518.946 283.273H528.889V281.273H518.946V283.273ZM527.921 282.526L543.404 341.759L545.339 341.253L529.856 282.02L527.921 282.526ZM544.372 342.506H545.082V340.506H544.372V342.506ZM546.051 341.754L561.25 282.521L559.312 282.024L544.114 341.257L546.051 341.754ZM560.281 283.273H569.23V281.273H560.281V283.273ZM568.265 282.009L548.379 354.736L550.308 355.264L570.194 282.536L568.265 282.009ZM549.344 354H540.253V356H549.344V354ZM541.216 354.733L525.165 296.779L523.238 297.312L539.289 355.267L541.216 354.733ZM524.201 296.045H523.633V298.045H524.201V296.045ZM522.67 296.779L506.618 354.733L508.546 355.267L524.597 297.312L522.67 296.779ZM507.582 354H498.491V356H507.582V354ZM583.176 352.621L582.64 353.465L582.642 353.467L583.176 352.621ZM574.511 342.784L573.613 343.223L573.615 343.227L574.511 342.784ZM574.511 313.132L573.614 312.691L573.612 312.695L574.511 313.132ZM583.176 303.26L582.642 302.414L582.64 302.416L583.176 303.26ZM609.064 303.26L608.528 304.104L608.53 304.106L609.064 303.26ZM617.728 313.132L616.829 313.569L616.831 313.573L617.728 313.132ZM617.728 342.784L616.832 342.341L616.83 342.345L617.728 342.784ZM609.064 352.621L608.53 351.775L608.528 351.776L609.064 352.621ZM605.37 345.732L604.749 344.948L605.37 345.732ZM610.733 338.168L611.67 338.516L610.733 338.168ZM610.733 317.82L611.671 317.474V317.474L610.733 317.82ZM605.37 310.185L605.997 309.405V309.405L605.37 310.185ZM586.905 310.185L586.278 309.405V309.405L586.905 310.185ZM581.542 317.82L580.604 317.474L580.604 317.474L581.542 317.82ZM581.542 338.168L580.605 338.516L581.542 338.168ZM586.905 345.732L587.526 344.948L586.905 345.732ZM596.138 355.136C591.379 355.136 587.248 354.006 583.709 351.775L582.642 353.467C586.538 355.923 591.048 357.136 596.138 357.136V355.136ZM583.712 351.776C580.185 349.538 577.416 346.403 575.408 342.341L573.615 343.227C575.773 347.593 578.781 351.016 582.64 353.465L583.712 351.776ZM575.41 342.345C573.429 338.293 572.422 333.524 572.422 328.011H570.422C570.422 333.768 571.474 338.848 573.613 343.223L575.41 342.345ZM572.422 328.011C572.422 322.45 573.429 317.646 575.41 313.569L573.612 312.695C571.474 317.094 570.422 322.209 570.422 328.011H572.422ZM575.409 313.573C577.417 309.487 580.186 306.342 583.712 304.104L582.64 302.416C578.779 304.866 575.771 308.302 573.614 312.691L575.409 313.573ZM583.709 304.106C587.248 301.875 591.379 300.744 596.138 300.744V298.744C591.048 298.744 586.538 299.958 582.642 302.414L583.709 304.106ZM596.138 300.744C600.897 300.744 605.014 301.875 608.528 304.104L609.599 302.416C605.727 299.958 601.227 298.744 596.138 298.744V300.744ZM608.53 304.106C612.078 306.343 614.845 309.487 616.829 313.569L618.628 312.695C616.493 308.302 613.483 304.865 609.597 302.414L608.53 304.106ZM616.831 313.573C618.834 317.649 619.853 322.452 619.853 328.011H621.853C621.853 322.207 620.789 317.091 618.626 312.691L616.831 313.573ZM619.853 328.011C619.853 333.522 618.835 338.289 616.832 342.341L618.625 343.227C620.789 338.851 621.853 333.769 621.853 328.011H619.853ZM616.83 342.345C614.846 346.404 612.079 349.537 608.53 351.775L609.597 353.467C613.482 351.017 616.491 347.592 618.627 343.223L616.83 342.345ZM608.528 351.776C605.014 354.006 600.897 355.136 596.138 355.136V357.136C601.227 357.136 605.727 355.923 609.599 353.465L608.528 351.776ZM596.138 349.608C600.054 349.608 603.365 348.601 605.992 346.515L604.749 344.948C602.546 346.698 599.702 347.608 596.138 347.608V349.608ZM605.992 346.515C608.562 344.474 610.452 341.797 611.67 338.516L609.795 337.82C608.693 340.788 607.009 343.153 604.749 344.948L605.992 346.515ZM611.67 338.516C612.875 335.269 613.473 331.765 613.473 328.011H611.473C611.473 331.55 610.91 334.816 609.795 337.82L611.67 338.516ZM613.473 328.011C613.473 324.258 612.875 320.742 611.671 317.474L609.794 318.165C610.91 321.194 611.473 324.473 611.473 328.011H613.473ZM611.671 317.474C610.454 314.17 608.565 311.47 605.997 309.405L604.744 310.964C607.006 312.782 608.692 315.172 609.794 318.165L611.671 317.474ZM605.997 309.405C603.37 307.293 600.057 306.273 596.138 306.273V308.273C599.699 308.273 602.541 309.193 604.744 310.964L605.997 309.405ZM596.138 306.273C592.218 306.273 588.905 307.293 586.278 309.405L587.531 310.964C589.734 309.193 592.576 308.273 596.138 308.273V306.273ZM586.278 309.405C583.71 311.47 581.821 314.17 580.604 317.474L582.481 318.165C583.583 315.172 585.269 312.782 587.531 310.964L586.278 309.405ZM580.604 317.474C579.4 320.742 578.802 324.258 578.802 328.011H580.802C580.802 324.473 581.365 321.194 582.481 318.165L580.604 317.474ZM578.802 328.011C578.802 331.765 579.4 335.269 580.605 338.516L582.48 337.82C581.365 334.816 580.802 331.55 580.802 328.011H578.802ZM580.605 338.516C581.823 341.797 583.713 344.474 586.283 346.515L587.526 344.948C585.266 343.153 583.582 340.788 582.48 337.82L580.605 338.516ZM586.283 346.515C588.91 348.601 592.221 349.608 596.138 349.608V347.608C592.573 347.608 589.729 346.698 587.526 344.948L586.283 346.515ZM633.636 355H632.636V356H633.636V355ZM633.636 300.455V299.455H632.636V300.455H633.636ZM641.733 300.455H642.733V299.455H641.733V300.455ZM641.733 308.693H640.733V309.693H641.733V308.693ZM642.301 308.693V309.693H642.998L643.24 309.039L642.301 308.693ZM647.699 302.124L647.157 301.283L647.699 302.124ZM660.909 299.744H661.909V298.839L661.009 298.749L660.909 299.744ZM660.909 308.267L660.667 309.237L661.909 309.548V308.267H660.909ZM658.956 307.947L658.792 308.934L658.805 308.936L658.818 308.938L658.956 307.947ZM648.693 309.368L649.161 310.252L649.164 310.25L648.693 309.368ZM643.793 313.913L642.943 313.385L642.942 313.388L643.793 313.913ZM642.017 355V356H643.017V355H642.017ZM634.636 355V300.455H632.636V355H634.636ZM633.636 301.455H641.733V299.455H633.636V301.455ZM640.733 300.455V308.693H642.733V300.455H640.733ZM641.733 309.693H642.301V307.693H641.733V309.693ZM643.24 309.039C644.153 306.56 645.804 304.537 648.241 302.964L647.157 301.283C644.385 303.072 642.438 305.429 641.363 308.347L643.24 309.039ZM648.241 302.964C650.675 301.393 653.42 300.602 656.506 300.602V298.602C653.057 298.602 649.931 299.492 647.157 301.283L648.241 302.964ZM656.506 300.602C657.11 300.602 657.87 300.614 658.788 300.637L658.84 298.638C657.911 298.614 657.133 298.602 656.506 298.602V300.602ZM658.788 300.637C659.705 300.661 660.374 300.696 660.81 300.739L661.009 298.749C660.497 298.698 659.769 298.662 658.84 298.638L658.788 300.637ZM659.909 299.744V308.267H661.909V299.744H659.909ZM661.152 307.297C660.805 307.21 660.097 307.097 659.094 306.957L658.818 308.938C659.851 309.082 660.445 309.182 660.667 309.237L661.152 307.297ZM659.12 306.961C658.066 306.785 656.958 306.699 655.795 306.699V308.699C656.859 308.699 657.857 308.778 658.792 308.934L659.12 306.961ZM655.795 306.699C653 306.699 650.467 307.287 648.222 308.486L649.164 310.25C651.086 309.224 653.288 308.699 655.795 308.699V306.699ZM648.226 308.484C646.013 309.654 644.246 311.291 642.943 313.385L644.642 314.441C645.754 312.654 647.254 311.26 649.161 310.252L648.226 308.484ZM642.942 313.388C641.652 315.478 641.017 317.853 641.017 320.483H643.017C643.017 318.189 643.566 316.184 644.644 314.439L642.942 313.388ZM641.017 320.483V355H643.017V320.483H641.017ZM642.017 354H633.636V356H642.017V354ZM677.732 352.692L677.177 353.524L677.181 353.526L677.732 352.692ZM669.564 342.891L668.657 343.311L668.658 343.313L669.564 342.891ZM669.564 312.955L668.658 312.532L669.564 312.955ZM677.767 303.189L677.219 302.353V302.353L677.767 303.189ZM698.328 301.52L697.83 302.387L697.842 302.394L698.328 301.52ZM703.087 305.497L702.279 306.087L702.284 306.094L702.29 306.101L703.087 305.497ZM705.679 309.119L704.84 309.664L705.136 310.119H705.679V309.119ZM706.389 309.119V310.119H707.389V309.119H706.389ZM706.389 282.273V281.273H705.389V282.273H706.389ZM714.77 282.273H715.77V281.273H714.77V282.273ZM714.77 355V356H715.77V355H714.77ZM706.673 355H705.673V356H706.673V355ZM706.673 346.619H707.673V345.619H706.673V346.619ZM705.679 346.619V345.619H705.122L704.829 346.093L705.679 346.619ZM703.051 350.384L703.847 350.99L703.851 350.984L703.051 350.384ZM698.186 354.396L698.668 355.272L698.676 355.268L698.186 354.396ZM699.429 345.98L700.032 346.778L700.037 346.774L699.429 345.98ZM704.72 338.629L705.653 338.99L705.654 338.987L704.72 338.629ZM704.756 317.038L703.822 317.397L703.823 317.4L704.756 317.038ZM699.5 309.865L698.903 310.667L698.908 310.671L699.5 309.865ZM682.028 310.007L682.637 310.8L682.638 310.799L682.028 310.007ZM676.737 317.358L675.803 317.001L675.801 317.005L676.737 317.358ZM676.773 338.31L675.836 338.659L675.839 338.668L676.773 338.31ZM682.099 345.838L681.476 346.62L681.484 346.627L682.099 345.838ZM689.77 355.136C685.402 355.136 681.584 354.036 678.282 351.857L677.181 353.526C680.839 355.94 685.047 357.136 689.77 357.136V355.136ZM678.286 351.86C674.975 349.652 672.367 346.535 670.47 342.468L668.658 343.313C670.691 347.674 673.528 351.091 677.177 353.524L678.286 351.86ZM670.471 342.47C668.58 338.391 667.616 333.534 667.616 327.869H665.616C665.616 333.758 666.618 338.914 668.657 343.311L670.471 342.47ZM667.616 327.869C667.616 322.253 668.58 317.432 670.47 313.377L668.658 312.532C666.618 316.905 665.616 322.027 665.616 327.869H667.616ZM670.47 313.377C672.365 309.313 674.984 306.209 678.315 304.025L677.219 302.353C673.543 304.762 670.692 308.168 668.658 312.532L670.47 313.377ZM678.315 304.025C681.64 301.846 685.494 300.744 689.912 300.744V298.744C685.144 298.744 680.901 299.939 677.219 302.353L678.315 304.025ZM689.912 300.744C693.368 300.744 695.979 301.323 697.83 302.387L698.826 300.653C696.558 299.349 693.558 298.744 689.912 298.744V300.744ZM697.842 302.394C699.834 303.503 701.296 304.741 702.279 306.087L703.894 304.907C702.699 303.27 700.989 301.857 698.815 300.646L697.842 302.394ZM702.29 306.101C703.396 307.56 704.244 308.746 704.84 309.664L706.517 308.574C705.883 307.599 705.003 306.37 703.884 304.893L702.29 306.101ZM705.679 310.119H706.389V308.119H705.679V310.119ZM707.389 309.119V282.273H705.389V309.119H707.389ZM706.389 283.273H714.77V281.273H706.389V283.273ZM713.77 282.273V355H715.77V282.273H713.77ZM714.77 354H706.673V356H714.77V354ZM707.673 355V346.619H705.673V355H707.673ZM706.673 345.619H705.679V347.619H706.673V345.619ZM704.829 346.093C704.235 347.051 703.379 348.28 702.251 349.784L703.851 350.984C704.996 349.457 705.891 348.176 706.529 347.146L704.829 346.093ZM702.256 349.777C701.222 351.134 699.717 352.389 697.696 353.524L698.676 355.268C700.869 354.036 702.607 352.616 703.847 350.99L702.256 349.777ZM697.704 353.52C695.797 354.57 693.177 355.136 689.77 355.136V357.136C693.37 357.136 696.361 356.542 698.668 355.272L697.704 353.52ZM690.906 349.608C694.45 349.608 697.512 348.681 700.032 346.778L698.826 345.182C696.706 346.783 694.086 347.608 690.906 347.608V349.608ZM700.037 346.774C702.523 344.871 704.389 342.261 705.653 338.99L703.787 338.269C702.636 341.248 700.975 343.538 698.821 345.186L700.037 346.774ZM705.654 338.987C706.914 335.702 707.531 331.943 707.531 327.727H705.531C705.531 331.75 704.941 335.259 703.786 338.271L705.654 338.987ZM707.531 327.727C707.531 323.561 706.926 319.87 705.688 316.677L703.823 317.4C704.953 320.314 705.531 323.75 705.531 327.727H707.531ZM705.689 316.679C704.447 313.45 702.588 310.893 700.092 309.059L698.908 310.671C701.052 312.246 702.697 314.472 703.822 317.397L705.689 316.679ZM700.097 309.063C697.575 307.184 694.491 306.273 690.906 306.273V308.273C694.14 308.273 696.784 309.089 698.903 310.667L700.097 309.063ZM690.906 306.273C687.177 306.273 683.992 307.233 681.418 309.215L682.638 310.799C684.8 309.135 687.533 308.273 690.906 308.273V306.273ZM681.419 309.214C678.911 311.139 677.044 313.749 675.803 317.001L677.671 317.715C678.798 314.764 680.458 312.473 682.637 310.8L681.419 309.214ZM675.801 317.005C674.592 320.213 673.997 323.791 673.997 327.727H675.997C675.997 323.993 676.562 320.659 677.673 317.711L675.801 317.005ZM673.997 327.727C673.997 331.712 674.605 335.36 675.836 338.659L677.71 337.96C676.573 334.915 675.997 331.508 675.997 327.727H673.997ZM675.839 338.668C677.102 341.961 678.976 344.625 681.476 346.62L682.723 345.056C680.535 343.311 678.858 340.955 677.706 337.952L675.839 338.668ZM681.484 346.627C684.056 348.632 687.218 349.608 690.906 349.608V347.608C687.586 347.608 684.878 346.737 682.714 345.05L681.484 346.627ZM739.653 282.273H740.653V281.273H739.653V282.273ZM739.653 355V356H740.653V355H739.653ZM731.273 355H730.273V356H731.273V355ZM731.273 282.273V281.273H730.273V282.273H731.273ZM738.653 282.273V355H740.653V282.273H738.653ZM739.653 354H731.273V356H739.653V354ZM732.273 355V282.273H730.273V355H732.273ZM731.273 283.273H739.653V281.273H731.273V283.273ZM764.262 352.656L763.735 353.507L763.742 353.51L764.262 352.656ZM755.49 342.855L754.59 343.29L754.593 343.296L755.49 342.855ZM755.49 313.381L754.589 312.947L754.588 312.95L755.49 313.381ZM764.084 303.366L764.63 304.204L764.631 304.203L764.084 303.366ZM785.426 301.165L785.75 300.219V300.219L785.426 301.165ZM792.99 305.781L792.306 306.511L792.31 306.515L792.99 305.781ZM798.424 314.162L799.356 313.8V313.8L798.424 314.162ZM800.448 330.568V331.568H801.448V330.568H800.448ZM758.402 330.568H757.402V331.568H758.402V330.568ZM758.402 323.324V322.324H757.402V323.324H758.402ZM791.925 323.324V324.324H792.925V323.324H791.925ZM790.078 315.085L789.184 315.532L789.187 315.539L790.078 315.085ZM784.894 309.368L784.362 310.215L784.366 310.217L784.894 309.368ZM768.345 309.759L768.906 310.587L768.907 310.586L768.345 309.759ZM762.77 316.151L761.874 315.707L762.77 316.151ZM762.948 339.908L762.052 340.352L762.056 340.361L762.948 339.908ZM768.949 346.406L768.445 347.27L768.451 347.274L768.949 346.406ZM783.828 347.685L784.156 348.63L784.163 348.627L783.828 347.685ZM788.48 344.844L789.174 345.564L789.181 345.557L788.48 344.844ZM791.499 340.085L791.769 339.122L790.885 338.874L790.562 339.734L791.499 340.085ZM799.595 342.358L800.55 342.654L800.855 341.673L799.866 341.395L799.595 342.358ZM795.299 349.602L796.014 350.301L796.018 350.297L795.299 349.602ZM787.841 354.432L788.2 355.365L788.206 355.363L787.841 354.432ZM777.862 355.136C772.757 355.136 768.41 354.011 764.782 351.802L763.742 353.51C767.736 355.942 772.456 357.136 777.862 357.136V355.136ZM764.788 351.806C761.168 349.566 758.369 346.444 756.388 342.414L754.593 343.296C756.731 347.647 759.78 351.059 763.735 353.507L764.788 351.806ZM756.391 342.42C754.432 338.366 753.436 333.619 753.436 328.153H751.436C751.436 333.862 752.477 338.917 754.59 343.29L756.391 342.42ZM753.436 328.153C753.436 322.688 754.432 317.916 756.393 313.812L754.588 312.95C752.477 317.368 751.436 322.444 751.436 328.153H753.436ZM756.392 313.814C758.379 309.679 761.127 306.487 764.63 304.204L763.538 302.529C759.702 305.028 756.721 308.512 754.589 312.947L756.392 313.814ZM764.631 304.203C768.143 301.907 772.257 300.744 777.01 300.744V298.744C771.915 298.744 767.411 299.996 763.537 302.53L764.631 304.203ZM777.01 300.744C779.738 300.744 782.434 301.199 785.103 302.111L785.75 300.219C782.879 299.237 779.964 298.744 777.01 298.744V300.744ZM785.103 302.111C787.73 303.009 790.13 304.471 792.306 306.511L793.674 305.052C791.305 302.83 788.662 301.214 785.75 300.219L785.103 302.111ZM792.31 306.515C794.451 308.499 796.186 311.156 797.491 314.523L799.356 313.8C797.963 310.207 796.075 307.277 793.67 305.048L792.31 306.515ZM797.491 314.523C798.783 317.855 799.448 322.009 799.448 327.017H801.448C801.448 321.845 800.763 317.429 799.356 313.8L797.491 314.523ZM799.448 327.017V330.568H801.448V327.017H799.448ZM800.448 329.568H758.402V331.568H800.448V329.568ZM759.402 330.568V323.324H757.402V330.568H759.402ZM758.402 324.324H791.925V322.324H758.402V324.324ZM792.925 323.324C792.925 320.11 792.281 317.204 790.969 314.631L789.187 315.539C790.338 317.796 790.925 320.383 790.925 323.324H792.925ZM790.973 314.638C789.684 312.061 787.831 310.015 785.421 308.518L784.366 310.217C786.455 311.515 788.058 313.28 789.184 315.532L790.973 314.638ZM785.425 308.521C783.017 307.01 780.199 306.273 777.01 306.273V308.273C779.882 308.273 782.319 308.933 784.362 310.215L785.425 308.521ZM777.01 306.273C773.499 306.273 770.409 307.147 767.783 308.931L768.907 310.586C771.159 309.056 773.845 308.273 777.01 308.273V306.273ZM767.785 308.93C765.226 310.661 763.252 312.925 761.874 315.707L763.666 316.595C764.892 314.121 766.635 312.123 768.906 310.587L767.785 308.93ZM761.874 315.707C760.502 318.476 759.817 321.446 759.817 324.602H761.817C761.817 321.746 762.434 319.081 763.666 316.595L761.874 315.707ZM759.817 324.602V329.432H761.817V324.602H759.817ZM759.817 329.432C759.817 333.662 760.546 337.315 762.052 340.352L763.844 339.463C762.508 336.771 761.817 333.44 761.817 329.432H759.817ZM762.056 340.361C763.58 343.359 765.71 345.674 768.445 347.27L769.453 345.542C767.075 344.155 765.203 342.138 763.839 339.455L762.056 340.361ZM768.451 347.274C771.181 348.84 774.329 349.608 777.862 349.608V347.608C774.625 347.608 771.831 346.908 769.447 345.539L768.451 347.274ZM777.862 349.608C780.157 349.608 782.259 349.287 784.156 348.629L783.501 346.74C781.847 347.313 779.971 347.608 777.862 347.608V349.608ZM784.163 348.627C786.089 347.943 787.764 346.923 789.174 345.564L787.786 344.124C786.593 345.274 785.166 346.148 783.494 346.742L784.163 348.627ZM789.181 345.557C790.598 344.166 791.679 342.452 792.435 340.436L790.562 339.734C789.898 341.506 788.967 342.965 787.78 344.13L789.181 345.557ZM791.229 341.048L799.325 343.321L799.866 341.395L791.769 339.122L791.229 341.048ZM798.64 342.062C797.835 344.657 796.484 346.936 794.579 348.908L796.018 350.297C798.138 348.102 799.651 345.551 800.55 342.654L798.64 342.062ZM794.583 348.903C792.68 350.852 790.317 352.387 787.476 353.501L788.206 355.363C791.283 354.157 793.893 352.472 796.014 350.301L794.583 348.903ZM787.483 353.498C784.655 354.584 781.453 355.136 777.862 355.136V357.136C781.658 357.136 785.109 356.552 788.2 355.365L787.483 353.498Z" fill="black"/>
<path d="M222.241 129.576C213.889 129.576 207.739 135.189 207.739 143.004V143.058C207.739 150.335 213.003 155.707 220.469 155.707C225.706 155.707 229.573 153.021 231.104 149.476H231.265C231.265 149.906 231.238 150.309 231.211 150.711C230.942 158.043 228.337 164.005 222.107 164.005C218.643 164.005 216.279 162.286 215.232 159.627L215.151 159.386H208.276L208.33 159.681C209.539 165.536 214.91 169.671 222.08 169.671C231.963 169.671 237.898 162.018 237.898 149.208V149.154C237.898 135.565 230.781 129.576 222.241 129.576ZM222.241 150.362C217.837 150.362 214.561 147.22 214.561 142.816V142.762C214.561 138.573 218.025 135.243 222.322 135.243C226.672 135.243 230.056 138.6 230.056 142.896V142.923C230.056 147.247 226.672 150.362 222.241 150.362ZM246.545 143.648C248.721 143.648 250.413 141.93 250.413 139.754C250.413 137.579 248.721 135.887 246.545 135.887C244.37 135.887 242.651 137.579 242.651 139.754C242.651 141.93 244.37 143.648 246.545 143.648ZM246.545 163.36C248.721 163.36 250.413 161.642 250.413 159.466C250.413 157.291 248.721 155.599 246.545 155.599C244.37 155.599 242.651 157.291 242.651 159.466C242.651 161.642 244.37 163.36 246.545 163.36ZM274.233 169H280.84V161.561H286.104V155.868H280.84V130.248H270.984L254.897 155.653V161.561H274.233V169ZM261.128 156.029V155.841L274.18 135.484H274.341V156.029H261.128ZM300.149 169H306.943V130.248H300.095L289.971 137.364V143.729L299.988 136.854H300.149V169Z" fill="white"/>
<g opacity="0.9">
<rect x="893" y="150" width="10" height="12" rx="1" fill="white"/>
<rect x="907" y="144" width="10" height="18" rx="1" fill="white"/>
<rect x="922" y="137" width="10" height="25" rx="1" fill="white"/>
<rect x="936" y="129" width="10" height="33" rx="1" fill="white"/>
</g>
<g opacity="0.9">
<path d="M1025.15 137.632C1018.62 131.066 1009.59 127 999.603 127C989.586 127 980.526 131.09 974 137.692L979.657 143.349C984.735 138.195 991.796 135 999.603 135C1007.38 135 1014.42 138.17 1019.49 143.289L1025.15 137.632Z" fill="white"/>
<path d="M1015.95 146.825C1011.79 142.611 1006 140 999.603 140C993.176 140 987.366 142.635 983.192 146.884L988.85 152.542C991.575 149.74 995.386 148 999.603 148C1003.79 148 1007.58 149.715 1010.3 152.482L1015.95 146.825Z" fill="white"/>
<path d="M1006.76 156.018C1004.95 154.156 1002.41 153 999.603 153C996.766 153 994.206 154.181 992.386 156.078L999.543 163.235L1006.76 156.018Z" fill="white"/>
</g>
<rect opacity="0.6" x="1054.5" y="129.5" width="67" height="32" rx="6.5" stroke="white" stroke-width="3"/>
<rect opacity="0.9" x="1058" y="133" width="60" height="25" rx="4" fill="white"/>
<path opacity="0.6" d="M1125 141V141C1127.21 141 1129 142.791 1129 145V146C1129 148.209 1127.21 150 1125 150V150V141Z" fill="white"/>
<rect x="213.5" y="571.5" width="142.955" height="142.955" fill="white"/>
<rect x="213.5" y="571.5" width="142.955" height="142.955" stroke="#8D8D8D"/>
<rect x="213.5" y="752.423" width="142.955" height="145.739" fill="white"/>
<rect x="213.5" y="752.423" width="142.955" height="145.739" stroke="#8D8D8D"/>
<rect x="945.545" y="752.423" width="142.955" height="145.739" fill="white"/>
<rect x="945.545" y="752.423" width="142.955" height="145.739" stroke="#8D8D8D"/>
<rect x="759.054" y="752.423" width="148.522" height="145.739" fill="white"/>
<rect x="759.054" y="752.423" width="148.522" height="145.739" stroke="#8D8D8D"/>
<rect x="578.13" y="752.423" width="145.739" height="145.739" fill="white"/>
<rect x="578.13" y="752.423" width="145.739" height="145.739" stroke="#8D8D8D"/>
<rect x="394.423" y="752.423" width="148.522" height="145.739" fill="white"/>
<rect x="394.423" y="752.423" width="148.522" height="145.739" stroke="#8D8D8D"/>
<rect x="578.13" y="571.5" width="145.739" height="142.955" fill="white"/>
<rect x="578.13" y="571.5" width="145.739" height="142.955" stroke="#8D8D8D"/>
<rect x="945.545" y="571.5" width="142.955" height="142.955" fill="white"/>
<rect x="945.545" y="571.5" width="142.955" height="142.955" stroke="#8D8D8D"/>
<rect x="759.054" y="571.5" width="148.522" height="142.955" fill="white"/>
<rect x="759.054" y="571.5" width="148.522" height="142.955" stroke="#8D8D8D"/>
<rect x="394.423" y="571.5" width="148.522" height="142.955" fill="white"/>
<rect x="394.423" y="571.5" width="148.522" height="142.955" stroke="#8D8D8D"/>
<rect x="213.5" y="936.13" width="142.955" height="145.739" fill="white"/>
<rect x="213.5" y="936.13" width="142.955" height="145.739" stroke="#8D8D8D"/>
<rect x="213.5" y="1117.05" width="142.955" height="145.739" fill="white"/>
<rect x="213.5" y="1117.05" width="142.955" height="145.739" stroke="#8D8D8D"/>
<rect x="945.545" y="1117.05" width="142.955" height="145.739" fill="white"/>
<rect x="945.545" y="1117.05" width="142.955" height="145.739" stroke="#8D8D8D"/>
<rect x="759.054" y="1117.05" width="148.522" height="145.739" fill="white"/>
<rect x="759.054" y="1117.05" width="148.522" height="145.739" stroke="#8D8D8D"/>
<rect x="578.13" y="1117.05" width="145.739" height="145.739" fill="white"/>
<rect x="578.13" y="1117.05" width="145.739" height="145.739" stroke="#8D8D8D"/>
<rect x="394.423" y="1117.05" width="148.522" height="145.739" fill="white"/>
<rect x="394.423" y="1117.05" width="148.522" height="145.739" stroke="#8D8D8D"/>
<rect x="578.13" y="936.13" width="145.739" height="145.739" fill="white"/>
<rect x="578.13" y="936.13" width="145.739" height="145.739" stroke="#8D8D8D"/>
<rect x="945.545" y="936.13" width="142.955" height="145.739" fill="white"/>
<rect x="945.545" y="936.13" width="142.955" height="145.739" stroke="#8D8D8D"/>
<rect x="759.054" y="936.13" width="148.522" height="145.739" fill="white"/>
<rect x="759.054" y="936.13" width="148.522" height="145.739" stroke="#8D8D8D"/>
<rect x="394.423" y="936.13" width="148.522" height="145.739" fill="white"/>
<rect x="394.423" y="936.13" width="148.522" height="145.739" stroke="#8D8D8D"/>
<rect x="213.5" y="1297.98" width="142.955" height="145.739" fill="white"/>
<rect x="213.5" y="1297.98" width="142.955" height="145.739" stroke="#8D8D8D"/>
<rect x="213.5" y="1481.68" width="142.955" height="145.739" fill="white"/>
<rect x="213.5" y="1481.68" width="142.955" height="145.739" stroke="#8D8D8D"/>
<rect x="945.545" y="1481.68" width="142.955" height="145.739" fill="white"/>
<rect x="945.545" y="1481.68" width="142.955" height="145.739" stroke="#8D8D8D"/>
<rect x="759.054" y="1481.68" width="148.522" height="145.739" fill="white"/>
<rect x="759.054" y="1481.68" width="148.522" height="145.739" stroke="#8D8D8D"/>
<rect x="578.13" y="1481.68" width="145.739" height="145.739" fill="white"/>
<rect x="578.13" y="1481.68" width="145.739" height="145.739" stroke="#8D8D8D"/>
<rect x="394.423" y="1481.68" width="148.522" height="145.739" fill="white"/>
<rect x="394.423" y="1481.68" width="148.522" height="145.739" stroke="#8D8D8D"/>
<rect x="578.13" y="1297.98" width="145.739" height="145.739" fill="white"/>
<rect x="578.13" y="1297.98" width="145.739" height="145.739" stroke="#8D8D8D"/>
<rect x="945.545" y="1297.98" width="142.955" height="145.739" fill="white"/>
<rect x="945.545" y="1297.98" width="142.955" height="145.739" stroke="#8D8D8D"/>
<rect x="759.054" y="1297.98" width="148.522" height="145.739" fill="white"/>
<rect x="759.054" y="1297.98" width="148.522" height="145.739" stroke="#8D8D8D"/>
<rect x="394.423" y="1297.98" width="148.522" height="145.739" fill="white"/>
<rect x="394.423" y="1297.98" width="148.522" height="145.739" stroke="#8D8D8D"/>
<rect x="154.114" y="1938.9" width="80.9639" height="116.235" rx="5" fill="#D2D5D8"/>
<rect x="376.965" y="1934.89" width="82.5671" height="117.838" rx="5" fill="#D2D5D8"/>
<rect x="488.39" y="1934.89" width="82.5671" height="117.838" rx="5" fill="#D2D5D8"/>
<rect x="599.815" y="1934.89" width="82.5671" height="117.838" rx="5" fill="#D2D5D8"/>
<rect x="711.241" y="1934.89" width="81.7655" height="117.838" rx="5" fill="#D2D5D8"/>
<rect x="823.468" y="1938.9" width="80.9639" height="116.235" rx="5" fill="#D2D5D8"/>
<rect x="934.894" y="1934.89" width="80.9639" height="117.838" rx="5" fill="#D2D5D8"/>
<rect x="1046.32" y="1934.89" width="82.5671" height="117.838" rx="5" fill="#D2D5D8"/>
<rect x="934.894" y="2083.19" width="80.9639" height="117.838" rx="5" fill="#D2D5D8"/>
<rect x="265.539" y="1938.9" width="80.9639" height="116.235" rx="5" fill="#D2D5D8"/>
<rect x="265.539" y="2083.19" width="80.9639" height="117.838" rx="5" fill="#D2D5D8"/>
<rect x="376.965" y="2083.19" width="82.5671" height="117.838" rx="5" fill="#D2D5D8"/>
<rect x="488.39" y="2083.19" width="82.5671" height="117.838" rx="5" fill="#D2D5D8"/>
<rect x="599.815" y="2083.19" width="82.5671" height="117.838" rx="5" fill="#D2D5D8"/>
<rect x="711.241" y="2083.19" width="81.7655" height="117.838" rx="5" fill="#D2D5D8"/>
<rect x="823.468" y="2083.19" width="80.9639" height="117.838" rx="5" fill="#D2D5D8"/>
<rect x="98" y="1793" width="82.5671" height="117.838" rx="5" fill="#D2D5D8"/>
<rect x="209.425" y="1793" width="82.5671" height="117.838" rx="5" fill="#D2D5D8"/>
<rect x="320.851" y="1793" width="82.5671" height="117.838" rx="5" fill="#D2D5D8"/>
<rect x="432.276" y="1793" width="81.7655" height="117.838" rx="5" fill="#D2D5D8"/>
<rect x="544.504" y="1793" width="80.9639" height="117.838" rx="5" fill="#D2D5D8"/>
<rect x="655.929" y="1793" width="80.9639" height="117.838" rx="5" fill="#D2D5D8"/>
<rect x="767.354" y="1793" width="82.5671" height="117.838" rx="5" fill="#D2D5D8"/>
<rect x="878.78" y="1795.4" width="82.5671" height="118.64" rx="5" fill="#D2D5D8"/>
<rect x="990.206" y="1795.4" width="81.7655" height="118.64" rx="5" fill="#D2D5D8"/>
<rect x="1100.83" y="1795.4" width="82.5671" height="118.64" rx="5" fill="#D2D5D8"/>
<path d="M137.697 1855.89H140.68L142.446 1858.18L143.707 1859.67L146.734 1863.56H143.538L141.479 1860.95L140.6 1859.71L137.697 1855.89ZM147.169 1852.91C147.169 1854.87 146.802 1856.55 146.068 1857.94C145.34 1859.33 144.346 1860.4 143.085 1861.14C141.831 1861.88 140.407 1862.25 138.815 1862.25C137.223 1862.25 135.797 1861.88 134.536 1861.14C133.281 1860.39 132.287 1859.32 131.553 1857.93C130.825 1856.54 130.461 1854.86 130.461 1852.91C130.461 1850.95 130.825 1849.28 131.553 1847.88C132.287 1846.49 133.281 1845.42 134.536 1844.68C135.797 1843.94 137.223 1843.57 138.815 1843.57C140.407 1843.57 141.831 1843.94 143.085 1844.68C144.346 1845.42 145.34 1846.49 146.068 1847.88C146.802 1849.28 147.169 1850.95 147.169 1852.91ZM143.858 1852.91C143.858 1851.53 143.642 1850.37 143.21 1849.42C142.784 1848.47 142.192 1847.75 141.434 1847.26C140.677 1846.77 139.804 1846.53 138.815 1846.53C137.827 1846.53 136.954 1846.77 136.196 1847.26C135.439 1847.75 134.844 1848.47 134.412 1849.42C133.986 1850.37 133.773 1851.53 133.773 1852.91C133.773 1854.29 133.986 1855.45 134.412 1856.41C134.844 1857.35 135.439 1858.07 136.196 1858.56C136.954 1859.05 137.827 1859.29 138.815 1859.29C139.804 1859.29 140.677 1859.05 141.434 1858.56C142.192 1858.07 142.784 1857.35 143.21 1856.41C143.642 1855.45 143.858 1854.29 143.858 1852.91Z" fill="black"/>
<path d="M244.265 1862L239.134 1843.82H242.676L245.952 1857.18H246.121L249.618 1843.82H252.841L256.348 1857.19H256.508L259.784 1843.82H263.326L258.194 1862H254.945L251.305 1849.24H251.163L247.514 1862H244.265Z" fill="black"/>
<path d="M965.494 2134.82H969.524L974.922 2147.99H975.135L980.533 2134.82H984.563V2153H981.403V2140.51H981.234L976.209 2152.95H973.848L968.823 2140.48H968.654V2153H965.494V2134.82Z" fill="black"/>
<path d="M871.692 2134.82V2153H868.763L860.196 2140.62H860.045V2153H856.751V2134.82H859.698L868.257 2147.21H868.416V2134.82H871.692Z" fill="black"/>
<path d="M745.999 2153V2134.82H752.959C754.273 2134.82 755.365 2135.03 756.235 2135.44C757.111 2135.85 757.765 2136.41 758.197 2137.12C758.635 2137.83 758.854 2138.63 758.854 2139.53C758.854 2140.27 758.712 2140.91 758.428 2141.43C758.144 2141.95 757.762 2142.38 757.283 2142.7C756.803 2143.03 756.268 2143.26 755.676 2143.4V2143.58C756.321 2143.62 756.94 2143.81 757.531 2144.18C758.129 2144.53 758.617 2145.03 758.996 2145.68C759.375 2146.34 759.564 2147.12 759.564 2148.05C759.564 2148.99 759.337 2149.83 758.881 2150.59C758.425 2151.33 757.739 2151.92 756.821 2152.35C755.904 2152.78 754.75 2153 753.359 2153H745.999ZM749.293 2150.25H752.835C754.031 2150.25 754.892 2150.02 755.418 2149.56C755.951 2149.1 756.217 2148.51 756.217 2147.79C756.217 2147.25 756.084 2146.76 755.818 2146.33C755.552 2145.89 755.173 2145.55 754.682 2145.3C754.19 2145.05 753.604 2144.92 752.924 2144.92H749.293V2150.25ZM749.293 2142.55H752.551C753.119 2142.55 753.631 2142.45 754.087 2142.24C754.543 2142.03 754.901 2141.73 755.161 2141.34C755.427 2140.95 755.561 2140.49 755.561 2139.96C755.561 2139.25 755.312 2138.67 754.815 2138.22C754.324 2137.76 753.593 2137.53 752.622 2137.53H749.293V2142.55Z" fill="black"/>
<path d="M635.804 2134.82L640.536 2149.13H640.722L645.445 2134.82H649.067L642.658 2153H638.592L632.191 2134.82H635.804Z" fill="black"/>
<path d="M537.889 2140.95H534.568C534.474 2140.41 534.299 2139.93 534.044 2139.51C533.79 2139.08 533.473 2138.72 533.094 2138.42C532.716 2138.13 532.284 2137.9 531.798 2137.76C531.319 2137.6 530.801 2137.53 530.245 2137.53C529.256 2137.53 528.38 2137.77 527.617 2138.27C526.853 2138.76 526.256 2139.48 525.824 2140.44C525.391 2141.38 525.175 2142.54 525.175 2143.91C525.175 2145.3 525.391 2146.47 525.824 2147.42C526.262 2148.37 526.859 2149.09 527.617 2149.57C528.38 2150.05 529.253 2150.29 530.236 2150.29C530.78 2150.29 531.289 2150.22 531.763 2150.08C532.242 2149.93 532.671 2149.72 533.05 2149.43C533.435 2149.15 533.757 2148.8 534.018 2148.38C534.284 2147.97 534.468 2147.5 534.568 2146.96L537.889 2146.98C537.764 2147.84 537.495 2148.66 537.081 2149.41C536.672 2150.17 536.137 2150.84 535.474 2151.42C534.811 2151.99 534.036 2152.44 533.148 2152.77C532.26 2153.09 531.275 2153.25 530.191 2153.25C528.593 2153.25 527.167 2152.88 525.912 2152.14C524.658 2151.4 523.669 2150.33 522.947 2148.93C522.225 2147.54 521.864 2145.86 521.864 2143.91C521.864 2141.95 522.228 2140.28 522.956 2138.88C523.684 2137.49 524.675 2136.42 525.93 2135.68C527.185 2134.94 528.605 2134.57 530.191 2134.57C531.204 2134.57 532.145 2134.71 533.015 2135C533.885 2135.28 534.66 2135.7 535.341 2136.25C536.021 2136.79 536.581 2137.46 537.019 2138.25C537.462 2139.04 537.752 2139.94 537.889 2140.95Z" fill="black"/>
<path d="M413.535 2134.82L417.538 2141.48H417.681L421.702 2134.82H425.457L419.856 2143.91L425.546 2153H421.729L417.681 2146.39H417.538L413.49 2153H409.69L415.434 2143.91L409.761 2134.82H413.535Z" fill="black"/>
<path d="M298.921 2153V2150.95L308.243 2137.58H298.868V2134.82H312.327V2136.87L303.014 2150.24H312.38V2153H298.921Z" fill="black"/>
<path d="M1083.13 2005V1986.82H1086.42V2002.24H1094.43V2005H1083.13Z" fill="black"/>
<path d="M967.953 2005V1986.82H971.247V1995.17H971.469L978.562 1986.82H982.584L975.553 1994.98L982.646 2005H978.687L973.262 1997.21L971.247 1999.58V2005H967.953Z" fill="black"/>
<path d="M866.377 1986.82H869.644V1999.6C869.638 2000.77 869.389 2001.78 868.898 2002.63C868.407 2003.47 867.72 2004.12 866.838 2004.57C865.963 2005.02 864.942 2005.25 863.776 2005.25C862.71 2005.25 861.751 2005.06 860.899 2004.68C860.053 2004.3 859.381 2003.73 858.884 2002.98C858.387 2002.22 858.138 2001.29 858.138 2000.17H861.414C861.42 2000.66 861.527 2001.08 861.734 2001.44C861.947 2001.8 862.24 2002.07 862.613 2002.26C862.985 2002.45 863.415 2002.54 863.9 2002.54C864.427 2002.54 864.874 2002.43 865.24 2002.21C865.607 2001.99 865.886 2001.66 866.075 2001.22C866.27 2000.78 866.371 2000.24 866.377 1999.6V1986.82Z" fill="black"/>
<path d="M744.714 2005V1986.82H748.008V1994.52H756.433V1986.82H759.736V2005H756.433V1997.28H748.008V2005H744.714Z" fill="black"/>
<path d="M645.161 1992.62C645.013 1992.14 644.809 1991.72 644.549 1991.34C644.294 1990.95 643.986 1990.62 643.625 1990.35C643.27 1990.08 642.862 1989.88 642.4 1989.74C641.939 1989.6 641.435 1989.53 640.891 1989.53C639.914 1989.53 639.044 1989.77 638.281 1990.26C637.517 1990.75 636.917 1991.48 636.479 1992.43C636.047 1993.38 635.831 1994.53 635.831 1995.89C635.831 1997.26 636.047 1998.43 636.479 1999.38C636.911 2000.33 637.511 2001.06 638.281 2001.56C639.05 2002.05 639.944 2002.29 640.962 2002.29C641.885 2002.29 642.684 2002.11 643.359 2001.76C644.04 2001.4 644.563 2000.9 644.93 2000.25C645.297 1999.59 645.481 1998.82 645.481 1997.94L646.227 1998.06H641.29V1995.48H648.668V1997.67C648.668 1999.22 648.337 2000.57 647.674 2001.71C647.011 2002.84 646.099 2003.72 644.939 2004.33C643.779 2004.94 642.448 2005.25 640.944 2005.25C639.269 2005.25 637.799 2004.87 636.532 2004.12C635.271 2003.36 634.286 2002.29 633.576 2000.9C632.871 1999.5 632.519 1997.84 632.519 1995.93C632.519 1994.46 632.726 1993.15 633.141 1991.99C633.561 1990.84 634.147 1989.86 634.898 1989.06C635.65 1988.24 636.532 1987.63 637.544 1987.21C638.556 1986.78 639.657 1986.57 640.847 1986.57C641.853 1986.57 642.791 1986.72 643.661 1987.01C644.531 1987.3 645.303 1987.72 645.978 1988.26C646.659 1988.79 647.218 1989.43 647.656 1990.17C648.094 1990.91 648.381 1991.73 648.517 1992.62H645.161Z" fill="black"/>
<path d="M524.485 2005V1986.82H536.133V1989.58H527.779V1994.52H535.334V1997.28H527.779V2005H524.485Z" fill="black"/>
<path d="M416.719 2005H410.558V1986.82H416.843C418.648 1986.82 420.199 1987.18 421.495 1987.91C422.797 1988.63 423.797 1989.67 424.496 1991.03C425.194 1992.38 425.543 1994 425.543 1995.89C425.543 1997.79 425.191 1999.41 424.487 2000.77C423.789 2002.14 422.779 2003.18 421.46 2003.91C420.146 2004.64 418.565 2005 416.719 2005ZM413.851 2002.15H416.559C417.826 2002.15 418.882 2001.92 419.728 2001.46C420.575 2000.99 421.211 2000.29 421.637 1999.37C422.063 1998.44 422.276 1997.28 422.276 1995.89C422.276 1994.5 422.063 1993.35 421.637 1992.43C421.211 1991.51 420.581 1990.82 419.746 1990.36C418.918 1989.9 417.888 1989.67 416.657 1989.67H413.851V2002.15Z" fill="black"/>
<path d="M309.176 1991.82C309.093 1991.04 308.744 1990.44 308.129 1990.01C307.519 1989.57 306.726 1989.36 305.749 1989.36C305.063 1989.36 304.474 1989.46 303.983 1989.67C303.491 1989.88 303.116 1990.16 302.855 1990.51C302.595 1990.87 302.462 1991.27 302.456 1991.73C302.456 1992.11 302.541 1992.43 302.713 1992.71C302.891 1992.99 303.13 1993.23 303.432 1993.42C303.734 1993.61 304.068 1993.77 304.435 1993.9C304.802 1994.03 305.172 1994.14 305.545 1994.23L307.25 1994.66C307.936 1994.82 308.596 1995.03 309.229 1995.31C309.869 1995.58 310.44 1995.92 310.943 1996.34C311.452 1996.75 311.854 1997.25 312.15 1997.84C312.446 1998.42 312.594 1999.11 312.594 1999.9C312.594 2000.96 312.322 2001.9 311.777 2002.71C311.233 2003.51 310.446 2004.14 309.416 2004.6C308.392 2005.05 307.152 2005.28 305.696 2005.28C304.282 2005.28 303.053 2005.06 302.012 2004.62C300.976 2004.18 300.165 2003.54 299.579 2002.7C298.999 2001.86 298.686 2000.84 298.638 1999.63H301.879C301.926 2000.26 302.121 2000.79 302.465 2001.21C302.808 2001.63 303.255 2001.94 303.805 2002.15C304.361 2002.36 304.983 2002.46 305.669 2002.46C306.386 2002.46 307.013 2002.35 307.552 2002.14C308.096 2001.92 308.522 2001.62 308.83 2001.24C309.138 2000.85 309.295 2000.39 309.3 1999.87C309.295 1999.4 309.155 1999 308.883 1998.7C308.611 1998.38 308.229 1998.12 307.738 1997.92C307.253 1997.7 306.684 1997.51 306.033 1997.35L303.965 1996.81C302.467 1996.43 301.284 1995.85 300.414 1995.07C299.55 1994.28 299.118 1993.23 299.118 1991.93C299.118 1990.86 299.408 1989.92 299.988 1989.12C300.574 1988.31 301.37 1987.69 302.376 1987.24C303.382 1986.79 304.521 1986.57 305.794 1986.57C307.084 1986.57 308.214 1986.79 309.185 1987.24C310.162 1987.69 310.928 1988.31 311.484 1989.1C312.041 1989.89 312.328 1990.79 312.346 1991.82H309.176Z" fill="black"/>
<path d="M189.706 2005H186.191L192.592 1986.82H196.658L203.067 2005H199.552L194.696 1990.55H194.554L189.706 2005ZM189.822 1997.87H199.41V2000.52H189.822V1997.87Z" fill="black"/>
<path d="M1136.17 1862V1843.82H1142.99C1144.38 1843.82 1145.56 1844.08 1146.5 1844.6C1147.46 1845.12 1148.18 1845.84 1148.66 1846.75C1149.15 1847.65 1149.4 1848.68 1149.4 1849.84C1149.4 1851 1149.15 1852.04 1148.66 1852.94C1148.17 1853.85 1147.44 1854.56 1146.49 1855.08C1145.53 1855.6 1144.35 1855.86 1142.94 1855.86H1138.42V1853.15H1142.5C1143.32 1853.15 1143.99 1853.01 1144.51 1852.72C1145.03 1852.44 1145.41 1852.05 1145.66 1851.55C1145.91 1851.05 1146.04 1850.48 1146.04 1849.84C1146.04 1849.19 1145.91 1848.62 1145.66 1848.13C1145.41 1847.64 1145.02 1847.26 1144.5 1846.99C1143.98 1846.71 1143.3 1846.57 1142.48 1846.57H1139.46V1862H1136.17Z" fill="black"/>
<path d="M1039.58 1852.91C1039.58 1854.87 1039.22 1856.55 1038.48 1857.94C1037.75 1859.33 1036.76 1860.4 1035.5 1861.14C1034.24 1861.88 1032.82 1862.25 1031.23 1862.25C1029.64 1862.25 1028.21 1861.88 1026.95 1861.14C1025.69 1860.39 1024.7 1859.32 1023.97 1857.93C1023.24 1856.54 1022.87 1854.86 1022.87 1852.91C1022.87 1850.95 1023.24 1849.28 1023.97 1847.88C1024.7 1846.49 1025.69 1845.42 1026.95 1844.68C1028.21 1843.94 1029.64 1843.57 1031.23 1843.57C1032.82 1843.57 1034.24 1843.94 1035.5 1844.68C1036.76 1845.42 1037.75 1846.49 1038.48 1847.88C1039.22 1849.28 1039.58 1850.95 1039.58 1852.91ZM1036.27 1852.91C1036.27 1851.53 1036.05 1850.37 1035.62 1849.42C1035.2 1848.47 1034.6 1847.75 1033.85 1847.26C1033.09 1846.77 1032.22 1846.53 1031.23 1846.53C1030.24 1846.53 1029.37 1846.77 1028.61 1847.26C1027.85 1847.75 1027.26 1848.47 1026.82 1849.42C1026.4 1850.37 1026.19 1851.53 1026.19 1852.91C1026.19 1854.29 1026.4 1855.45 1026.82 1856.41C1027.26 1857.35 1027.85 1858.07 1028.61 1858.56C1029.37 1859.05 1030.24 1859.29 1031.23 1859.29C1032.22 1859.29 1033.09 1859.05 1033.85 1858.56C1034.6 1858.07 1035.2 1857.35 1035.62 1856.41C1036.05 1855.45 1036.27 1854.29 1036.27 1852.91Z" fill="black"/>
<path d="M922.066 1843.82V1862H918.772V1843.82H922.066Z" fill="black"/>
<path d="M812.909 1843.82H816.203V1855.7C816.203 1857 815.895 1858.14 815.279 1859.13C814.67 1860.12 813.812 1860.89 812.705 1861.45C811.598 1862 810.305 1862.28 808.825 1862.28C807.34 1862.28 806.044 1862 804.937 1861.45C803.83 1860.89 802.972 1860.12 802.362 1859.13C801.753 1858.14 801.448 1857 801.448 1855.7V1843.82H804.741V1855.42C804.741 1856.18 804.907 1856.85 805.239 1857.45C805.576 1858.04 806.049 1858.5 806.659 1858.84C807.269 1859.17 807.991 1859.34 808.825 1859.34C809.66 1859.34 810.382 1859.17 810.991 1858.84C811.607 1858.5 812.08 1858.04 812.412 1857.45C812.743 1856.85 812.909 1856.18 812.909 1855.42V1843.82Z" fill="black"/>
<path d="M687.972 1843.82H691.692L696.139 1851.86H696.317L700.765 1843.82H704.485L697.871 1855.22V1862H694.586V1855.22L687.972 1843.82Z" fill="black"/>
<path d="M577.362 1846.58V1843.82H591.868V1846.58H586.249V1862H582.982V1846.58H577.362Z" fill="black"/>
<path d="M466.283 1862V1843.82H473.101C474.498 1843.82 475.67 1844.06 476.617 1844.55C477.57 1845.03 478.289 1845.71 478.774 1846.59C479.265 1847.46 479.511 1848.47 479.511 1849.63C479.511 1850.8 479.262 1851.81 478.765 1852.67C478.274 1853.52 477.549 1854.18 476.59 1854.65C475.631 1855.11 474.453 1855.34 473.057 1855.34H468.201V1852.61H472.613C473.43 1852.61 474.098 1852.49 474.619 1852.27C475.14 1852.04 475.525 1851.7 475.773 1851.27C476.028 1850.82 476.155 1850.28 476.155 1849.63C476.155 1848.99 476.028 1848.44 475.773 1847.98C475.519 1847.52 475.131 1847.17 474.61 1846.93C474.089 1846.69 473.418 1846.57 472.595 1846.57H469.577V1862H466.283ZM475.676 1853.76L480.177 1862H476.501L472.08 1853.76H475.676Z" fill="black"/>
<path d="M356.622 1862V1843.82H368.447V1846.58H359.915V1851.52H367.834V1854.28H359.915V1859.24H368.518V1862H356.622Z" fill="black"/>
<rect x="98" y="2083.19" width="137.077" height="117.838" rx="5" fill="#D2D5D8"/>
<rect x="1047.92" y="2083.19" width="137.077" height="117.838" rx="5" fill="#D2D5D8"/>
<path d="M128.481 2153V2134.82H140.306V2137.58H131.774V2142.52H139.694V2145.28H131.774V2150.24H140.377V2153H128.481ZM158.598 2134.82V2153H155.668L147.101 2140.62H146.95V2153H143.656V2134.82H146.604L155.162 2147.21H155.322V2134.82H158.598ZM161.378 2137.58V2134.82H175.884V2137.58H170.264V2153H166.997V2137.58H161.378ZM178.671 2153V2134.82H190.496V2137.58H181.964V2142.52H189.883V2145.28H181.964V2150.24H190.567V2153H178.671ZM193.846 2153V2134.82H200.664C202.061 2134.82 203.233 2135.06 204.18 2135.55C205.133 2136.03 205.852 2136.71 206.337 2137.59C206.828 2138.46 207.074 2139.47 207.074 2140.63C207.074 2141.8 206.825 2142.81 206.328 2143.67C205.837 2144.52 205.112 2145.18 204.153 2145.65C203.194 2146.11 202.017 2146.34 200.62 2146.34H195.764V2143.61H200.176C200.993 2143.61 201.662 2143.49 202.182 2143.27C202.703 2143.04 203.088 2142.7 203.336 2142.27C203.591 2141.82 203.718 2141.28 203.718 2140.63C203.718 2139.99 203.591 2139.44 203.336 2138.98C203.082 2138.52 202.694 2138.17 202.173 2137.93C201.653 2137.69 200.981 2137.57 200.158 2137.57H197.14V2153H193.846ZM203.239 2144.76L207.74 2153H204.064L199.643 2144.76H203.239Z" fill="black"/>
<path d="M1101.52 2147.06V2144.5L1113.66 2138.89V2142.04L1105.03 2145.75L1105.13 2145.58V2145.99L1105.03 2145.82L1113.66 2149.52V2152.67L1101.52 2147.06ZM1118.33 2147.06V2144.5L1130.47 2138.89V2142.04L1121.85 2145.75L1121.94 2145.58V2145.99L1121.85 2145.82L1130.47 2149.52V2152.67L1118.33 2147.06Z" fill="black"/>
<defs>
<filter id="filter0_f_1269_319" x="0.5" y="0.5" width="1281" height="2642" filterUnits="userSpaceOnUse" color-interpolation-filters="sRGB">
<feFlood flood-opacity="0" result="BackgroundImageFix"/>
<feBlend mode="normal" in="SourceGraphic" in2="BackgroundImageFix" result="shape"/>
<feGaussianBlur stdDeviation="1.5" result="effect1_foregroundBlur_1269_319"/>
</filter>
<filter id="filter1_f_1269_319" x="20" y="19" width="1242" height="2604" filterUnits="userSpaceOnUse" color-interpolation-filters="sRGB">
<feFlood flood-opacity="0" result="BackgroundImageFix"/>
<feBlend mode="normal" in="SourceGraphic" in2="BackgroundImageFix" result="shape"/>
<feGaussianBlur stdDeviation="1" result="effect1_foregroundBlur_1269_319"/>
</filter>
<filter id="filter2_d_1269_319" x="50" y="224" width="1182" height="205" filterUnits="userSpaceOnUse" color-interpolation-filters="sRGB">
<feFlood flood-opacity="0" result="BackgroundImageFix"/>
<feColorMatrix in="SourceAlpha" type="matrix" values="0 0 0 0 0 0 0 0 0 0 0 0 0 0 0 0 0 0 127 0" result="hardAlpha"/>
<feOffset dy="4"/>
<feGaussianBlur stdDeviation="2"/>
<feComposite in2="hardAlpha" operator="out"/>
<feColorMatrix type="matrix" values="0 0 0 0 0 0 0 0 0 0 0 0 0 0 0 0 0 0 0.1 0"/>
<feBlend mode="normal" in2="BackgroundImageFix" result="effect1_dropShadow_1269_319"/>
<feBlend mode="normal" in="SourceGraphic" in2="effect1_dropShadow_1269_319" result="shape"/>
</filter>
</defs>
</svg>
