<svg width="1300" height="850" viewBox="0 0 1300 850" fill="none" xmlns="http://www.w3.org/2000/svg">
<g clip-path="url(#clip0_1269_317)">
<rect width="1300" height="850" fill="white"/>
<rect width="1300" height="650" fill="white"/>
<g filter="url(#filter0_d_1269_317)">
<rect width="1300" height="75" fill="white"/>
</g>
<path d="M609.164 48L603.166 26.1818H604.551L609.878 45.9439H610.005L615.247 26.1818H616.866L622.108 45.9439H622.236L627.562 26.1818H628.937L622.939 48H621.405L616.11 28.3658H615.993L610.698 48H609.164ZM636.967 48.3409C635.618 48.3409 634.418 47.9787 633.366 47.2543C632.315 46.5227 631.488 45.5178 630.884 44.2393C630.28 42.9609 629.979 41.505 629.979 39.8714C629.979 38.2308 630.28 36.7749 630.884 35.5036C631.488 34.2251 632.315 33.2202 633.366 32.4886C634.418 31.7571 635.618 31.3913 636.967 31.3913C638.317 31.3913 639.517 31.7571 640.568 32.4886C641.619 33.2202 642.447 34.2251 643.05 35.5036C643.654 36.782 643.956 38.2379 643.956 39.8714C643.956 41.505 643.654 42.9609 643.05 44.2393C642.447 45.5178 641.619 46.5227 640.568 47.2543C639.517 47.9787 638.317 48.3409 636.967 48.3409ZM636.967 47.1371C638.111 47.1371 639.109 46.8139 639.961 46.1676C640.82 45.5213 641.484 44.6477 641.953 43.5469C642.429 42.446 642.667 41.2209 642.667 39.8714C642.667 38.522 642.429 37.3004 641.953 36.2067C641.477 35.1058 640.813 34.2322 639.961 33.5859C639.109 32.9325 638.111 32.6058 636.967 32.6058C635.824 32.6058 634.826 32.9325 633.974 33.5859C633.121 34.2322 632.457 35.1058 631.981 36.2067C631.506 37.3004 631.268 38.522 631.268 39.8714C631.268 41.2209 631.502 42.446 631.971 43.5469C632.447 44.6477 633.111 45.5213 633.963 46.1676C634.822 46.8139 635.824 47.1371 636.967 47.1371ZM648.423 48V31.6364H649.691V34.1932H649.808C650.163 33.3551 650.763 32.6839 651.608 32.1797C652.454 31.6683 653.416 31.4126 654.495 31.4126C654.609 31.4126 654.723 31.4126 654.836 31.4126C654.95 31.4126 655.056 31.4162 655.156 31.4233V32.7337C655.071 32.7266 654.968 32.7159 654.847 32.7017C654.733 32.6804 654.591 32.6697 654.421 32.6697C653.512 32.6697 652.702 32.8651 651.992 33.2557C651.289 33.6463 650.735 34.1861 650.33 34.875C649.925 35.5568 649.723 36.3381 649.723 37.2188V48H648.423ZM663.754 48.3409C662.44 48.3409 661.293 47.9787 660.313 47.2543C659.333 46.5298 658.573 45.532 658.033 44.2607C657.5 42.9822 657.234 41.5156 657.234 39.8608C657.234 38.2202 657.504 36.7642 658.044 35.4929C658.591 34.2145 659.354 33.2131 660.334 32.4886C661.314 31.7571 662.458 31.3913 663.765 31.3913C664.702 31.3913 665.515 31.5724 666.204 31.9347C666.9 32.2898 667.483 32.7621 667.951 33.3516C668.427 33.9411 668.789 34.5874 669.038 35.2905H669.166V26.1818H670.455V48H669.198V44.4311H669.038C668.775 45.1342 668.409 45.7841 667.941 46.3807C667.472 46.9702 666.89 47.446 666.194 47.8082C665.497 48.1634 664.684 48.3409 663.754 48.3409ZM663.871 47.1371C664.979 47.1371 665.927 46.821 666.716 46.1889C667.511 45.5497 668.118 44.6832 668.537 43.5895C668.963 42.4886 669.176 41.2422 669.176 39.8501C669.176 38.4581 668.963 37.2187 668.537 36.1321C668.118 35.0384 667.511 34.179 666.716 33.554C665.927 32.9219 664.979 32.6058 663.871 32.6058C662.749 32.6058 661.787 32.9254 660.984 33.5646C660.189 34.1967 659.578 35.0597 659.152 36.1534C658.733 37.2472 658.523 38.4794 658.523 39.8501C658.523 41.2209 658.733 42.4567 659.152 43.5575C659.578 44.6584 660.189 45.532 660.984 46.1783C661.787 46.8175 662.749 47.1371 663.871 47.1371ZM677.593 26.1818V48H676.294V26.1818H677.593ZM689.345 48.3409C687.867 48.3409 686.582 47.9751 685.488 47.2436C684.394 46.5121 683.549 45.5107 682.953 44.2393C682.356 42.968 682.058 41.5192 682.058 39.8928C682.058 38.2592 682.356 36.8033 682.953 35.5249C683.556 34.2464 684.384 33.2379 685.435 32.4993C686.486 31.7607 687.686 31.3913 689.036 31.3913C689.952 31.3913 690.818 31.576 691.635 31.9453C692.459 32.3075 693.183 32.8331 693.808 33.522C694.441 34.2109 694.934 35.0419 695.289 36.0149C695.651 36.9879 695.833 38.0817 695.833 39.2962V40.1058H682.878V38.9233H694.533C694.533 37.7372 694.291 36.6683 693.808 35.7166C693.325 34.7649 692.669 34.0085 691.838 33.4474C691.007 32.8864 690.073 32.6058 689.036 32.6058C687.949 32.6058 686.98 32.9112 686.127 33.522C685.282 34.1257 684.611 34.9425 684.114 35.9723C683.624 37.0021 683.368 38.1527 683.347 39.424V39.9567C683.347 41.3203 683.585 42.5455 684.061 43.6321C684.544 44.7116 685.232 45.5675 686.127 46.1996C687.022 46.8246 688.095 47.1371 689.345 47.1371C690.24 47.1371 691.003 46.9879 691.635 46.6896C692.274 46.3842 692.796 46.0149 693.201 45.5817C693.606 45.1484 693.911 44.7294 694.117 44.3246L695.3 44.804C695.051 45.3509 694.664 45.8977 694.139 46.4446C693.62 46.9844 692.96 47.4354 692.157 47.7976C691.362 48.1598 690.424 48.3409 689.345 48.3409Z" fill="black"/>
<path d="M609.164 48L608.2 48.2651L608.402 49H609.164V48ZM603.166 26.1818V25.1818H601.854L602.202 26.4469L603.166 26.1818ZM604.551 26.1818L605.516 25.9216L605.317 25.1818H604.551V26.1818ZM609.878 45.9439L608.912 46.2041L609.111 46.9439H609.878V45.9439ZM610.005 45.9439V46.9439H610.775L610.972 46.2003L610.005 45.9439ZM615.247 26.1818V25.1818H614.478L614.28 25.9255L615.247 26.1818ZM616.866 26.1818L617.833 25.9255L617.636 25.1818H616.866V26.1818ZM622.108 45.9439L621.141 46.2003L621.338 46.9439H622.108V45.9439ZM622.236 45.9439V46.9439H623.002L623.201 46.2041L622.236 45.9439ZM627.562 26.1818V25.1818H626.796L626.597 25.9216L627.562 26.1818ZM628.937 26.1818L629.901 26.4469L630.249 25.1818H628.937V26.1818ZM622.939 48V49H623.701L623.903 48.2651L622.939 48ZM621.405 48L620.439 48.2604L620.639 49H621.405V48ZM616.11 28.3658L617.075 28.1054L616.876 27.3658H616.11V28.3658ZM615.993 28.3658V27.3658H615.227L615.027 28.1054L615.993 28.3658ZM610.698 48V49H611.464L611.663 48.2604L610.698 48ZM610.128 47.7349L604.13 25.9167L602.202 26.4469L608.2 48.2651L610.128 47.7349ZM603.166 27.1818H604.551V25.1818H603.166V27.1818ZM603.585 26.4421L608.912 46.2041L610.843 45.6836L605.516 25.9216L603.585 26.4421ZM609.878 46.9439H610.005V44.9439H609.878V46.9439ZM610.972 46.2003L616.214 26.4382L614.28 25.9255L609.039 45.6875L610.972 46.2003ZM615.247 27.1818H616.866V25.1818H615.247V27.1818ZM615.9 26.4382L621.141 46.2003L623.074 45.6875L617.833 25.9255L615.9 26.4382ZM622.108 46.9439H622.236V44.9439H622.108V46.9439ZM623.201 46.2041L628.528 26.4421L626.597 25.9216L621.27 45.6836L623.201 46.2041ZM627.562 27.1818H628.937V25.1818H627.562V27.1818ZM627.972 25.9167L621.974 47.7349L623.903 48.2651L629.901 26.4469L627.972 25.9167ZM622.939 47H621.405V49H622.939V47ZM622.37 47.7396L617.075 28.1054L615.144 28.6261L620.439 48.2604L622.37 47.7396ZM616.11 27.3658H615.993V29.3658H616.11V27.3658ZM615.027 28.1054L609.732 47.7396L611.663 48.2604L616.958 28.6261L615.027 28.1054ZM610.698 47H609.164V49H610.698V47ZM633.366 47.2543L632.795 48.0751L632.799 48.0777L633.366 47.2543ZM630.884 44.2393L629.98 44.6664L630.884 44.2393ZM630.884 35.5036L631.787 35.9325L631.788 35.9306L630.884 35.5036ZM633.366 32.4886L632.795 31.6678L632.795 31.6678L633.366 32.4886ZM640.568 32.4886L641.139 31.6678L641.139 31.6678L640.568 32.4886ZM643.05 35.5036L643.955 35.0765L643.05 35.5036ZM643.05 44.2393L642.146 43.8123L643.05 44.2393ZM640.568 47.2543L641.136 48.0777L641.139 48.0751L640.568 47.2543ZM639.961 46.1676L639.36 45.3684L639.357 45.3708L639.961 46.1676ZM641.953 43.5469L641.035 43.1501L641.033 43.1551L641.953 43.5469ZM641.953 36.2067L641.035 36.6035L641.036 36.6056L641.953 36.2067ZM639.961 33.5859L639.352 34.3796L639.357 34.3827L639.961 33.5859ZM633.974 33.5859L634.578 34.3828L634.582 34.3795L633.974 33.5859ZM631.981 36.2067L632.898 36.6056L632.899 36.6035L631.981 36.2067ZM631.971 43.5469L631.051 43.9387L631.053 43.9437L631.971 43.5469ZM633.963 46.1676L633.359 46.9644L633.362 46.9668L633.963 46.1676ZM636.967 47.3409C635.808 47.3409 634.808 47.0335 633.934 46.4309L632.799 48.0777C634.027 48.9238 635.427 49.3409 636.967 49.3409V47.3409ZM633.938 46.4335C633.045 45.812 632.325 44.9495 631.788 43.8123L629.98 44.6664C630.65 46.086 631.586 47.2335 632.795 48.0751L633.938 46.4335ZM631.788 43.8123C631.257 42.6867 630.979 41.3802 630.979 39.8714H628.979C628.979 41.6297 629.304 43.2352 629.98 44.6664L631.788 43.8123ZM630.979 39.8714C630.979 38.3547 631.257 37.0493 631.787 35.9325L629.981 35.0746C629.304 36.5004 628.979 38.1069 628.979 39.8714H630.979ZM631.788 35.9306C632.325 34.7934 633.045 33.9309 633.938 33.3094L632.795 31.6678C631.586 32.5094 630.65 33.6569 629.98 35.0765L631.788 35.9306ZM633.938 33.3094C634.812 32.701 635.81 32.3913 636.967 32.3913V30.3913C635.425 30.3913 634.023 30.8132 632.795 31.6678L633.938 33.3094ZM636.967 32.3913C638.124 32.3913 639.123 32.701 639.997 33.3094L641.139 31.6678C639.911 30.8132 638.509 30.3913 636.967 30.3913V32.3913ZM639.997 33.3094C640.89 33.9309 641.609 34.7934 642.146 35.9306L643.955 35.0765C643.284 33.6569 642.349 32.5094 641.139 31.6678L639.997 33.3094ZM642.146 35.9306C642.678 37.0562 642.956 38.3627 642.956 39.8714H644.956C644.956 38.1132 644.63 36.5077 643.955 35.0765L642.146 35.9306ZM642.956 39.8714C642.956 41.3802 642.678 42.6867 642.146 43.8123L643.955 44.6664C644.63 43.2352 644.956 41.6297 644.956 39.8714H642.956ZM642.146 43.8123C641.609 44.9495 640.89 45.812 639.997 46.4335L641.139 48.0751C642.349 47.2335 643.284 46.086 643.955 44.6664L642.146 43.8123ZM640.001 46.4309C639.126 47.0335 638.126 47.3409 636.967 47.3409V49.3409C638.507 49.3409 639.908 48.9238 641.136 48.0777L640.001 46.4309ZM636.967 48.1371C638.313 48.1371 639.527 47.7519 640.565 46.9644L639.357 45.3708C638.691 45.8759 637.909 46.1371 636.967 46.1371V48.1371ZM640.562 46.9668C641.577 46.2035 642.344 45.1823 642.873 43.9386L641.033 43.1551C640.625 44.1131 640.064 44.8391 639.36 45.3684L640.562 46.9668ZM642.871 43.9437C643.407 42.7027 643.667 41.3403 643.667 39.8714H641.667C641.667 41.1015 641.45 42.1893 641.035 43.1501L642.871 43.9437ZM643.667 39.8714C643.667 38.4027 643.407 37.0429 642.87 35.8077L641.036 36.6056C641.45 37.558 641.667 38.6413 641.667 39.8714H643.667ZM642.871 35.8099C642.335 34.5705 641.571 33.5517 640.565 32.7891L639.357 34.3827C640.056 34.9128 640.619 35.6412 641.035 36.6035L642.871 35.8099ZM640.569 32.7923C639.531 31.9961 638.315 31.6058 636.967 31.6058V33.6058C637.906 33.6058 638.686 33.869 639.352 34.3795L640.569 32.7923ZM636.967 31.6058C635.619 31.6058 634.404 31.9961 633.365 32.7923L634.582 34.3795C635.248 33.869 636.029 33.6058 636.967 33.6058V31.6058ZM633.369 32.7891C632.364 33.5517 631.599 34.5705 631.064 35.8099L632.899 36.6035C633.315 35.6412 633.879 34.9128 634.578 34.3827L633.369 32.7891ZM631.064 35.8077C630.527 37.0429 630.268 38.4027 630.268 39.8714H632.268C632.268 38.6413 632.484 37.558 632.898 36.6056L631.064 35.8077ZM630.268 39.8714C630.268 41.3383 630.523 42.699 631.051 43.9386L632.891 43.1551C632.481 42.193 632.268 41.1034 632.268 39.8714H630.268ZM631.053 43.9437C631.589 45.1831 632.353 46.2019 633.359 46.9644L634.567 45.3708C633.868 44.8408 633.305 44.1124 632.889 43.1501L631.053 43.9437ZM633.362 46.9668C634.406 47.752 635.622 48.1371 636.967 48.1371V46.1371C636.026 46.1371 635.239 45.8759 634.564 45.3684L633.362 46.9668ZM648.423 48H647.423V49H648.423V48ZM648.423 31.6364V30.6364H647.423V31.6364H648.423ZM649.691 31.6364H650.691V30.6364H649.691V31.6364ZM649.691 34.1932H648.691V35.1932H649.691V34.1932ZM649.808 34.1932V35.1932H650.47L650.729 34.5833L649.808 34.1932ZM651.608 32.1797L652.121 33.0385L652.126 33.0353L651.608 32.1797ZM655.156 31.4233H656.156V30.4922L655.227 30.4258L655.156 31.4233ZM655.156 32.7337L655.073 33.7302L656.156 33.8205V32.7337H655.156ZM654.847 32.7017L654.663 33.6846L654.696 33.6909L654.73 33.6949L654.847 32.7017ZM651.992 33.2557L651.51 32.3795L651.506 32.3815L651.992 33.2557ZM650.33 34.875L651.19 35.3855L651.192 35.3816L650.33 34.875ZM649.723 48V49H650.723V48H649.723ZM649.423 48V31.6364H647.423V48H649.423ZM648.423 32.6364H649.691V30.6364H648.423V32.6364ZM648.691 31.6364V34.1932H650.691V31.6364H648.691ZM649.691 35.1932H649.808V33.1932H649.691V35.1932ZM650.729 34.5833C650.994 33.9571 651.442 33.4432 652.121 33.0385L651.096 31.3209C650.084 31.9247 649.332 32.7532 648.887 33.803L650.729 34.5833ZM652.126 33.0353C652.801 32.6271 653.581 32.4126 654.495 32.4126V30.4126C653.251 30.4126 652.106 30.7096 651.091 31.3241L652.126 33.0353ZM654.495 32.4126C654.496 32.4126 654.496 32.4126 654.496 32.4126C654.496 32.4126 654.497 32.4126 654.497 32.4126C654.497 32.4126 654.497 32.4126 654.497 32.4126C654.498 32.4126 654.498 32.4126 654.498 32.4126C654.498 32.4126 654.499 32.4126 654.499 32.4126C654.499 32.4126 654.499 32.4126 654.499 32.4126C654.5 32.4126 654.5 32.4126 654.5 32.4126C654.5 32.4126 654.501 32.4126 654.501 32.4126C654.501 32.4126 654.501 32.4126 654.501 32.4126C654.502 32.4126 654.502 32.4126 654.502 32.4126C654.502 32.4126 654.503 32.4126 654.503 32.4126C654.503 32.4126 654.503 32.4126 654.503 32.4126C654.504 32.4126 654.504 32.4126 654.504 32.4126C654.504 32.4126 654.505 32.4126 654.505 32.4126C654.505 32.4126 654.505 32.4126 654.505 32.4126C654.506 32.4126 654.506 32.4126 654.506 32.4126C654.506 32.4126 654.507 32.4126 654.507 32.4126C654.507 32.4126 654.507 32.4126 654.507 32.4126C654.508 32.4126 654.508 32.4126 654.508 32.4126C654.508 32.4126 654.509 32.4126 654.509 32.4126C654.509 32.4126 654.509 32.4126 654.509 32.4126C654.51 32.4126 654.51 32.4126 654.51 32.4126C654.51 32.4126 654.511 32.4126 654.511 32.4126C654.511 32.4126 654.511 32.4126 654.511 32.4126C654.512 32.4126 654.512 32.4126 654.512 32.4126C654.512 32.4126 654.513 32.4126 654.513 32.4126C654.513 32.4126 654.513 32.4126 654.513 32.4126C654.514 32.4126 654.514 32.4126 654.514 32.4126C654.514 32.4126 654.514 32.4126 654.515 32.4126C654.515 32.4126 654.515 32.4126 654.515 32.4126C654.516 32.4126 654.516 32.4126 654.516 32.4126C654.516 32.4126 654.516 32.4126 654.517 32.4126C654.517 32.4126 654.517 32.4126 654.517 32.4126C654.518 32.4126 654.518 32.4126 654.518 32.4126C654.518 32.4126 654.518 32.4126 654.519 32.4126C654.519 32.4126 654.519 32.4126 654.519 32.4126C654.52 32.4126 654.52 32.4126 654.52 32.4126C654.52 32.4126 654.52 32.4126 654.521 32.4126C654.521 32.4126 654.521 32.4126 654.521 32.4126C654.522 32.4126 654.522 32.4126 654.522 32.4126C654.522 32.4126 654.522 32.4126 654.523 32.4126C654.523 32.4126 654.523 32.4126 654.523 32.4126C654.524 32.4126 654.524 32.4126 654.524 32.4126C654.524 32.4126 654.524 32.4126 654.525 32.4126C654.525 32.4126 654.525 32.4126 654.525 32.4126C654.526 32.4126 654.526 32.4126 654.526 32.4126C654.526 32.4126 654.526 32.4126 654.527 32.4126C654.527 32.4126 654.527 32.4126 654.527 32.4126C654.528 32.4126 654.528 32.4126 654.528 32.4126C654.528 32.4126 654.528 32.4126 654.529 32.4126C654.529 32.4126 654.529 32.4126 654.529 32.4126C654.53 32.4126 654.53 32.4126 654.53 32.4126C654.53 32.4126 654.53 32.4126 654.531 32.4126C654.531 32.4126 654.531 32.4126 654.531 32.4126C654.532 32.4126 654.532 32.4126 654.532 32.4126C654.532 32.4126 654.532 32.4126 654.533 32.4126C654.533 32.4126 654.533 32.4126 654.533 32.4126C654.534 32.4126 654.534 32.4126 654.534 32.4126C654.534 32.4126 654.534 32.4126 654.535 32.4126C654.535 32.4126 654.535 32.4126 654.535 32.4126C654.536 32.4126 654.536 32.4126 654.536 32.4126C654.536 32.4126 654.536 32.4126 654.537 32.4126C654.537 32.4126 654.537 32.4126 654.537 32.4126C654.538 32.4126 654.538 32.4126 654.538 32.4126C654.538 32.4126 654.538 32.4126 654.539 32.4126C654.539 32.4126 654.539 32.4126 654.539 32.4126C654.54 32.4126 654.54 32.4126 654.54 32.4126C654.54 32.4126 654.54 32.4126 654.541 32.4126C654.541 32.4126 654.541 32.4126 654.541 32.4126C654.542 32.4126 654.542 32.4126 654.542 32.4126C654.542 32.4126 654.542 32.4126 654.543 32.4126C654.543 32.4126 654.543 32.4126 654.543 32.4126C654.544 32.4126 654.544 32.4126 654.544 32.4126C654.544 32.4126 654.544 32.4126 654.545 32.4126C654.545 32.4126 654.545 32.4126 654.545 32.4126C654.546 32.4126 654.546 32.4126 654.546 32.4126C654.546 32.4126 654.546 32.4126 654.547 32.4126C654.547 32.4126 654.547 32.4126 654.547 32.4126C654.548 32.4126 654.548 32.4126 654.548 32.4126C654.548 32.4126 654.548 32.4126 654.549 32.4126C654.549 32.4126 654.549 32.4126 654.549 32.4126C654.55 32.4126 654.55 32.4126 654.55 32.4126C654.55 32.4126 654.55 32.4126 654.551 32.4126C654.551 32.4126 654.551 32.4126 654.551 32.4126C654.552 32.4126 654.552 32.4126 654.552 32.4126C654.552 32.4126 654.552 32.4126 654.553 32.4126C654.553 32.4126 654.553 32.4126 654.553 32.4126C654.554 32.4126 654.554 32.4126 654.554 32.4126C654.554 32.4126 654.554 32.4126 654.555 32.4126C654.555 32.4126 654.555 32.4126 654.555 32.4126C654.556 32.4126 654.556 32.4126 654.556 32.4126C654.556 32.4126 654.556 32.4126 654.557 32.4126C654.557 32.4126 654.557 32.4126 654.557 32.4126C654.558 32.4126 654.558 32.4126 654.558 32.4126C654.558 32.4126 654.558 32.4126 654.559 32.4126C654.559 32.4126 654.559 32.4126 654.559 32.4126C654.56 32.4126 654.56 32.4126 654.56 32.4126C654.56 32.4126 654.56 32.4126 654.561 32.4126C654.561 32.4126 654.561 32.4126 654.561 32.4126C654.562 32.4126 654.562 32.4126 654.562 32.4126C654.562 32.4126 654.562 32.4126 654.563 32.4126C654.563 32.4126 654.563 32.4126 654.563 32.4126C654.564 32.4126 654.564 32.4126 654.564 32.4126C654.564 32.4126 654.564 32.4126 654.565 32.4126C654.565 32.4126 654.565 32.4126 654.565 32.4126C654.566 32.4126 654.566 32.4126 654.566 32.4126C654.566 32.4126 654.566 32.4126 654.567 32.4126C654.567 32.4126 654.567 32.4126 654.567 32.4126C654.568 32.4126 654.568 32.4126 654.568 32.4126C654.568 32.4126 654.568 32.4126 654.569 32.4126C654.569 32.4126 654.569 32.4126 654.569 32.4126C654.57 32.4126 654.57 32.4126 654.57 32.4126C654.57 32.4126 654.57 32.4126 654.571 32.4126C654.571 32.4126 654.571 32.4126 654.571 32.4126C654.572 32.4126 654.572 32.4126 654.572 32.4126C654.572 32.4126 654.572 32.4126 654.573 32.4126C654.573 32.4126 654.573 32.4126 654.573 32.4126C654.574 32.4126 654.574 32.4126 654.574 32.4126C654.574 32.4126 654.574 32.4126 654.575 32.4126C654.575 32.4126 654.575 32.4126 654.575 32.4126C654.576 32.4126 654.576 32.4126 654.576 32.4126C654.576 32.4126 654.576 32.4126 654.577 32.4126C654.577 32.4126 654.577 32.4126 654.577 32.4126C654.578 32.4126 654.578 32.4126 654.578 32.4126C654.578 32.4126 654.578 32.4126 654.579 32.4126C654.579 32.4126 654.579 32.4126 654.579 32.4126C654.58 32.4126 654.58 32.4126 654.58 32.4126C654.58 32.4126 654.58 32.4126 654.581 32.4126C654.581 32.4126 654.581 32.4126 654.581 32.4126C654.582 32.4126 654.582 32.4126 654.582 32.4126C654.582 32.4126 654.582 32.4126 654.583 32.4126C654.583 32.4126 654.583 32.4126 654.583 32.4126C654.584 32.4126 654.584 32.4126 654.584 32.4126C654.584 32.4126 654.584 32.4126 654.585 32.4126C654.585 32.4126 654.585 32.4126 654.585 32.4126C654.586 32.4126 654.586 32.4126 654.586 32.4126C654.586 32.4126 654.586 32.4126 654.587 32.4126C654.587 32.4126 654.587 32.4126 654.587 32.4126C654.588 32.4126 654.588 32.4126 654.588 32.4126C654.588 32.4126 654.588 32.4126 654.589 32.4126C654.589 32.4126 654.589 32.4126 654.589 32.4126C654.59 32.4126 654.59 32.4126 654.59 32.4126C654.59 32.4126 654.59 32.4126 654.591 32.4126C654.591 32.4126 654.591 32.4126 654.591 32.4126C654.592 32.4126 654.592 32.4126 654.592 32.4126C654.592 32.4126 654.592 32.4126 654.593 32.4126C654.593 32.4126 654.593 32.4126 654.593 32.4126C654.594 32.4126 654.594 32.4126 654.594 32.4126C654.594 32.4126 654.594 32.4126 654.595 32.4126C654.595 32.4126 654.595 32.4126 654.595 32.4126C654.596 32.4126 654.596 32.4126 654.596 32.4126C654.596 32.4126 654.596 32.4126 654.597 32.4126C654.597 32.4126 654.597 32.4126 654.597 32.4126C654.598 32.4126 654.598 32.4126 654.598 32.4126C654.598 32.4126 654.598 32.4126 654.599 32.4126C654.599 32.4126 654.599 32.4126 654.599 32.4126C654.6 32.4126 654.6 32.4126 654.6 32.4126C654.6 32.4126 654.6 32.4126 654.601 32.4126C654.601 32.4126 654.601 32.4126 654.601 32.4126C654.602 32.4126 654.602 32.4126 654.602 32.4126C654.602 32.4126 654.602 32.4126 654.603 32.4126C654.603 32.4126 654.603 32.4126 654.603 32.4126C654.604 32.4126 654.604 32.4126 654.604 32.4126C654.604 32.4126 654.604 32.4126 654.605 32.4126C654.605 32.4126 654.605 32.4126 654.605 32.4126C654.605 32.4126 654.606 32.4126 654.606 32.4126C654.606 32.4126 654.606 32.4126 654.607 32.4126C654.607 32.4126 654.607 32.4126 654.607 32.4126C654.607 32.4126 654.608 32.4126 654.608 32.4126C654.608 32.4126 654.608 32.4126 654.609 32.4126C654.609 32.4126 654.609 32.4126 654.609 32.4126C654.609 32.4126 654.61 32.4126 654.61 32.4126C654.61 32.4126 654.61 32.4126 654.611 32.4126C654.611 32.4126 654.611 32.4126 654.611 32.4126C654.611 32.4126 654.612 32.4126 654.612 32.4126C654.612 32.4126 654.612 32.4126 654.613 32.4126C654.613 32.4126 654.613 32.4126 654.613 32.4126C654.613 32.4126 654.614 32.4126 654.614 32.4126C654.614 32.4126 654.614 32.4126 654.615 32.4126C654.615 32.4126 654.615 32.4126 654.615 32.4126C654.615 32.4126 654.616 32.4126 654.616 32.4126C654.616 32.4126 654.616 32.4126 654.617 32.4126C654.617 32.4126 654.617 32.4126 654.617 32.4126C654.617 32.4126 654.618 32.4126 654.618 32.4126C654.618 32.4126 654.618 32.4126 654.619 32.4126C654.619 32.4126 654.619 32.4126 654.619 32.4126C654.619 32.4126 654.62 32.4126 654.62 32.4126C654.62 32.4126 654.62 32.4126 654.621 32.4126C654.621 32.4126 654.621 32.4126 654.621 32.4126C654.621 32.4126 654.622 32.4126 654.622 32.4126C654.622 32.4126 654.622 32.4126 654.623 32.4126C654.623 32.4126 654.623 32.4126 654.623 32.4126C654.623 32.4126 654.624 32.4126 654.624 32.4126C654.624 32.4126 654.624 32.4126 654.625 32.4126C654.625 32.4126 654.625 32.4126 654.625 32.4126C654.625 32.4126 654.626 32.4126 654.626 32.4126C654.626 32.4126 654.626 32.4126 654.627 32.4126C654.627 32.4126 654.627 32.4126 654.627 32.4126C654.627 32.4126 654.628 32.4126 654.628 32.4126C654.628 32.4126 654.628 32.4126 654.629 32.4126C654.629 32.4126 654.629 32.4126 654.629 32.4126C654.629 32.4126 654.63 32.4126 654.63 32.4126C654.63 32.4126 654.63 32.4126 654.631 32.4126C654.631 32.4126 654.631 32.4126 654.631 32.4126C654.631 32.4126 654.632 32.4126 654.632 32.4126C654.632 32.4126 654.632 32.4126 654.633 32.4126C654.633 32.4126 654.633 32.4126 654.633 32.4126C654.633 32.4126 654.634 32.4126 654.634 32.4126C654.634 32.4126 654.634 32.4126 654.635 32.4126C654.635 32.4126 654.635 32.4126 654.635 32.4126C654.635 32.4126 654.636 32.4126 654.636 32.4126C654.636 32.4126 654.636 32.4126 654.637 32.4126C654.637 32.4126 654.637 32.4126 654.637 32.4126C654.637 32.4126 654.638 32.4126 654.638 32.4126C654.638 32.4126 654.638 32.4126 654.639 32.4126C654.639 32.4126 654.639 32.4126 654.639 32.4126C654.639 32.4126 654.64 32.4126 654.64 32.4126C654.64 32.4126 654.64 32.4126 654.641 32.4126C654.641 32.4126 654.641 32.4126 654.641 32.4126C654.641 32.4126 654.642 32.4126 654.642 32.4126C654.642 32.4126 654.642 32.4126 654.643 32.4126C654.643 32.4126 654.643 32.4126 654.643 32.4126C654.643 32.4126 654.644 32.4126 654.644 32.4126C654.644 32.4126 654.644 32.4126 654.645 32.4126C654.645 32.4126 654.645 32.4126 654.645 32.4126C654.645 32.4126 654.646 32.4126 654.646 32.4126C654.646 32.4126 654.646 32.4126 654.647 32.4126C654.647 32.4126 654.647 32.4126 654.647 32.4126C654.647 32.4126 654.648 32.4126 654.648 32.4126C654.648 32.4126 654.648 32.4126 654.649 32.4126C654.649 32.4126 654.649 32.4126 654.649 32.4126C654.649 32.4126 654.65 32.4126 654.65 32.4126C654.65 32.4126 654.65 32.4126 654.651 32.4126C654.651 32.4126 654.651 32.4126 654.651 32.4126C654.651 32.4126 654.652 32.4126 654.652 32.4126C654.652 32.4126 654.652 32.4126 654.653 32.4126C654.653 32.4126 654.653 32.4126 654.653 32.4126C654.653 32.4126 654.654 32.4126 654.654 32.4126C654.654 32.4126 654.654 32.4126 654.655 32.4126C654.655 32.4126 654.655 32.4126 654.655 32.4126C654.655 32.4126 654.656 32.4126 654.656 32.4126C654.656 32.4126 654.656 32.4126 654.657 32.4126C654.657 32.4126 654.657 32.4126 654.657 32.4126C654.657 32.4126 654.658 32.4126 654.658 32.4126C654.658 32.4126 654.658 32.4126 654.659 32.4126C654.659 32.4126 654.659 32.4126 654.659 32.4126C654.659 32.4126 654.66 32.4126 654.66 32.4126C654.66 32.4126 654.66 32.4126 654.661 32.4126C654.661 32.4126 654.661 32.4126 654.661 32.4126C654.661 32.4126 654.662 32.4126 654.662 32.4126C654.662 32.4126 654.662 32.4126 654.663 32.4126C654.663 32.4126 654.663 32.4126 654.663 32.4126C654.663 32.4126 654.664 32.4126 654.664 32.4126C654.664 32.4126 654.664 32.4126 654.665 32.4126C654.665 32.4126 654.665 32.4126 654.665 32.4126C654.665 32.4126 654.666 32.4126 654.666 32.4126C654.666 32.4126 654.666 32.4126 654.667 32.4126C654.667 32.4126 654.667 32.4126 654.667 32.4126C654.667 32.4126 654.668 32.4126 654.668 32.4126C654.668 32.4126 654.668 32.4126 654.669 32.4126C654.669 32.4126 654.669 32.4126 654.669 32.4126C654.669 32.4126 654.67 32.4126 654.67 32.4126C654.67 32.4126 654.67 32.4126 654.671 32.4126C654.671 32.4126 654.671 32.4126 654.671 32.4126C654.671 32.4126 654.672 32.4126 654.672 32.4126C654.672 32.4126 654.672 32.4126 654.673 32.4126C654.673 32.4126 654.673 32.4126 654.673 32.4126C654.673 32.4126 654.674 32.4126 654.674 32.4126C654.674 32.4126 654.674 32.4126 654.675 32.4126C654.675 32.4126 654.675 32.4126 654.675 32.4126C654.675 32.4126 654.676 32.4126 654.676 32.4126C654.676 32.4126 654.676 32.4126 654.677 32.4126C654.677 32.4126 654.677 32.4126 654.677 32.4126C654.677 32.4126 654.678 32.4126 654.678 32.4126C654.678 32.4126 654.678 32.4126 654.679 32.4126C654.679 32.4126 654.679 32.4126 654.679 32.4126C654.679 32.4126 654.68 32.4126 654.68 32.4126C654.68 32.4126 654.68 32.4126 654.681 32.4126C654.681 32.4126 654.681 32.4126 654.681 32.4126C654.681 32.4126 654.682 32.4126 654.682 32.4126C654.682 32.4126 654.682 32.4126 654.683 32.4126C654.683 32.4126 654.683 32.4126 654.683 32.4126C654.683 32.4126 654.684 32.4126 654.684 32.4126C654.684 32.4126 654.684 32.4126 654.685 32.4126C654.685 32.4126 654.685 32.4126 654.685 32.4126C654.685 32.4126 654.686 32.4126 654.686 32.4126C654.686 32.4126 654.686 32.4126 654.687 32.4126C654.687 32.4126 654.687 32.4126 654.687 32.4126C654.687 32.4126 654.688 32.4126 654.688 32.4126C654.688 32.4126 654.688 32.4126 654.689 32.4126C654.689 32.4126 654.689 32.4126 654.689 32.4126C654.689 32.4126 654.69 32.4126 654.69 32.4126C654.69 32.4126 654.69 32.4126 654.691 32.4126C654.691 32.4126 654.691 32.4126 654.691 32.4126C654.691 32.4126 654.692 32.4126 654.692 32.4126C654.692 32.4126 654.692 32.4126 654.693 32.4126C654.693 32.4126 654.693 32.4126 654.693 32.4126C654.693 32.4126 654.694 32.4126 654.694 32.4126C654.694 32.4126 654.694 32.4126 654.694 32.4126C654.695 32.4126 654.695 32.4126 654.695 32.4126C654.695 32.4126 654.696 32.4126 654.696 32.4126C654.696 32.4126 654.696 32.4126 654.696 32.4126C654.697 32.4126 654.697 32.4126 654.697 32.4126C654.697 32.4126 654.698 32.4126 654.698 32.4126C654.698 32.4126 654.698 32.4126 654.698 32.4126C654.699 32.4126 654.699 32.4126 654.699 32.4126C654.699 32.4126 654.7 32.4126 654.7 32.4126C654.7 32.4126 654.7 32.4126 654.7 32.4126C654.701 32.4126 654.701 32.4126 654.701 32.4126C654.701 32.4126 654.702 32.4126 654.702 32.4126C654.702 32.4126 654.702 32.4126 654.702 32.4126C654.703 32.4126 654.703 32.4126 654.703 32.4126C654.703 32.4126 654.704 32.4126 654.704 32.4126C654.704 32.4126 654.704 32.4126 654.704 32.4126C654.705 32.4126 654.705 32.4126 654.705 32.4126C654.705 32.4126 654.706 32.4126 654.706 32.4126C654.706 32.4126 654.706 32.4126 654.706 32.4126C654.707 32.4126 654.707 32.4126 654.707 32.4126C654.707 32.4126 654.708 32.4126 654.708 32.4126C654.708 32.4126 654.708 32.4126 654.708 32.4126C654.709 32.4126 654.709 32.4126 654.709 32.4126C654.709 32.4126 654.71 32.4126 654.71 32.4126C654.71 32.4126 654.71 32.4126 654.71 32.4126C654.711 32.4126 654.711 32.4126 654.711 32.4126C654.711 32.4126 654.712 32.4126 654.712 32.4126C654.712 32.4126 654.712 32.4126 654.712 32.4126C654.713 32.4126 654.713 32.4126 654.713 32.4126C654.713 32.4126 654.714 32.4126 654.714 32.4126C654.714 32.4126 654.714 32.4126 654.714 32.4126C654.715 32.4126 654.715 32.4126 654.715 32.4126C654.715 32.4126 654.716 32.4126 654.716 32.4126C654.716 32.4126 654.716 32.4126 654.716 32.4126C654.717 32.4126 654.717 32.4126 654.717 32.4126C654.717 32.4126 654.718 32.4126 654.718 32.4126C654.718 32.4126 654.718 32.4126 654.718 32.4126C654.719 32.4126 654.719 32.4126 654.719 32.4126C654.719 32.4126 654.72 32.4126 654.72 32.4126C654.72 32.4126 654.72 32.4126 654.72 32.4126C654.721 32.4126 654.721 32.4126 654.721 32.4126C654.721 32.4126 654.722 32.4126 654.722 32.4126C654.722 32.4126 654.722 32.4126 654.722 32.4126C654.723 32.4126 654.723 32.4126 654.723 32.4126C654.723 32.4126 654.724 32.4126 654.724 32.4126C654.724 32.4126 654.724 32.4126 654.724 32.4126C654.725 32.4126 654.725 32.4126 654.725 32.4126C654.725 32.4126 654.726 32.4126 654.726 32.4126C654.726 32.4126 654.726 32.4126 654.726 32.4126C654.727 32.4126 654.727 32.4126 654.727 32.4126C654.727 32.4126 654.728 32.4126 654.728 32.4126C654.728 32.4126 654.728 32.4126 654.728 32.4126C654.729 32.4126 654.729 32.4126 654.729 32.4126C654.729 32.4126 654.73 32.4126 654.73 32.4126C654.73 32.4126 654.73 32.4126 654.73 32.4126C654.731 32.4126 654.731 32.4126 654.731 32.4126C654.731 32.4126 654.732 32.4126 654.732 32.4126C654.732 32.4126 654.732 32.4126 654.732 32.4126C654.733 32.4126 654.733 32.4126 654.733 32.4126C654.733 32.4126 654.734 32.4126 654.734 32.4126C654.734 32.4126 654.734 32.4126 654.734 32.4126C654.735 32.4126 654.735 32.4126 654.735 32.4126C654.735 32.4126 654.736 32.4126 654.736 32.4126C654.736 32.4126 654.736 32.4126 654.736 32.4126C654.737 32.4126 654.737 32.4126 654.737 32.4126C654.737 32.4126 654.738 32.4126 654.738 32.4126C654.738 32.4126 654.738 32.4126 654.738 32.4126C654.739 32.4126 654.739 32.4126 654.739 32.4126C654.739 32.4126 654.74 32.4126 654.74 32.4126C654.74 32.4126 654.74 32.4126 654.74 32.4126C654.741 32.4126 654.741 32.4126 654.741 32.4126C654.741 32.4126 654.742 32.4126 654.742 32.4126C654.742 32.4126 654.742 32.4126 654.742 32.4126C654.743 32.4126 654.743 32.4126 654.743 32.4126C654.743 32.4126 654.744 32.4126 654.744 32.4126C654.744 32.4126 654.744 32.4126 654.744 32.4126C654.745 32.4126 654.745 32.4126 654.745 32.4126C654.745 32.4126 654.746 32.4126 654.746 32.4126C654.746 32.4126 654.746 32.4126 654.746 32.4126C654.747 32.4126 654.747 32.4126 654.747 32.4126C654.747 32.4126 654.748 32.4126 654.748 32.4126C654.748 32.4126 654.748 32.4126 654.748 32.4126C654.749 32.4126 654.749 32.4126 654.749 32.4126C654.749 32.4126 654.75 32.4126 654.75 32.4126C654.75 32.4126 654.75 32.4126 654.75 32.4126C654.751 32.4126 654.751 32.4126 654.751 32.4126C654.751 32.4126 654.752 32.4126 654.752 32.4126C654.752 32.4126 654.752 32.4126 654.752 32.4126C654.753 32.4126 654.753 32.4126 654.753 32.4126C654.753 32.4126 654.754 32.4126 654.754 32.4126C654.754 32.4126 654.754 32.4126 654.754 32.4126C654.755 32.4126 654.755 32.4126 654.755 32.4126C654.755 32.4126 654.756 32.4126 654.756 32.4126C654.756 32.4126 654.756 32.4126 654.756 32.4126C654.757 32.4126 654.757 32.4126 654.757 32.4126C654.757 32.4126 654.758 32.4126 654.758 32.4126C654.758 32.4126 654.758 32.4126 654.758 32.4126C654.759 32.4126 654.759 32.4126 654.759 32.4126C654.759 32.4126 654.76 32.4126 654.76 32.4126C654.76 32.4126 654.76 32.4126 654.76 32.4126C654.761 32.4126 654.761 32.4126 654.761 32.4126C654.761 32.4126 654.762 32.4126 654.762 32.4126C654.762 32.4126 654.762 32.4126 654.762 32.4126C654.763 32.4126 654.763 32.4126 654.763 32.4126C654.763 32.4126 654.764 32.4126 654.764 32.4126C654.764 32.4126 654.764 32.4126 654.764 32.4126C654.765 32.4126 654.765 32.4126 654.765 32.4126C654.765 32.4126 654.766 32.4126 654.766 32.4126C654.766 32.4126 654.766 32.4126 654.766 32.4126C654.767 32.4126 654.767 32.4126 654.767 32.4126C654.767 32.4126 654.768 32.4126 654.768 32.4126C654.768 32.4126 654.768 32.4126 654.768 32.4126C654.769 32.4126 654.769 32.4126 654.769 32.4126C654.769 32.4126 654.77 32.4126 654.77 32.4126C654.77 32.4126 654.77 32.4126 654.77 32.4126C654.771 32.4126 654.771 32.4126 654.771 32.4126C654.771 32.4126 654.772 32.4126 654.772 32.4126C654.772 32.4126 654.772 32.4126 654.772 32.4126C654.773 32.4126 654.773 32.4126 654.773 32.4126C654.773 32.4126 654.774 32.4126 654.774 32.4126C654.774 32.4126 654.774 32.4126 654.774 32.4126C654.775 32.4126 654.775 32.4126 654.775 32.4126C654.775 32.4126 654.776 32.4126 654.776 32.4126C654.776 32.4126 654.776 32.4126 654.776 32.4126C654.777 32.4126 654.777 32.4126 654.777 32.4126C654.777 32.4126 654.778 32.4126 654.778 32.4126C654.778 32.4126 654.778 32.4126 654.778 32.4126C654.779 32.4126 654.779 32.4126 654.779 32.4126C654.779 32.4126 654.78 32.4126 654.78 32.4126C654.78 32.4126 654.78 32.4126 654.78 32.4126C654.781 32.4126 654.781 32.4126 654.781 32.4126C654.781 32.4126 654.782 32.4126 654.782 32.4126C654.782 32.4126 654.782 32.4126 654.782 32.4126C654.783 32.4126 654.783 32.4126 654.783 32.4126C654.783 32.4126 654.784 32.4126 654.784 32.4126C654.784 32.4126 654.784 32.4126 654.784 32.4126C654.785 32.4126 654.785 32.4126 654.785 32.4126C654.785 32.4126 654.785 32.4126 654.786 32.4126C654.786 32.4126 654.786 32.4126 654.786 32.4126C654.787 32.4126 654.787 32.4126 654.787 32.4126C654.787 32.4126 654.787 32.4126 654.788 32.4126C654.788 32.4126 654.788 32.4126 654.788 32.4126C654.789 32.4126 654.789 32.4126 654.789 32.4126C654.789 32.4126 654.789 32.4126 654.79 32.4126C654.79 32.4126 654.79 32.4126 654.79 32.4126C654.791 32.4126 654.791 32.4126 654.791 32.4126C654.791 32.4126 654.791 32.4126 654.792 32.4126C654.792 32.4126 654.792 32.4126 654.792 32.4126C654.793 32.4126 654.793 32.4126 654.793 32.4126C654.793 32.4126 654.793 32.4126 654.794 32.4126C654.794 32.4126 654.794 32.4126 654.794 32.4126C654.795 32.4126 654.795 32.4126 654.795 32.4126C654.795 32.4126 654.795 32.4126 654.796 32.4126C654.796 32.4126 654.796 32.4126 654.796 32.4126C654.797 32.4126 654.797 32.4126 654.797 32.4126C654.797 32.4126 654.797 32.4126 654.798 32.4126C654.798 32.4126 654.798 32.4126 654.798 32.4126C654.799 32.4126 654.799 32.4126 654.799 32.4126C654.799 32.4126 654.799 32.4126 654.8 32.4126C654.8 32.4126 654.8 32.4126 654.8 32.4126C654.801 32.4126 654.801 32.4126 654.801 32.4126C654.801 32.4126 654.801 32.4126 654.802 32.4126C654.802 32.4126 654.802 32.4126 654.802 32.4126C654.803 32.4126 654.803 32.4126 654.803 32.4126C654.803 32.4126 654.803 32.4126 654.804 32.4126C654.804 32.4126 654.804 32.4126 654.804 32.4126C654.805 32.4126 654.805 32.4126 654.805 32.4126C654.805 32.4126 654.805 32.4126 654.806 32.4126C654.806 32.4126 654.806 32.4126 654.806 32.4126C654.807 32.4126 654.807 32.4126 654.807 32.4126C654.807 32.4126 654.807 32.4126 654.808 32.4126C654.808 32.4126 654.808 32.4126 654.808 32.4126C654.809 32.4126 654.809 32.4126 654.809 32.4126C654.809 32.4126 654.809 32.4126 654.81 32.4126C654.81 32.4126 654.81 32.4126 654.81 32.4126C654.811 32.4126 654.811 32.4126 654.811 32.4126C654.811 32.4126 654.811 32.4126 654.812 32.4126C654.812 32.4126 654.812 32.4126 654.812 32.4126C654.813 32.4126 654.813 32.4126 654.813 32.4126C654.813 32.4126 654.813 32.4126 654.814 32.4126C654.814 32.4126 654.814 32.4126 654.814 32.4126C654.815 32.4126 654.815 32.4126 654.815 32.4126C654.815 32.4126 654.815 32.4126 654.816 32.4126C654.816 32.4126 654.816 32.4126 654.816 32.4126C654.817 32.4126 654.817 32.4126 654.817 32.4126C654.817 32.4126 654.817 32.4126 654.818 32.4126C654.818 32.4126 654.818 32.4126 654.818 32.4126C654.819 32.4126 654.819 32.4126 654.819 32.4126C654.819 32.4126 654.819 32.4126 654.82 32.4126C654.82 32.4126 654.82 32.4126 654.82 32.4126C654.821 32.4126 654.821 32.4126 654.821 32.4126C654.821 32.4126 654.821 32.4126 654.822 32.4126C654.822 32.4126 654.822 32.4126 654.822 32.4126C654.823 32.4126 654.823 32.4126 654.823 32.4126C654.823 32.4126 654.823 32.4126 654.824 32.4126C654.824 32.4126 654.824 32.4126 654.824 32.4126C654.825 32.4126 654.825 32.4126 654.825 32.4126C654.825 32.4126 654.825 32.4126 654.826 32.4126C654.826 32.4126 654.826 32.4126 654.826 32.4126C654.827 32.4126 654.827 32.4126 654.827 32.4126C654.827 32.4126 654.827 32.4126 654.828 32.4126C654.828 32.4126 654.828 32.4126 654.828 32.4126C654.829 32.4126 654.829 32.4126 654.829 32.4126C654.829 32.4126 654.829 32.4126 654.83 32.4126C654.83 32.4126 654.83 32.4126 654.83 32.4126C654.831 32.4126 654.831 32.4126 654.831 32.4126C654.831 32.4126 654.831 32.4126 654.832 32.4126C654.832 32.4126 654.832 32.4126 654.832 32.4126C654.833 32.4126 654.833 32.4126 654.833 32.4126C654.833 32.4126 654.833 32.4126 654.834 32.4126C654.834 32.4126 654.834 32.4126 654.834 32.4126C654.835 32.4126 654.835 32.4126 654.835 32.4126C654.835 32.4126 654.835 32.4126 654.836 32.4126C654.836 32.4126 654.836 32.4126 654.836 32.4126V30.4126C654.836 30.4126 654.836 30.4126 654.836 30.4126C654.835 30.4126 654.835 30.4126 654.835 30.4126C654.835 30.4126 654.835 30.4126 654.834 30.4126C654.834 30.4126 654.834 30.4126 654.834 30.4126C654.833 30.4126 654.833 30.4126 654.833 30.4126C654.833 30.4126 654.833 30.4126 654.832 30.4126C654.832 30.4126 654.832 30.4126 654.832 30.4126C654.831 30.4126 654.831 30.4126 654.831 30.4126C654.831 30.4126 654.831 30.4126 654.83 30.4126C654.83 30.4126 654.83 30.4126 654.83 30.4126C654.829 30.4126 654.829 30.4126 654.829 30.4126C654.829 30.4126 654.829 30.4126 654.828 30.4126C654.828 30.4126 654.828 30.4126 654.828 30.4126C654.827 30.4126 654.827 30.4126 654.827 30.4126C654.827 30.4126 654.827 30.4126 654.826 30.4126C654.826 30.4126 654.826 30.4126 654.826 30.4126C654.825 30.4126 654.825 30.4126 654.825 30.4126C654.825 30.4126 654.825 30.4126 654.824 30.4126C654.824 30.4126 654.824 30.4126 654.824 30.4126C654.823 30.4126 654.823 30.4126 654.823 30.4126C654.823 30.4126 654.823 30.4126 654.822 30.4126C654.822 30.4126 654.822 30.4126 654.822 30.4126C654.821 30.4126 654.821 30.4126 654.821 30.4126C654.821 30.4126 654.821 30.4126 654.82 30.4126C654.82 30.4126 654.82 30.4126 654.82 30.4126C654.819 30.4126 654.819 30.4126 654.819 30.4126C654.819 30.4126 654.819 30.4126 654.818 30.4126C654.818 30.4126 654.818 30.4126 654.818 30.4126C654.817 30.4126 654.817 30.4126 654.817 30.4126C654.817 30.4126 654.817 30.4126 654.816 30.4126C654.816 30.4126 654.816 30.4126 654.816 30.4126C654.815 30.4126 654.815 30.4126 654.815 30.4126C654.815 30.4126 654.815 30.4126 654.814 30.4126C654.814 30.4126 654.814 30.4126 654.814 30.4126C654.813 30.4126 654.813 30.4126 654.813 30.4126C654.813 30.4126 654.813 30.4126 654.812 30.4126C654.812 30.4126 654.812 30.4126 654.812 30.4126C654.811 30.4126 654.811 30.4126 654.811 30.4126C654.811 30.4126 654.811 30.4126 654.81 30.4126C654.81 30.4126 654.81 30.4126 654.81 30.4126C654.809 30.4126 654.809 30.4126 654.809 30.4126C654.809 30.4126 654.809 30.4126 654.808 30.4126C654.808 30.4126 654.808 30.4126 654.808 30.4126C654.807 30.4126 654.807 30.4126 654.807 30.4126C654.807 30.4126 654.807 30.4126 654.806 30.4126C654.806 30.4126 654.806 30.4126 654.806 30.4126C654.805 30.4126 654.805 30.4126 654.805 30.4126C654.805 30.4126 654.805 30.4126 654.804 30.4126C654.804 30.4126 654.804 30.4126 654.804 30.4126C654.803 30.4126 654.803 30.4126 654.803 30.4126C654.803 30.4126 654.803 30.4126 654.802 30.4126C654.802 30.4126 654.802 30.4126 654.802 30.4126C654.801 30.4126 654.801 30.4126 654.801 30.4126C654.801 30.4126 654.801 30.4126 654.8 30.4126C654.8 30.4126 654.8 30.4126 654.8 30.4126C654.799 30.4126 654.799 30.4126 654.799 30.4126C654.799 30.4126 654.799 30.4126 654.798 30.4126C654.798 30.4126 654.798 30.4126 654.798 30.4126C654.797 30.4126 654.797 30.4126 654.797 30.4126C654.797 30.4126 654.797 30.4126 654.796 30.4126C654.796 30.4126 654.796 30.4126 654.796 30.4126C654.795 30.4126 654.795 30.4126 654.795 30.4126C654.795 30.4126 654.795 30.4126 654.794 30.4126C654.794 30.4126 654.794 30.4126 654.794 30.4126C654.793 30.4126 654.793 30.4126 654.793 30.4126C654.793 30.4126 654.793 30.4126 654.792 30.4126C654.792 30.4126 654.792 30.4126 654.792 30.4126C654.791 30.4126 654.791 30.4126 654.791 30.4126C654.791 30.4126 654.791 30.4126 654.79 30.4126C654.79 30.4126 654.79 30.4126 654.79 30.4126C654.789 30.4126 654.789 30.4126 654.789 30.4126C654.789 30.4126 654.789 30.4126 654.788 30.4126C654.788 30.4126 654.788 30.4126 654.788 30.4126C654.787 30.4126 654.787 30.4126 654.787 30.4126C654.787 30.4126 654.787 30.4126 654.786 30.4126C654.786 30.4126 654.786 30.4126 654.786 30.4126C654.785 30.4126 654.785 30.4126 654.785 30.4126C654.785 30.4126 654.785 30.4126 654.784 30.4126C654.784 30.4126 654.784 30.4126 654.784 30.4126C654.784 30.4126 654.783 30.4126 654.783 30.4126C654.783 30.4126 654.783 30.4126 654.782 30.4126C654.782 30.4126 654.782 30.4126 654.782 30.4126C654.782 30.4126 654.781 30.4126 654.781 30.4126C654.781 30.4126 654.781 30.4126 654.78 30.4126C654.78 30.4126 654.78 30.4126 654.78 30.4126C654.78 30.4126 654.779 30.4126 654.779 30.4126C654.779 30.4126 654.779 30.4126 654.778 30.4126C654.778 30.4126 654.778 30.4126 654.778 30.4126C654.778 30.4126 654.777 30.4126 654.777 30.4126C654.777 30.4126 654.777 30.4126 654.776 30.4126C654.776 30.4126 654.776 30.4126 654.776 30.4126C654.776 30.4126 654.775 30.4126 654.775 30.4126C654.775 30.4126 654.775 30.4126 654.774 30.4126C654.774 30.4126 654.774 30.4126 654.774 30.4126C654.774 30.4126 654.773 30.4126 654.773 30.4126C654.773 30.4126 654.773 30.4126 654.772 30.4126C654.772 30.4126 654.772 30.4126 654.772 30.4126C654.772 30.4126 654.771 30.4126 654.771 30.4126C654.771 30.4126 654.771 30.4126 654.77 30.4126C654.77 30.4126 654.77 30.4126 654.77 30.4126C654.77 30.4126 654.769 30.4126 654.769 30.4126C654.769 30.4126 654.769 30.4126 654.768 30.4126C654.768 30.4126 654.768 30.4126 654.768 30.4126C654.768 30.4126 654.767 30.4126 654.767 30.4126C654.767 30.4126 654.767 30.4126 654.766 30.4126C654.766 30.4126 654.766 30.4126 654.766 30.4126C654.766 30.4126 654.765 30.4126 654.765 30.4126C654.765 30.4126 654.765 30.4126 654.764 30.4126C654.764 30.4126 654.764 30.4126 654.764 30.4126C654.764 30.4126 654.763 30.4126 654.763 30.4126C654.763 30.4126 654.763 30.4126 654.762 30.4126C654.762 30.4126 654.762 30.4126 654.762 30.4126C654.762 30.4126 654.761 30.4126 654.761 30.4126C654.761 30.4126 654.761 30.4126 654.76 30.4126C654.76 30.4126 654.76 30.4126 654.76 30.4126C654.76 30.4126 654.759 30.4126 654.759 30.4126C654.759 30.4126 654.759 30.4126 654.758 30.4126C654.758 30.4126 654.758 30.4126 654.758 30.4126C654.758 30.4126 654.757 30.4126 654.757 30.4126C654.757 30.4126 654.757 30.4126 654.756 30.4126C654.756 30.4126 654.756 30.4126 654.756 30.4126C654.756 30.4126 654.755 30.4126 654.755 30.4126C654.755 30.4126 654.755 30.4126 654.754 30.4126C654.754 30.4126 654.754 30.4126 654.754 30.4126C654.754 30.4126 654.753 30.4126 654.753 30.4126C654.753 30.4126 654.753 30.4126 654.752 30.4126C654.752 30.4126 654.752 30.4126 654.752 30.4126C654.752 30.4126 654.751 30.4126 654.751 30.4126C654.751 30.4126 654.751 30.4126 654.75 30.4126C654.75 30.4126 654.75 30.4126 654.75 30.4126C654.75 30.4126 654.749 30.4126 654.749 30.4126C654.749 30.4126 654.749 30.4126 654.748 30.4126C654.748 30.4126 654.748 30.4126 654.748 30.4126C654.748 30.4126 654.747 30.4126 654.747 30.4126C654.747 30.4126 654.747 30.4126 654.746 30.4126C654.746 30.4126 654.746 30.4126 654.746 30.4126C654.746 30.4126 654.745 30.4126 654.745 30.4126C654.745 30.4126 654.745 30.4126 654.744 30.4126C654.744 30.4126 654.744 30.4126 654.744 30.4126C654.744 30.4126 654.743 30.4126 654.743 30.4126C654.743 30.4126 654.743 30.4126 654.742 30.4126C654.742 30.4126 654.742 30.4126 654.742 30.4126C654.742 30.4126 654.741 30.4126 654.741 30.4126C654.741 30.4126 654.741 30.4126 654.74 30.4126C654.74 30.4126 654.74 30.4126 654.74 30.4126C654.74 30.4126 654.739 30.4126 654.739 30.4126C654.739 30.4126 654.739 30.4126 654.738 30.4126C654.738 30.4126 654.738 30.4126 654.738 30.4126C654.738 30.4126 654.737 30.4126 654.737 30.4126C654.737 30.4126 654.737 30.4126 654.736 30.4126C654.736 30.4126 654.736 30.4126 654.736 30.4126C654.736 30.4126 654.735 30.4126 654.735 30.4126C654.735 30.4126 654.735 30.4126 654.734 30.4126C654.734 30.4126 654.734 30.4126 654.734 30.4126C654.734 30.4126 654.733 30.4126 654.733 30.4126C654.733 30.4126 654.733 30.4126 654.732 30.4126C654.732 30.4126 654.732 30.4126 654.732 30.4126C654.732 30.4126 654.731 30.4126 654.731 30.4126C654.731 30.4126 654.731 30.4126 654.73 30.4126C654.73 30.4126 654.73 30.4126 654.73 30.4126C654.73 30.4126 654.729 30.4126 654.729 30.4126C654.729 30.4126 654.729 30.4126 654.728 30.4126C654.728 30.4126 654.728 30.4126 654.728 30.4126C654.728 30.4126 654.727 30.4126 654.727 30.4126C654.727 30.4126 654.727 30.4126 654.726 30.4126C654.726 30.4126 654.726 30.4126 654.726 30.4126C654.726 30.4126 654.725 30.4126 654.725 30.4126C654.725 30.4126 654.725 30.4126 654.724 30.4126C654.724 30.4126 654.724 30.4126 654.724 30.4126C654.724 30.4126 654.723 30.4126 654.723 30.4126C654.723 30.4126 654.723 30.4126 654.722 30.4126C654.722 30.4126 654.722 30.4126 654.722 30.4126C654.722 30.4126 654.721 30.4126 654.721 30.4126C654.721 30.4126 654.721 30.4126 654.72 30.4126C654.72 30.4126 654.72 30.4126 654.72 30.4126C654.72 30.4126 654.719 30.4126 654.719 30.4126C654.719 30.4126 654.719 30.4126 654.718 30.4126C654.718 30.4126 654.718 30.4126 654.718 30.4126C654.718 30.4126 654.717 30.4126 654.717 30.4126C654.717 30.4126 654.717 30.4126 654.716 30.4126C654.716 30.4126 654.716 30.4126 654.716 30.4126C654.716 30.4126 654.715 30.4126 654.715 30.4126C654.715 30.4126 654.715 30.4126 654.714 30.4126C654.714 30.4126 654.714 30.4126 654.714 30.4126C654.714 30.4126 654.713 30.4126 654.713 30.4126C654.713 30.4126 654.713 30.4126 654.712 30.4126C654.712 30.4126 654.712 30.4126 654.712 30.4126C654.712 30.4126 654.711 30.4126 654.711 30.4126C654.711 30.4126 654.711 30.4126 654.71 30.4126C654.71 30.4126 654.71 30.4126 654.71 30.4126C654.71 30.4126 654.709 30.4126 654.709 30.4126C654.709 30.4126 654.709 30.4126 654.708 30.4126C654.708 30.4126 654.708 30.4126 654.708 30.4126C654.708 30.4126 654.707 30.4126 654.707 30.4126C654.707 30.4126 654.707 30.4126 654.706 30.4126C654.706 30.4126 654.706 30.4126 654.706 30.4126C654.706 30.4126 654.705 30.4126 654.705 30.4126C654.705 30.4126 654.705 30.4126 654.704 30.4126C654.704 30.4126 654.704 30.4126 654.704 30.4126C654.704 30.4126 654.703 30.4126 654.703 30.4126C654.703 30.4126 654.703 30.4126 654.702 30.4126C654.702 30.4126 654.702 30.4126 654.702 30.4126C654.702 30.4126 654.701 30.4126 654.701 30.4126C654.701 30.4126 654.701 30.4126 654.7 30.4126C654.7 30.4126 654.7 30.4126 654.7 30.4126C654.7 30.4126 654.699 30.4126 654.699 30.4126C654.699 30.4126 654.699 30.4126 654.698 30.4126C654.698 30.4126 654.698 30.4126 654.698 30.4126C654.698 30.4126 654.697 30.4126 654.697 30.4126C654.697 30.4126 654.697 30.4126 654.696 30.4126C654.696 30.4126 654.696 30.4126 654.696 30.4126C654.696 30.4126 654.695 30.4126 654.695 30.4126C654.695 30.4126 654.695 30.4126 654.694 30.4126C654.694 30.4126 654.694 30.4126 654.694 30.4126C654.694 30.4126 654.693 30.4126 654.693 30.4126C654.693 30.4126 654.693 30.4126 654.693 30.4126C654.692 30.4126 654.692 30.4126 654.692 30.4126C654.692 30.4126 654.691 30.4126 654.691 30.4126C654.691 30.4126 654.691 30.4126 654.691 30.4126C654.69 30.4126 654.69 30.4126 654.69 30.4126C654.69 30.4126 654.689 30.4126 654.689 30.4126C654.689 30.4126 654.689 30.4126 654.689 30.4126C654.688 30.4126 654.688 30.4126 654.688 30.4126C654.688 30.4126 654.687 30.4126 654.687 30.4126C654.687 30.4126 654.687 30.4126 654.687 30.4126C654.686 30.4126 654.686 30.4126 654.686 30.4126C654.686 30.4126 654.685 30.4126 654.685 30.4126C654.685 30.4126 654.685 30.4126 654.685 30.4126C654.684 30.4126 654.684 30.4126 654.684 30.4126C654.684 30.4126 654.683 30.4126 654.683 30.4126C654.683 30.4126 654.683 30.4126 654.683 30.4126C654.682 30.4126 654.682 30.4126 654.682 30.4126C654.682 30.4126 654.681 30.4126 654.681 30.4126C654.681 30.4126 654.681 30.4126 654.681 30.4126C654.68 30.4126 654.68 30.4126 654.68 30.4126C654.68 30.4126 654.679 30.4126 654.679 30.4126C654.679 30.4126 654.679 30.4126 654.679 30.4126C654.678 30.4126 654.678 30.4126 654.678 30.4126C654.678 30.4126 654.677 30.4126 654.677 30.4126C654.677 30.4126 654.677 30.4126 654.677 30.4126C654.676 30.4126 654.676 30.4126 654.676 30.4126C654.676 30.4126 654.675 30.4126 654.675 30.4126C654.675 30.4126 654.675 30.4126 654.675 30.4126C654.674 30.4126 654.674 30.4126 654.674 30.4126C654.674 30.4126 654.673 30.4126 654.673 30.4126C654.673 30.4126 654.673 30.4126 654.673 30.4126C654.672 30.4126 654.672 30.4126 654.672 30.4126C654.672 30.4126 654.671 30.4126 654.671 30.4126C654.671 30.4126 654.671 30.4126 654.671 30.4126C654.67 30.4126 654.67 30.4126 654.67 30.4126C654.67 30.4126 654.669 30.4126 654.669 30.4126C654.669 30.4126 654.669 30.4126 654.669 30.4126C654.668 30.4126 654.668 30.4126 654.668 30.4126C654.668 30.4126 654.667 30.4126 654.667 30.4126C654.667 30.4126 654.667 30.4126 654.667 30.4126C654.666 30.4126 654.666 30.4126 654.666 30.4126C654.666 30.4126 654.665 30.4126 654.665 30.4126C654.665 30.4126 654.665 30.4126 654.665 30.4126C654.664 30.4126 654.664 30.4126 654.664 30.4126C654.664 30.4126 654.663 30.4126 654.663 30.4126C654.663 30.4126 654.663 30.4126 654.663 30.4126C654.662 30.4126 654.662 30.4126 654.662 30.4126C654.662 30.4126 654.661 30.4126 654.661 30.4126C654.661 30.4126 654.661 30.4126 654.661 30.4126C654.66 30.4126 654.66 30.4126 654.66 30.4126C654.66 30.4126 654.659 30.4126 654.659 30.4126C654.659 30.4126 654.659 30.4126 654.659 30.4126C654.658 30.4126 654.658 30.4126 654.658 30.4126C654.658 30.4126 654.657 30.4126 654.657 30.4126C654.657 30.4126 654.657 30.4126 654.657 30.4126C654.656 30.4126 654.656 30.4126 654.656 30.4126C654.656 30.4126 654.655 30.4126 654.655 30.4126C654.655 30.4126 654.655 30.4126 654.655 30.4126C654.654 30.4126 654.654 30.4126 654.654 30.4126C654.654 30.4126 654.653 30.4126 654.653 30.4126C654.653 30.4126 654.653 30.4126 654.653 30.4126C654.652 30.4126 654.652 30.4126 654.652 30.4126C654.652 30.4126 654.651 30.4126 654.651 30.4126C654.651 30.4126 654.651 30.4126 654.651 30.4126C654.65 30.4126 654.65 30.4126 654.65 30.4126C654.65 30.4126 654.649 30.4126 654.649 30.4126C654.649 30.4126 654.649 30.4126 654.649 30.4126C654.648 30.4126 654.648 30.4126 654.648 30.4126C654.648 30.4126 654.647 30.4126 654.647 30.4126C654.647 30.4126 654.647 30.4126 654.647 30.4126C654.646 30.4126 654.646 30.4126 654.646 30.4126C654.646 30.4126 654.645 30.4126 654.645 30.4126C654.645 30.4126 654.645 30.4126 654.645 30.4126C654.644 30.4126 654.644 30.4126 654.644 30.4126C654.644 30.4126 654.643 30.4126 654.643 30.4126C654.643 30.4126 654.643 30.4126 654.643 30.4126C654.642 30.4126 654.642 30.4126 654.642 30.4126C654.642 30.4126 654.641 30.4126 654.641 30.4126C654.641 30.4126 654.641 30.4126 654.641 30.4126C654.64 30.4126 654.64 30.4126 654.64 30.4126C654.64 30.4126 654.639 30.4126 654.639 30.4126C654.639 30.4126 654.639 30.4126 654.639 30.4126C654.638 30.4126 654.638 30.4126 654.638 30.4126C654.638 30.4126 654.637 30.4126 654.637 30.4126C654.637 30.4126 654.637 30.4126 654.637 30.4126C654.636 30.4126 654.636 30.4126 654.636 30.4126C654.636 30.4126 654.635 30.4126 654.635 30.4126C654.635 30.4126 654.635 30.4126 654.635 30.4126C654.634 30.4126 654.634 30.4126 654.634 30.4126C654.634 30.4126 654.633 30.4126 654.633 30.4126C654.633 30.4126 654.633 30.4126 654.633 30.4126C654.632 30.4126 654.632 30.4126 654.632 30.4126C654.632 30.4126 654.631 30.4126 654.631 30.4126C654.631 30.4126 654.631 30.4126 654.631 30.4126C654.63 30.4126 654.63 30.4126 654.63 30.4126C654.63 30.4126 654.629 30.4126 654.629 30.4126C654.629 30.4126 654.629 30.4126 654.629 30.4126C654.628 30.4126 654.628 30.4126 654.628 30.4126C654.628 30.4126 654.627 30.4126 654.627 30.4126C654.627 30.4126 654.627 30.4126 654.627 30.4126C654.626 30.4126 654.626 30.4126 654.626 30.4126C654.626 30.4126 654.625 30.4126 654.625 30.4126C654.625 30.4126 654.625 30.4126 654.625 30.4126C654.624 30.4126 654.624 30.4126 654.624 30.4126C654.624 30.4126 654.623 30.4126 654.623 30.4126C654.623 30.4126 654.623 30.4126 654.623 30.4126C654.622 30.4126 654.622 30.4126 654.622 30.4126C654.622 30.4126 654.621 30.4126 654.621 30.4126C654.621 30.4126 654.621 30.4126 654.621 30.4126C654.62 30.4126 654.62 30.4126 654.62 30.4126C654.62 30.4126 654.619 30.4126 654.619 30.4126C654.619 30.4126 654.619 30.4126 654.619 30.4126C654.618 30.4126 654.618 30.4126 654.618 30.4126C654.618 30.4126 654.617 30.4126 654.617 30.4126C654.617 30.4126 654.617 30.4126 654.617 30.4126C654.616 30.4126 654.616 30.4126 654.616 30.4126C654.616 30.4126 654.615 30.4126 654.615 30.4126C654.615 30.4126 654.615 30.4126 654.615 30.4126C654.614 30.4126 654.614 30.4126 654.614 30.4126C654.614 30.4126 654.613 30.4126 654.613 30.4126C654.613 30.4126 654.613 30.4126 654.613 30.4126C654.612 30.4126 654.612 30.4126 654.612 30.4126C654.612 30.4126 654.611 30.4126 654.611 30.4126C654.611 30.4126 654.611 30.4126 654.611 30.4126C654.61 30.4126 654.61 30.4126 654.61 30.4126C654.61 30.4126 654.609 30.4126 654.609 30.4126C654.609 30.4126 654.609 30.4126 654.609 30.4126C654.608 30.4126 654.608 30.4126 654.608 30.4126C654.608 30.4126 654.607 30.4126 654.607 30.4126C654.607 30.4126 654.607 30.4126 654.607 30.4126C654.606 30.4126 654.606 30.4126 654.606 30.4126C654.606 30.4126 654.605 30.4126 654.605 30.4126C654.605 30.4126 654.605 30.4126 654.605 30.4126C654.604 30.4126 654.604 30.4126 654.604 30.4126C654.604 30.4126 654.604 30.4126 654.603 30.4126C654.603 30.4126 654.603 30.4126 654.603 30.4126C654.602 30.4126 654.602 30.4126 654.602 30.4126C654.602 30.4126 654.602 30.4126 654.601 30.4126C654.601 30.4126 654.601 30.4126 654.601 30.4126C654.6 30.4126 654.6 30.4126 654.6 30.4126C654.6 30.4126 654.6 30.4126 654.599 30.4126C654.599 30.4126 654.599 30.4126 654.599 30.4126C654.598 30.4126 654.598 30.4126 654.598 30.4126C654.598 30.4126 654.598 30.4126 654.597 30.4126C654.597 30.4126 654.597 30.4126 654.597 30.4126C654.596 30.4126 654.596 30.4126 654.596 30.4126C654.596 30.4126 654.596 30.4126 654.595 30.4126C654.595 30.4126 654.595 30.4126 654.595 30.4126C654.594 30.4126 654.594 30.4126 654.594 30.4126C654.594 30.4126 654.594 30.4126 654.593 30.4126C654.593 30.4126 654.593 30.4126 654.593 30.4126C654.592 30.4126 654.592 30.4126 654.592 30.4126C654.592 30.4126 654.592 30.4126 654.591 30.4126C654.591 30.4126 654.591 30.4126 654.591 30.4126C654.59 30.4126 654.59 30.4126 654.59 30.4126C654.59 30.4126 654.59 30.4126 654.589 30.4126C654.589 30.4126 654.589 30.4126 654.589 30.4126C654.588 30.4126 654.588 30.4126 654.588 30.4126C654.588 30.4126 654.588 30.4126 654.587 30.4126C654.587 30.4126 654.587 30.4126 654.587 30.4126C654.586 30.4126 654.586 30.4126 654.586 30.4126C654.586 30.4126 654.586 30.4126 654.585 30.4126C654.585 30.4126 654.585 30.4126 654.585 30.4126C654.584 30.4126 654.584 30.4126 654.584 30.4126C654.584 30.4126 654.584 30.4126 654.583 30.4126C654.583 30.4126 654.583 30.4126 654.583 30.4126C654.582 30.4126 654.582 30.4126 654.582 30.4126C654.582 30.4126 654.582 30.4126 654.581 30.4126C654.581 30.4126 654.581 30.4126 654.581 30.4126C654.58 30.4126 654.58 30.4126 654.58 30.4126C654.58 30.4126 654.58 30.4126 654.579 30.4126C654.579 30.4126 654.579 30.4126 654.579 30.4126C654.578 30.4126 654.578 30.4126 654.578 30.4126C654.578 30.4126 654.578 30.4126 654.577 30.4126C654.577 30.4126 654.577 30.4126 654.577 30.4126C654.576 30.4126 654.576 30.4126 654.576 30.4126C654.576 30.4126 654.576 30.4126 654.575 30.4126C654.575 30.4126 654.575 30.4126 654.575 30.4126C654.574 30.4126 654.574 30.4126 654.574 30.4126C654.574 30.4126 654.574 30.4126 654.573 30.4126C654.573 30.4126 654.573 30.4126 654.573 30.4126C654.572 30.4126 654.572 30.4126 654.572 30.4126C654.572 30.4126 654.572 30.4126 654.571 30.4126C654.571 30.4126 654.571 30.4126 654.571 30.4126C654.57 30.4126 654.57 30.4126 654.57 30.4126C654.57 30.4126 654.57 30.4126 654.569 30.4126C654.569 30.4126 654.569 30.4126 654.569 30.4126C654.568 30.4126 654.568 30.4126 654.568 30.4126C654.568 30.4126 654.568 30.4126 654.567 30.4126C654.567 30.4126 654.567 30.4126 654.567 30.4126C654.566 30.4126 654.566 30.4126 654.566 30.4126C654.566 30.4126 654.566 30.4126 654.565 30.4126C654.565 30.4126 654.565 30.4126 654.565 30.4126C654.564 30.4126 654.564 30.4126 654.564 30.4126C654.564 30.4126 654.564 30.4126 654.563 30.4126C654.563 30.4126 654.563 30.4126 654.563 30.4126C654.562 30.4126 654.562 30.4126 654.562 30.4126C654.562 30.4126 654.562 30.4126 654.561 30.4126C654.561 30.4126 654.561 30.4126 654.561 30.4126C654.56 30.4126 654.56 30.4126 654.56 30.4126C654.56 30.4126 654.56 30.4126 654.559 30.4126C654.559 30.4126 654.559 30.4126 654.559 30.4126C654.558 30.4126 654.558 30.4126 654.558 30.4126C654.558 30.4126 654.558 30.4126 654.557 30.4126C654.557 30.4126 654.557 30.4126 654.557 30.4126C654.556 30.4126 654.556 30.4126 654.556 30.4126C654.556 30.4126 654.556 30.4126 654.555 30.4126C654.555 30.4126 654.555 30.4126 654.555 30.4126C654.554 30.4126 654.554 30.4126 654.554 30.4126C654.554 30.4126 654.554 30.4126 654.553 30.4126C654.553 30.4126 654.553 30.4126 654.553 30.4126C654.552 30.4126 654.552 30.4126 654.552 30.4126C654.552 30.4126 654.552 30.4126 654.551 30.4126C654.551 30.4126 654.551 30.4126 654.551 30.4126C654.55 30.4126 654.55 30.4126 654.55 30.4126C654.55 30.4126 654.55 30.4126 654.549 30.4126C654.549 30.4126 654.549 30.4126 654.549 30.4126C654.548 30.4126 654.548 30.4126 654.548 30.4126C654.548 30.4126 654.548 30.4126 654.547 30.4126C654.547 30.4126 654.547 30.4126 654.547 30.4126C654.546 30.4126 654.546 30.4126 654.546 30.4126C654.546 30.4126 654.546 30.4126 654.545 30.4126C654.545 30.4126 654.545 30.4126 654.545 30.4126C654.544 30.4126 654.544 30.4126 654.544 30.4126C654.544 30.4126 654.544 30.4126 654.543 30.4126C654.543 30.4126 654.543 30.4126 654.543 30.4126C654.542 30.4126 654.542 30.4126 654.542 30.4126C654.542 30.4126 654.542 30.4126 654.541 30.4126C654.541 30.4126 654.541 30.4126 654.541 30.4126C654.54 30.4126 654.54 30.4126 654.54 30.4126C654.54 30.4126 654.54 30.4126 654.539 30.4126C654.539 30.4126 654.539 30.4126 654.539 30.4126C654.538 30.4126 654.538 30.4126 654.538 30.4126C654.538 30.4126 654.538 30.4126 654.537 30.4126C654.537 30.4126 654.537 30.4126 654.537 30.4126C654.536 30.4126 654.536 30.4126 654.536 30.4126C654.536 30.4126 654.536 30.4126 654.535 30.4126C654.535 30.4126 654.535 30.4126 654.535 30.4126C654.534 30.4126 654.534 30.4126 654.534 30.4126C654.534 30.4126 654.534 30.4126 654.533 30.4126C654.533 30.4126 654.533 30.4126 654.533 30.4126C654.532 30.4126 654.532 30.4126 654.532 30.4126C654.532 30.4126 654.532 30.4126 654.531 30.4126C654.531 30.4126 654.531 30.4126 654.531 30.4126C654.53 30.4126 654.53 30.4126 654.53 30.4126C654.53 30.4126 654.53 30.4126 654.529 30.4126C654.529 30.4126 654.529 30.4126 654.529 30.4126C654.528 30.4126 654.528 30.4126 654.528 30.4126C654.528 30.4126 654.528 30.4126 654.527 30.4126C654.527 30.4126 654.527 30.4126 654.527 30.4126C654.526 30.4126 654.526 30.4126 654.526 30.4126C654.526 30.4126 654.526 30.4126 654.525 30.4126C654.525 30.4126 654.525 30.4126 654.525 30.4126C654.524 30.4126 654.524 30.4126 654.524 30.4126C654.524 30.4126 654.524 30.4126 654.523 30.4126C654.523 30.4126 654.523 30.4126 654.523 30.4126C654.522 30.4126 654.522 30.4126 654.522 30.4126C654.522 30.4126 654.522 30.4126 654.521 30.4126C654.521 30.4126 654.521 30.4126 654.521 30.4126C654.52 30.4126 654.52 30.4126 654.52 30.4126C654.52 30.4126 654.52 30.4126 654.519 30.4126C654.519 30.4126 654.519 30.4126 654.519 30.4126C654.518 30.4126 654.518 30.4126 654.518 30.4126C654.518 30.4126 654.518 30.4126 654.517 30.4126C654.517 30.4126 654.517 30.4126 654.517 30.4126C654.516 30.4126 654.516 30.4126 654.516 30.4126C654.516 30.4126 654.516 30.4126 654.515 30.4126C654.515 30.4126 654.515 30.4126 654.515 30.4126C654.514 30.4126 654.514 30.4126 654.514 30.4126C654.514 30.4126 654.514 30.4126 654.513 30.4126C654.513 30.4126 654.513 30.4126 654.513 30.4126C654.513 30.4126 654.512 30.4126 654.512 30.4126C654.512 30.4126 654.512 30.4126 654.511 30.4126C654.511 30.4126 654.511 30.4126 654.511 30.4126C654.511 30.4126 654.51 30.4126 654.51 30.4126C654.51 30.4126 654.51 30.4126 654.509 30.4126C654.509 30.4126 654.509 30.4126 654.509 30.4126C654.509 30.4126 654.508 30.4126 654.508 30.4126C654.508 30.4126 654.508 30.4126 654.507 30.4126C654.507 30.4126 654.507 30.4126 654.507 30.4126C654.507 30.4126 654.506 30.4126 654.506 30.4126C654.506 30.4126 654.506 30.4126 654.505 30.4126C654.505 30.4126 654.505 30.4126 654.505 30.4126C654.505 30.4126 654.504 30.4126 654.504 30.4126C654.504 30.4126 654.504 30.4126 654.503 30.4126C654.503 30.4126 654.503 30.4126 654.503 30.4126C654.503 30.4126 654.502 30.4126 654.502 30.4126C654.502 30.4126 654.502 30.4126 654.501 30.4126C654.501 30.4126 654.501 30.4126 654.501 30.4126C654.501 30.4126 654.5 30.4126 654.5 30.4126C654.5 30.4126 654.5 30.4126 654.499 30.4126C654.499 30.4126 654.499 30.4126 654.499 30.4126C654.499 30.4126 654.498 30.4126 654.498 30.4126C654.498 30.4126 654.498 30.4126 654.497 30.4126C654.497 30.4126 654.497 30.4126 654.497 30.4126C654.497 30.4126 654.496 30.4126 654.496 30.4126C654.496 30.4126 654.496 30.4126 654.495 30.4126V32.4126ZM654.836 32.4126C654.929 32.4126 655.012 32.4156 655.085 32.4208L655.227 30.4258C655.101 30.4168 654.971 30.4126 654.836 30.4126V32.4126ZM654.156 31.4233V32.7337H656.156V31.4233H654.156ZM655.239 31.7371C655.169 31.7313 655.078 31.7219 654.964 31.7086L654.73 33.6949C654.858 33.7099 654.973 33.7219 655.073 33.7302L655.239 31.7371ZM655.031 31.7188C654.836 31.6822 654.627 31.6697 654.421 31.6697V33.6697C654.556 33.6697 654.631 33.6786 654.663 33.6846L655.031 31.7188ZM654.421 31.6697C653.364 31.6697 652.385 31.8982 651.51 32.3795L652.474 34.1319C653.019 33.832 653.659 33.6697 654.421 33.6697V31.6697ZM651.506 32.3815C650.648 32.8582 649.964 33.5245 649.468 34.3684L651.192 35.3816C651.506 34.8477 651.929 34.4344 652.478 34.1298L651.506 32.3815ZM649.47 34.3645C648.964 35.2174 648.723 36.1788 648.723 37.2188H650.723C650.723 36.4973 650.887 35.8962 651.19 35.3855L649.47 34.3645ZM648.723 37.2188V48H650.723V37.2188H648.723ZM649.723 47H648.423V49H649.723V47ZM658.033 44.2607L657.11 44.6453L657.113 44.6515L658.033 44.2607ZM658.044 35.4929L657.124 35.0996L657.123 35.1021L658.044 35.4929ZM660.334 32.4886L660.929 33.2928L660.932 33.29L660.334 32.4886ZM666.204 31.9347L665.739 32.8198L665.75 32.8254L666.204 31.9347ZM667.951 33.3516L667.169 33.974L667.173 33.9797L667.951 33.3516ZM669.038 35.2905L668.095 35.6238L668.331 36.2905H669.038V35.2905ZM669.166 35.2905V36.2905H670.166V35.2905H669.166ZM669.166 26.1818V25.1818H668.166V26.1818H669.166ZM670.455 26.1818H671.455V25.1818H670.455V26.1818ZM670.455 48V49H671.455V48H670.455ZM669.198 48H668.198V49H669.198V48ZM669.198 44.4311H670.198V43.4311H669.198V44.4311ZM669.038 44.4311V43.4311H668.344L668.101 44.081L669.038 44.4311ZM667.941 46.3807L668.723 47.0031L668.727 46.9985L667.941 46.3807ZM666.194 47.8082L666.648 48.699L666.655 48.6953L666.194 47.8082ZM666.716 46.1889L667.341 46.9691L667.342 46.9684L666.716 46.1889ZM668.537 43.5895L667.605 43.2285L667.603 43.2317L668.537 43.5895ZM668.537 36.1321L667.603 36.4899L667.606 36.4972L668.537 36.1321ZM666.716 33.554L666.09 34.3342L666.098 34.3403L666.716 33.554ZM660.984 33.5646L661.606 34.3475L661.607 34.3468L660.984 33.5646ZM659.152 36.1534L658.22 35.7904L658.218 35.7956L659.152 36.1534ZM659.152 43.5575L658.217 43.9133L658.219 43.9185L659.152 43.5575ZM660.984 46.1783L660.353 46.9544L660.361 46.9605L660.984 46.1783ZM663.754 47.3409C662.636 47.3409 661.702 47.0372 660.907 46.4501L659.718 48.0584C660.884 48.9202 662.244 49.3409 663.754 49.3409V47.3409ZM660.907 46.4501C660.089 45.8454 659.433 44.9991 658.953 43.8698L657.113 44.6515C657.713 46.0649 658.576 47.2143 659.718 48.0584L660.907 46.4501ZM658.956 43.876C658.483 42.7408 658.234 41.4088 658.234 39.8608H656.234C656.234 41.6224 656.518 43.2237 657.11 44.6453L658.956 43.876ZM658.234 39.8608C658.234 38.3297 658.486 37.0105 658.964 35.8837L657.123 35.1021C656.522 36.5179 656.234 38.1107 656.234 39.8608H658.234ZM658.963 35.8862C659.45 34.7478 660.111 33.8974 660.929 33.2928L659.74 31.6845C658.598 32.5287 657.731 33.6812 657.124 35.0996L658.963 35.8862ZM660.932 33.29C661.727 32.6965 662.658 32.3913 663.765 32.3913V30.3913C662.258 30.3913 660.901 30.8177 659.736 31.6872L660.932 33.29ZM663.765 32.3913C664.573 32.3913 665.22 32.547 665.739 32.8198L666.67 31.0495C665.811 30.5979 664.831 30.3913 663.765 30.3913V32.3913ZM665.75 32.8254C666.323 33.1181 666.792 33.5006 667.169 33.974L668.734 32.7292C668.173 32.0236 667.477 31.4615 666.659 31.0439L665.75 32.8254ZM667.173 33.9797C667.579 34.4824 667.885 35.0293 668.095 35.6238L669.981 34.9572C669.694 34.1454 669.275 33.3997 668.729 32.7234L667.173 33.9797ZM669.038 36.2905H669.166V34.2905H669.038V36.2905ZM670.166 35.2905V26.1818H668.166V35.2905H670.166ZM669.166 27.1818H670.455V25.1818H669.166V27.1818ZM669.455 26.1818V48H671.455V26.1818H669.455ZM670.455 47H669.198V49H670.455V47ZM670.198 48V44.4311H668.198V48H670.198ZM669.198 43.4311H669.038V45.4311H669.198V43.4311ZM668.101 44.081C667.875 44.6866 667.56 45.2464 667.154 45.7629L668.727 46.9985C669.259 46.3218 669.675 45.5818 669.975 44.7812L668.101 44.081ZM667.158 45.7583C666.78 46.2334 666.309 46.6209 665.732 46.9212L666.655 48.6953C667.47 48.2711 668.164 47.7069 668.723 47.0031L667.158 45.7583ZM665.739 46.9175C665.208 47.1883 664.556 47.3409 663.754 47.3409V49.3409C664.812 49.3409 665.787 49.1384 666.648 48.699L665.739 46.9175ZM663.871 48.1371C665.183 48.1371 666.358 47.7575 667.341 46.9691L666.09 45.4087C665.496 45.8846 664.775 46.1371 663.871 46.1371V48.1371ZM667.342 46.9684C668.295 46.2028 668.998 45.1815 669.471 43.9472L667.603 43.2317C667.238 44.185 666.727 44.8966 666.089 45.4094L667.342 46.9684ZM669.47 43.9505C669.948 42.7159 670.176 41.344 670.176 39.8501H668.176C668.176 41.1404 667.979 42.2614 667.605 43.2285L669.47 43.9505ZM670.176 39.8501C670.176 38.3567 669.948 36.99 669.468 35.767L667.606 36.4972C667.979 37.4475 668.176 38.5595 668.176 39.8501H670.176ZM669.471 35.7743C668.998 34.5388 668.292 33.521 667.333 32.7677L666.098 34.3403C666.73 34.837 667.239 35.5379 667.603 36.4899L669.471 35.7743ZM667.341 32.7738C666.358 31.9854 665.183 31.6058 663.871 31.6058V33.6058C664.775 33.6058 665.496 33.8583 666.09 34.3342L667.341 32.7738ZM663.871 31.6058C662.545 31.6058 661.357 31.9887 660.361 32.7824L661.607 34.3468C662.216 33.8621 662.953 33.6058 663.871 33.6058V31.6058ZM660.362 32.7817C659.408 33.54 658.7 34.5577 658.22 35.7904L660.083 36.5164C660.455 35.5616 660.97 34.8534 661.606 34.3475L660.362 32.7817ZM658.218 35.7956C657.748 37.0213 657.523 38.3776 657.523 39.8501H659.523C659.523 38.5812 659.717 37.4731 660.085 36.5112L658.218 35.7956ZM657.523 39.8501C657.523 41.3229 657.748 42.6818 658.217 43.9133L660.086 43.2018C659.717 42.2315 659.523 41.1189 659.523 39.8501H657.523ZM658.219 43.9185C658.698 45.1567 659.404 46.1826 660.353 46.9544L661.615 45.4022C660.974 44.8813 660.457 44.16 660.084 43.1965L658.219 43.9185ZM660.361 46.9605C661.357 47.7542 662.545 48.1371 663.871 48.1371V46.1371C662.953 46.1371 662.216 45.8808 661.607 45.396L660.361 46.9605ZM677.593 26.1818H678.593V25.1818H677.593V26.1818ZM677.593 48V49H678.593V48H677.593ZM676.294 48H675.294V49H676.294V48ZM676.294 26.1818V25.1818H675.294V26.1818H676.294ZM676.593 26.1818V48H678.593V26.1818H676.593ZM677.593 47H676.294V49H677.593V47ZM677.294 48V26.1818H675.294V48H677.294ZM676.294 27.1818H677.593V25.1818H676.294V27.1818ZM682.953 44.2393L683.858 43.8145L682.953 44.2393ZM682.953 35.5249L682.048 35.0978L682.046 35.102L682.953 35.5249ZM685.435 32.4993L684.86 31.6811V31.6811L685.435 32.4993ZM691.635 31.9453L691.223 32.8565L691.233 32.8607L691.635 31.9453ZM693.808 33.522L693.068 34.1939L693.072 34.1981L693.808 33.522ZM695.289 36.0149L694.35 36.3578L694.352 36.3638L695.289 36.0149ZM695.833 40.1058V41.1058H696.833V40.1058H695.833ZM682.878 40.1058H681.878V41.1058H682.878V40.1058ZM682.878 38.9233V37.9233H681.878V38.9233H682.878ZM694.533 38.9233V39.9233H695.533V38.9233H694.533ZM693.808 35.7166L692.917 36.1691V36.1691L693.808 35.7166ZM691.838 33.4474L691.278 34.2762L691.838 33.4474ZM686.127 33.522L686.709 34.3358L686.71 34.3348L686.127 33.522ZM684.114 35.9723L683.213 35.5375L683.211 35.5426L684.114 35.9723ZM683.347 39.424L682.347 39.4072L682.347 39.4156V39.424H683.347ZM684.061 43.6321L683.145 44.0332L683.148 44.0405L684.061 43.6321ZM686.127 46.1996L685.55 47.0164L685.555 47.0194L686.127 46.1996ZM691.635 46.6896L692.062 47.594L692.066 47.5919L691.635 46.6896ZM693.201 45.5817L693.932 46.2644L693.201 45.5817ZM694.117 44.3246L694.493 43.3978L693.642 43.0529L693.226 43.8711L694.117 44.3246ZM695.3 44.804L696.21 45.2178L696.642 44.2689L695.676 43.8772L695.3 44.804ZM694.139 46.4446L693.418 45.7517L693.418 45.7519L694.139 46.4446ZM692.157 47.7976L691.746 46.8861L691.743 46.8875L692.157 47.7976ZM689.345 47.3409C688.04 47.3409 686.954 47.0207 686.044 46.4124L684.932 48.0748C686.21 48.9296 687.695 49.3409 689.345 49.3409V47.3409ZM686.044 46.4124C685.112 45.7889 684.383 44.9326 683.858 43.8145L682.047 44.6642C682.716 46.0887 683.677 47.2353 684.932 48.0748L686.044 46.4124ZM683.858 43.8145C683.333 42.6956 683.058 41.3955 683.058 39.8928H681.058C681.058 41.6429 681.379 43.2405 682.047 44.6642L683.858 43.8145ZM683.058 39.8928C683.058 38.3824 683.333 37.0744 683.859 35.9477L682.046 35.102C681.379 36.5321 681.058 38.1361 681.058 39.8928H683.058ZM683.857 35.9519C684.394 34.814 685.114 33.9467 686.01 33.3175L684.86 31.6811C683.653 32.5292 682.718 33.6789 682.048 35.0979L683.857 35.9519ZM686.01 33.3175C686.884 32.7033 687.881 32.3913 689.036 32.3913V30.3913C687.492 30.3913 686.088 30.818 684.86 31.6811L686.01 33.3175ZM689.036 32.3913C689.813 32.3913 690.539 32.547 691.223 32.8565L692.047 31.0341C691.098 30.605 690.091 30.3913 689.036 30.3913V32.3913ZM691.233 32.8607C691.924 33.1645 692.534 33.6054 693.068 34.1939L694.549 32.8501C693.833 32.0607 692.994 31.4505 692.038 31.0299L691.233 32.8607ZM693.072 34.1981C693.606 34.7804 694.035 35.4947 694.35 36.3578L696.229 35.6721C695.833 34.5891 695.275 33.6415 694.545 32.8459L693.072 34.1981ZM694.352 36.3638C694.666 37.208 694.833 38.1809 694.833 39.2962H696.833C696.833 37.9824 696.637 36.7679 696.226 35.666L694.352 36.3638ZM694.833 39.2962V40.1058H696.833V39.2962H694.833ZM695.833 39.1058H682.878V41.1058H695.833V39.1058ZM683.878 40.1058V38.9233H681.878V40.1058H683.878ZM682.878 39.9233H694.533V37.9233H682.878V39.9233ZM695.533 38.9233C695.533 37.5977 695.262 36.371 694.7 35.2641L692.917 36.1691C693.321 36.9656 693.533 37.8767 693.533 38.9233H695.533ZM694.7 35.2641C694.145 34.1709 693.378 33.281 692.397 32.6187L691.278 34.2762C691.959 34.736 692.506 35.359 692.917 36.1691L694.7 35.2641ZM692.397 32.6187C691.395 31.942 690.265 31.6058 689.036 31.6058V33.6058C689.88 33.6058 690.618 33.8307 691.278 34.2762L692.397 32.6187ZM689.036 31.6058C687.748 31.6058 686.573 31.972 685.545 32.7092L686.71 34.3348C687.386 33.8504 688.15 33.6058 689.036 33.6058V31.6058ZM685.546 32.7083C684.551 33.4191 683.776 34.3722 683.213 35.5376L685.014 36.4071C685.446 35.5127 686.013 34.8323 686.709 34.3358L685.546 32.7083ZM683.211 35.5426C682.653 36.7157 682.37 38.0095 682.347 39.4072L684.347 39.4408C684.366 38.2959 684.595 37.2886 685.017 36.402L683.211 35.5426ZM682.347 39.424V39.9567H684.347V39.424H682.347ZM682.347 39.9567C682.347 41.4379 682.606 42.8026 683.145 44.0332L684.977 43.231C684.564 42.2883 684.347 41.2028 684.347 39.9567H682.347ZM683.148 44.0405C683.698 45.2704 684.497 46.2725 685.55 47.0164L686.704 45.3828C685.968 44.8624 685.389 44.1529 684.973 43.2237L683.148 44.0405ZM685.555 47.0194C686.641 47.7781 687.921 48.1371 689.345 48.1371V46.1371C688.269 46.1371 687.403 45.871 686.7 45.3797L685.555 47.0194ZM689.345 48.1371C690.347 48.1371 691.264 47.9703 692.062 47.594L691.208 45.7853C690.742 46.0055 690.132 46.1371 689.345 46.1371V48.1371ZM692.066 47.5919C692.797 47.2429 693.427 46.8048 693.932 46.2644L692.471 44.8989C692.166 45.225 691.752 45.5255 691.204 45.7873L692.066 47.5919ZM693.932 46.2644C694.382 45.7823 694.75 45.2874 695.009 44.778L693.226 43.8711C693.073 44.1714 692.83 44.5146 692.471 44.8989L693.932 46.2644ZM693.742 45.2513L694.924 45.7307L695.676 43.8772L694.493 43.3978L693.742 45.2513ZM694.39 44.3902C694.198 44.8109 693.884 45.266 693.418 45.7517L694.86 47.1375C695.444 46.5295 695.904 45.8908 696.21 45.2178L694.39 44.3902ZM693.418 45.7519C693.002 46.1849 692.452 46.5673 691.746 46.8861L692.569 48.7091C693.467 48.3035 694.239 47.7838 694.86 47.1373L693.418 45.7519ZM691.743 46.8875C691.104 47.1782 690.314 47.3409 689.345 47.3409V49.3409C690.534 49.3409 691.619 49.1414 692.572 48.7077L691.743 46.8875Z" fill="black"/>
<rect x="22" y="23" width="37" height="4" fill="#6C6C6C"/>
<rect x="22" y="35" width="37" height="4" fill="#6C6C6C"/>
<rect x="22" y="47" width="37" height="4" fill="#6C6C6C"/>
<path d="M1252 35H1278V39H1252V35Z" fill="#6C6C6C"/>
<path d="M1252 35H1278V39H1252V35Z" fill="#6C6C6C"/>
<path d="M1241 23H1278V27H1241V23Z" fill="#6C6C6C"/>
<path d="M1241 23H1278V27H1241V23Z" fill="#6C6C6C"/>
<path d="M1264 47H1278V51H1264V47Z" fill="#6C6C6C"/>
<path d="M1264 47H1278V51H1264V47Z" fill="#6C6C6C"/>
<rect x="473.5" y="118.5" width="58.0096" height="58.0096" fill="white"/>
<rect x="473.5" y="118.5" width="58.0096" height="58.0096" stroke="#ACACAC"/>
<rect x="473.5" y="191.159" width="58.0096" height="59.1274" fill="white"/>
<rect x="473.5" y="191.159" width="58.0096" height="59.1274" stroke="#ACACAC"/>
<rect x="767.491" y="191.159" width="58.0096" height="59.1274" fill="white"/>
<rect x="767.491" y="191.159" width="58.0096" height="59.1274" stroke="#ACACAC"/>
<rect x="692.596" y="191.159" width="60.2452" height="59.1274" fill="white"/>
<rect x="692.596" y="191.159" width="60.2452" height="59.1274" stroke="#ACACAC"/>
<rect x="619.936" y="191.159" width="59.1274" height="59.1274" fill="white"/>
<rect x="619.936" y="191.159" width="59.1274" height="59.1274" stroke="#ACACAC"/>
<rect x="546.159" y="191.159" width="60.2452" height="59.1274" fill="white"/>
<rect x="546.159" y="191.159" width="60.2452" height="59.1274" stroke="#ACACAC"/>
<rect x="619.936" y="118.5" width="59.1274" height="58.0096" fill="white"/>
<rect x="619.936" y="118.5" width="59.1274" height="58.0096" stroke="#ACACAC"/>
<rect x="767.491" y="118.5" width="58.0096" height="58.0096" fill="white"/>
<rect x="767.491" y="118.5" width="58.0096" height="58.0096" stroke="#ACACAC"/>
<rect x="692.596" y="118.5" width="60.2452" height="58.0096" fill="white"/>
<rect x="692.596" y="118.5" width="60.2452" height="58.0096" stroke="#ACACAC"/>
<rect x="546.159" y="118.5" width="60.2452" height="58.0096" fill="white"/>
<rect x="546.159" y="118.5" width="60.2452" height="58.0096" stroke="#ACACAC"/>
<rect x="473.5" y="264.936" width="58.0096" height="59.1274" fill="white"/>
<rect x="473.5" y="264.936" width="58.0096" height="59.1274" stroke="#ACACAC"/>
<rect x="473.5" y="337.596" width="58.0096" height="59.1274" fill="white"/>
<rect x="473.5" y="337.596" width="58.0096" height="59.1274" stroke="#ACACAC"/>
<rect x="767.491" y="337.596" width="58.0096" height="59.1274" fill="white"/>
<rect x="767.491" y="337.596" width="58.0096" height="59.1274" stroke="#ACACAC"/>
<rect x="692.596" y="337.596" width="60.2452" height="59.1274" fill="white"/>
<rect x="692.596" y="337.596" width="60.2452" height="59.1274" stroke="#ACACAC"/>
<rect x="619.936" y="337.596" width="59.1274" height="59.1274" fill="white"/>
<rect x="619.936" y="337.596" width="59.1274" height="59.1274" stroke="#ACACAC"/>
<rect x="546.159" y="337.596" width="60.2452" height="59.1274" fill="white"/>
<rect x="546.159" y="337.596" width="60.2452" height="59.1274" stroke="#ACACAC"/>
<rect x="619.936" y="264.936" width="59.1274" height="59.1274" fill="white"/>
<rect x="619.936" y="264.936" width="59.1274" height="59.1274" stroke="#ACACAC"/>
<rect x="767.491" y="264.936" width="58.0096" height="59.1274" fill="white"/>
<rect x="767.491" y="264.936" width="58.0096" height="59.1274" stroke="#ACACAC"/>
<rect x="692.596" y="264.936" width="60.2452" height="59.1274" fill="white"/>
<rect x="692.596" y="264.936" width="60.2452" height="59.1274" stroke="#ACACAC"/>
<rect x="546.159" y="264.936" width="60.2452" height="59.1274" fill="white"/>
<rect x="546.159" y="264.936" width="60.2452" height="59.1274" stroke="#ACACAC"/>
<rect x="473.5" y="410.255" width="58.0096" height="59.1274" fill="white"/>
<rect x="473.5" y="410.255" width="58.0096" height="59.1274" stroke="#ACACAC"/>
<rect x="473.5" y="484.032" width="58.0096" height="59.1274" fill="white"/>
<rect x="473.5" y="484.032" width="58.0096" height="59.1274" stroke="#ACACAC"/>
<rect x="767.491" y="484.032" width="58.0096" height="59.1274" fill="white"/>
<rect x="767.491" y="484.032" width="58.0096" height="59.1274" stroke="#ACACAC"/>
<rect x="692.596" y="484.032" width="60.2452" height="59.1274" fill="white"/>
<rect x="692.596" y="484.032" width="60.2452" height="59.1274" stroke="#ACACAC"/>
<rect x="619.936" y="484.032" width="59.1274" height="59.1274" fill="white"/>
<rect x="619.936" y="484.032" width="59.1274" height="59.1274" stroke="#ACACAC"/>
<rect x="546.159" y="484.032" width="60.2452" height="59.1274" fill="white"/>
<rect x="546.159" y="484.032" width="60.2452" height="59.1274" stroke="#ACACAC"/>
<rect x="619.936" y="410.255" width="59.1274" height="59.1274" fill="white"/>
<rect x="619.936" y="410.255" width="59.1274" height="59.1274" stroke="#ACACAC"/>
<rect x="767.491" y="410.255" width="58.0096" height="59.1274" fill="white"/>
<rect x="767.491" y="410.255" width="58.0096" height="59.1274" stroke="#ACACAC"/>
<rect x="692.596" y="410.255" width="60.2452" height="59.1274" fill="white"/>
<rect x="692.596" y="410.255" width="60.2452" height="59.1274" stroke="#ACACAC"/>
<rect x="546.159" y="410.255" width="60.2452" height="59.1274" fill="white"/>
<rect x="546.159" y="410.255" width="60.2452" height="59.1274" stroke="#ACACAC"/>
<rect x="405.008" y="668.821" width="41.2213" height="59.3587" rx="5" fill="#D2D5D8"/>
<rect x="517.04" y="667.42" width="41.2213" height="59.3587" rx="5" fill="#D2D5D8"/>
<rect x="573.055" y="667.42" width="41.2213" height="59.3587" rx="5" fill="#D2D5D8"/>
<rect x="629.071" y="667.42" width="41.2213" height="59.3587" rx="5" fill="#D2D5D8"/>
<rect x="685.087" y="667.42" width="41.2213" height="59.3587" rx="5" fill="#D2D5D8"/>
<rect x="741.103" y="668.821" width="41.2213" height="59.3587" rx="5" fill="#D2D5D8"/>
<rect x="797.119" y="667.42" width="41.2213" height="59.3587" rx="5" fill="#D2D5D8"/>
<rect x="853.135" y="667.42" width="41.2213" height="59.3587" rx="5" fill="#D2D5D8"/>
<rect x="797.119" y="741.641" width="41.2213" height="59.3587" rx="5" fill="#D2D5D8"/>
<rect x="461.024" y="668.821" width="41.2213" height="59.3587" rx="5" fill="#D2D5D8"/>
<rect x="461.024" y="741.641" width="41.2213" height="59.3587" rx="5" fill="#D2D5D8"/>
<rect x="517.04" y="741.641" width="41.2213" height="59.3587" rx="5" fill="#D2D5D8"/>
<rect x="573.055" y="741.641" width="41.2213" height="59.3587" rx="5" fill="#D2D5D8"/>
<rect x="629.071" y="741.641" width="41.2213" height="59.3587" rx="5" fill="#D2D5D8"/>
<rect x="685.087" y="741.641" width="41.2213" height="59.3587" rx="5" fill="#D2D5D8"/>
<rect x="741.103" y="741.641" width="41.2213" height="59.3587" rx="5" fill="#D2D5D8"/>
<rect x="377" y="596" width="41.2213" height="59.3587" rx="5" fill="#D2D5D8"/>
<rect x="433.016" y="596" width="41.2213" height="59.3587" rx="5" fill="#D2D5D8"/>
<rect x="489.032" y="596" width="41.2213" height="59.3587" rx="5" fill="#D2D5D8"/>
<rect x="545.048" y="596" width="41.2213" height="59.3587" rx="5" fill="#D2D5D8"/>
<rect x="601.063" y="596" width="41.2213" height="59.3587" rx="5" fill="#D2D5D8"/>
<rect x="657.079" y="596" width="41.2213" height="59.3587" rx="5" fill="#D2D5D8"/>
<rect x="713.095" y="596" width="41.2213" height="59.3587" rx="5" fill="#D2D5D8"/>
<rect x="769.111" y="597.4" width="41.2213" height="59.3587" rx="5" fill="#D2D5D8"/>
<rect x="825.127" y="597.4" width="41.2213" height="59.3587" rx="5" fill="#D2D5D8"/>
<rect x="881.143" y="597.4" width="41.2213" height="59.3587" rx="5" fill="#D2D5D8"/>
<path d="M397.151 628.557H398.345L399.051 629.473L399.556 630.07L400.767 631.625H399.488L398.664 630.581L398.313 630.084L397.151 628.557ZM400.941 627.364C400.941 628.147 400.794 628.818 400.5 629.377C400.209 629.933 399.811 630.36 399.307 630.656C398.805 630.951 398.236 631.099 397.599 631.099C396.962 631.099 396.392 630.951 395.887 630.656C395.385 630.357 394.988 629.93 394.694 629.374C394.403 628.815 394.257 628.145 394.257 627.364C394.257 626.58 394.403 625.91 394.694 625.354C394.988 624.795 395.385 624.368 395.887 624.072C396.392 623.776 396.962 623.628 397.599 623.628C398.236 623.628 398.805 623.776 399.307 624.072C399.811 624.368 400.209 624.795 400.5 625.354C400.794 625.91 400.941 626.58 400.941 627.364ZM399.616 627.364C399.616 626.812 399.53 626.347 399.357 625.968C399.186 625.587 398.95 625.299 398.647 625.105C398.343 624.909 397.994 624.81 397.599 624.81C397.204 624.81 396.854 624.909 396.551 625.105C396.248 625.299 396.01 625.587 395.838 625.968C395.667 626.347 395.582 626.812 395.582 627.364C395.582 627.915 395.667 628.382 395.838 628.763C396.01 629.142 396.248 629.429 396.551 629.626C396.854 629.82 397.204 629.917 397.599 629.917C397.994 629.917 398.343 629.82 398.647 629.626C398.95 629.429 399.186 629.142 399.357 628.763C399.53 628.382 399.616 627.915 399.616 627.364Z" fill="black"/>
<path d="M450.916 631L448.863 623.727H450.28L451.591 629.072H451.658L453.057 623.727H454.346L455.749 629.075H455.813L457.123 623.727H458.54L456.488 631H455.188L453.732 625.897H453.675L452.216 631H450.916Z" fill="black"/>
<path d="M814.188 769.727H815.8L817.959 774.997H818.045L820.204 769.727H821.816V777H820.552V772.004H820.484L818.474 776.979H817.53L815.52 771.993H815.452V777H814.188V769.727Z" fill="black"/>
<path d="M764.589 769.727V777H763.418L759.991 772.046H759.93V777H758.613V769.727H759.792L763.215 774.685H763.279V769.727H764.589Z" fill="black"/>
<path d="M703.333 777V769.727H706.117C706.642 769.727 707.079 769.81 707.427 769.976C707.777 770.139 708.039 770.363 708.212 770.647C708.387 770.931 708.475 771.253 708.475 771.613C708.475 771.909 708.418 772.162 708.304 772.373C708.191 772.581 708.038 772.75 707.846 772.881C707.654 773.011 707.44 773.104 707.203 773.161V773.232C707.461 773.246 707.709 773.326 707.946 773.47C708.185 773.612 708.38 773.813 708.531 774.074C708.683 774.334 708.759 774.649 708.759 775.018C708.759 775.395 708.668 775.733 708.485 776.034C708.303 776.332 708.028 776.568 707.661 776.741C707.294 776.914 706.833 777 706.276 777H703.333ZM704.65 775.899H706.067C706.545 775.899 706.89 775.808 707.1 775.626C707.313 775.441 707.42 775.204 707.42 774.915C707.42 774.7 707.367 774.506 707.26 774.333C707.154 774.158 707.002 774.021 706.806 773.921C706.609 773.819 706.375 773.768 706.102 773.768H704.65V775.899ZM704.65 772.82H705.953C706.181 772.82 706.385 772.779 706.568 772.696C706.75 772.611 706.893 772.491 706.997 772.337C707.104 772.181 707.157 771.996 707.157 771.783C707.157 771.502 707.058 771.27 706.859 771.087C706.662 770.905 706.37 770.814 705.982 770.814H704.65V772.82Z" fill="black"/>
<path d="M646.674 769.727L648.567 775.452H648.641L650.53 769.727H651.979L649.415 777H647.789L645.228 769.727H646.674Z" fill="black"/>
<path d="M596.828 772.181H595.5C595.462 771.963 595.392 771.77 595.291 771.602C595.189 771.432 595.062 771.287 594.911 771.169C594.759 771.051 594.586 770.962 594.392 770.903C594.2 770.841 593.993 770.81 593.771 770.81C593.375 770.81 593.025 770.91 592.72 771.109C592.414 771.305 592.175 771.594 592.002 771.975C591.829 772.354 591.743 772.817 591.743 773.364C591.743 773.92 591.829 774.389 592.002 774.77C592.177 775.149 592.417 775.435 592.72 775.629C593.025 775.821 593.374 775.917 593.767 775.917C593.985 775.917 594.189 775.888 594.378 775.832C594.57 775.772 594.741 775.686 594.893 775.572C595.047 775.459 595.176 775.319 595.28 775.153C595.386 774.988 595.46 774.798 595.5 774.585L596.828 774.592C596.779 774.938 596.671 775.262 596.505 775.565C596.342 775.868 596.127 776.136 595.862 776.368C595.597 776.598 595.287 776.777 594.932 776.908C594.577 777.036 594.183 777.099 593.749 777.099C593.11 777.099 592.54 776.951 592.038 776.656C591.536 776.36 591.141 775.932 590.852 775.374C590.563 774.815 590.418 774.145 590.418 773.364C590.418 772.58 590.564 771.91 590.855 771.354C591.146 770.795 591.543 770.368 592.045 770.072C592.547 769.776 593.115 769.628 593.749 769.628C594.154 769.628 594.531 769.685 594.879 769.798C595.227 769.912 595.537 770.079 595.809 770.299C596.081 770.517 596.305 770.784 596.48 771.102C596.658 771.416 596.774 771.776 596.828 772.181Z" fill="black"/>
<path d="M536.267 769.727L537.869 772.391H537.926L539.534 769.727H541.037L538.796 773.364L541.072 777H539.545L537.926 774.354H537.869L536.25 777H534.73L537.027 773.364L534.758 769.727H536.267Z" fill="black"/>
<path d="M479.222 777V776.18L482.951 770.832H479.201V769.727H484.584V770.548L480.859 775.896H484.606V777H479.222Z" fill="black"/>
<path d="M872.086 703V695.727H873.404V701.896H876.607V703H872.086Z" fill="black"/>
<path d="M815.235 703V695.727H816.552V699.069H816.641L819.479 695.727H821.087L818.275 698.991L821.112 703H819.528L817.359 699.882L816.552 700.834V703H815.235Z" fill="black"/>
<path d="M762.985 695.727H764.292V700.841C764.29 701.31 764.19 701.713 763.994 702.052C763.797 702.388 763.523 702.647 763.17 702.83C762.819 703.009 762.411 703.099 761.945 703.099C761.518 703.099 761.135 703.024 760.794 702.872C760.456 702.718 760.187 702.491 759.988 702.19C759.789 701.89 759.69 701.516 759.69 701.068H761C761.002 701.265 761.045 701.434 761.128 701.576C761.213 701.718 761.33 701.827 761.479 701.903C761.629 701.978 761.8 702.016 761.994 702.016C762.205 702.016 762.384 701.973 762.531 701.885C762.677 701.795 762.789 701.662 762.864 701.487C762.942 701.312 762.983 701.097 762.985 700.841V695.727Z" fill="black"/>
<path d="M702.598 703V695.727H703.916V698.806H707.286V695.727H708.607V703H707.286V699.911H703.916V703H702.598Z" fill="black"/>
<path d="M650.417 698.05C650.357 697.858 650.276 697.686 650.172 697.535C650.07 697.381 649.947 697.25 649.802 697.141C649.66 697.032 649.497 696.95 649.312 696.896C649.128 696.839 648.926 696.81 648.709 696.81C648.318 696.81 647.97 696.909 647.665 697.105C647.359 697.302 647.119 697.59 646.944 697.972C646.771 698.35 646.684 698.812 646.684 699.357C646.684 699.906 646.771 700.371 646.944 700.752C647.116 701.133 647.357 701.423 647.665 701.622C647.972 701.819 648.33 701.917 648.737 701.917C649.106 701.917 649.426 701.846 649.696 701.704C649.968 701.562 650.178 701.361 650.324 701.1C650.471 700.837 650.545 700.53 650.545 700.177L650.843 700.223H648.868V699.193H651.819V700.067C651.819 700.689 651.687 701.228 651.422 701.683C651.156 702.137 650.792 702.487 650.328 702.734C649.864 702.978 649.331 703.099 648.73 703.099C648.06 703.099 647.472 702.949 646.965 702.648C646.461 702.345 646.067 701.916 645.782 701.359C645.501 700.801 645.36 700.138 645.36 699.371C645.36 698.784 645.443 698.259 645.608 697.798C645.777 697.336 646.011 696.944 646.312 696.622C646.612 696.298 646.965 696.052 647.37 695.884C647.775 695.713 648.215 695.628 648.691 695.628C649.093 695.628 649.469 695.687 649.817 695.805C650.165 695.921 650.473 696.087 650.743 696.303C651.016 696.518 651.239 696.774 651.415 697.07C651.59 697.366 651.705 697.692 651.759 698.05H650.417Z" fill="black"/>
<path d="M591.989 703V695.727H596.648V696.832H593.306V698.806H596.328V699.911H593.306V703H591.989Z" fill="black"/>
<path d="M537.16 703H534.696V695.727H537.21C537.932 695.727 538.552 695.873 539.071 696.164C539.592 696.453 539.992 696.868 540.271 697.411C540.551 697.953 540.69 698.601 540.69 699.357C540.69 700.114 540.549 700.765 540.268 701.31C539.988 701.854 539.585 702.272 539.057 702.563C538.531 702.854 537.899 703 537.16 703ZM536.013 701.86H537.096C537.603 701.86 538.026 701.768 538.364 701.583C538.703 701.396 538.957 701.118 539.128 700.749C539.298 700.377 539.383 699.913 539.383 699.357C539.383 698.8 539.298 698.339 539.128 697.972C538.957 697.602 538.705 697.326 538.371 697.144C538.04 696.96 537.628 696.867 537.135 696.867H536.013V701.86Z" fill="black"/>
<path d="M483.324 697.727C483.291 697.416 483.151 697.175 482.905 697.002C482.661 696.829 482.344 696.743 481.953 696.743C481.679 696.743 481.443 696.784 481.247 696.867C481.05 696.95 480.9 697.062 480.796 697.205C480.691 697.347 480.638 697.509 480.636 697.691C480.636 697.843 480.67 697.974 480.739 698.085C480.81 698.196 480.906 698.291 481.026 698.369C481.147 698.445 481.281 698.509 481.428 698.561C481.575 698.613 481.722 698.657 481.872 698.692L482.553 698.863C482.828 698.927 483.092 699.013 483.345 699.122C483.601 699.231 483.83 699.368 484.031 699.534C484.234 699.7 484.395 699.9 484.514 700.134C484.632 700.369 484.691 700.643 484.691 700.958C484.691 701.384 484.582 701.759 484.365 702.084C484.147 702.406 483.832 702.658 483.42 702.84C483.01 703.02 482.514 703.11 481.932 703.11C481.366 703.11 480.875 703.022 480.458 702.847C480.044 702.672 479.72 702.416 479.485 702.08C479.253 701.744 479.128 701.335 479.109 700.852H480.405C480.424 701.105 480.502 701.316 480.639 701.484C480.777 701.652 480.955 701.777 481.176 701.86C481.398 701.943 481.647 701.984 481.921 701.984C482.208 701.984 482.459 701.942 482.674 701.857C482.892 701.769 483.062 701.648 483.186 701.494C483.309 701.338 483.371 701.156 483.374 700.947C483.371 700.758 483.316 700.602 483.207 700.479C483.098 700.353 482.945 700.249 482.749 700.166C482.555 700.081 482.327 700.005 482.067 699.939L481.24 699.726C480.641 699.572 480.167 699.339 479.819 699.026C479.473 698.711 479.301 698.294 479.301 697.773C479.301 697.344 479.417 696.969 479.649 696.647C479.883 696.325 480.201 696.075 480.604 695.898C481.006 695.718 481.462 695.628 481.971 695.628C482.487 695.628 482.939 695.718 483.328 695.898C483.718 696.075 484.025 696.323 484.247 696.64C484.47 696.955 484.585 697.317 484.592 697.727H483.324Z" fill="black"/>
<path d="M423.635 703H422.228L424.789 695.727H426.415L428.979 703H427.573L425.63 697.219H425.574L423.635 703ZM423.681 700.148H427.516V701.207H423.681V700.148Z" fill="black"/>
<path d="M899.401 631V623.727H902.128C902.687 623.727 903.156 623.831 903.534 624.04C903.916 624.248 904.203 624.535 904.397 624.899C904.594 625.261 904.692 625.673 904.692 626.135C904.692 626.601 904.594 627.016 904.397 627.378C904.201 627.74 903.911 628.025 903.527 628.234C903.144 628.44 902.672 628.543 902.11 628.543H900.303V627.46H901.933C902.26 627.46 902.527 627.403 902.735 627.289C902.944 627.175 903.098 627.019 903.197 626.82C903.299 626.621 903.35 626.393 903.35 626.135C903.35 625.877 903.299 625.65 903.197 625.453C903.098 625.257 902.943 625.104 902.732 624.995C902.524 624.884 902.255 624.828 901.926 624.828H900.718V631H899.401Z" fill="black"/>
<path d="M848.945 627.364C848.945 628.147 848.799 628.818 848.505 629.377C848.214 629.933 847.816 630.36 847.312 630.656C846.81 630.951 846.241 631.099 845.604 631.099C844.967 631.099 844.396 630.951 843.892 630.656C843.39 630.357 842.993 629.93 842.699 629.374C842.408 628.815 842.262 628.145 842.262 627.364C842.262 626.58 842.408 625.91 842.699 625.354C842.993 624.795 843.39 624.368 843.892 624.072C844.396 623.776 844.967 623.628 845.604 623.628C846.241 623.628 846.81 623.776 847.312 624.072C847.816 624.368 848.214 624.795 848.505 625.354C848.799 625.91 848.945 626.58 848.945 627.364ZM847.621 627.364C847.621 626.812 847.534 626.347 847.362 625.968C847.191 625.587 846.954 625.299 846.651 625.105C846.348 624.909 845.999 624.81 845.604 624.81C845.208 624.81 844.859 624.909 844.556 625.105C844.253 625.299 844.015 625.587 843.842 625.968C843.672 626.347 843.587 626.812 843.587 627.364C843.587 627.915 843.672 628.382 843.842 628.763C844.015 629.142 844.253 629.429 844.556 629.626C844.859 629.82 845.208 629.917 845.604 629.917C845.999 629.917 846.348 629.82 846.651 629.626C846.954 629.429 847.191 629.142 847.362 628.763C847.534 628.382 847.621 627.915 847.621 627.364Z" fill="black"/>
<path d="M789.763 623.727V631H788.446V623.727H789.763Z" fill="black"/>
<path d="M735.236 623.727H736.554V628.479C736.554 629 736.431 629.458 736.185 629.853C735.941 630.248 735.597 630.557 735.155 630.78C734.712 631 734.195 631.11 733.603 631.11C733.009 631.11 732.49 631 732.048 630.78C731.605 630.557 731.262 630.248 731.018 629.853C730.774 629.458 730.652 629 730.652 628.479V623.727H731.969V628.369C731.969 628.672 732.036 628.942 732.168 629.178C732.303 629.415 732.493 629.601 732.736 629.736C732.98 629.868 733.269 629.935 733.603 629.935C733.937 629.935 734.226 629.868 734.469 629.736C734.716 629.601 734.905 629.415 735.038 629.178C735.17 628.942 735.236 628.672 735.236 628.369V623.727Z" fill="black"/>
<path d="M675.301 623.727H676.789L678.568 626.945H678.639L680.418 623.727H681.906L679.261 628.287V631H677.947V628.287L675.301 623.727Z" fill="black"/>
<path d="M618.998 624.832V623.727H624.801V624.832H622.553V631H621.246V624.832H618.998Z" fill="black"/>
<path d="M563.367 631V623.727H566.094C566.653 623.727 567.121 623.824 567.5 624.018C567.881 624.213 568.169 624.485 568.363 624.835C568.56 625.183 568.658 625.589 568.658 626.053C568.658 626.52 568.559 626.924 568.36 627.268C568.163 627.609 567.873 627.873 567.49 628.06C567.106 628.244 566.635 628.337 566.076 628.337H564.134V627.243H565.899C566.225 627.243 566.493 627.198 566.701 627.108C566.91 627.016 567.063 626.882 567.163 626.707C567.265 626.529 567.316 626.311 567.316 626.053C567.316 625.795 567.265 625.575 567.163 625.393C567.061 625.208 566.906 625.068 566.698 624.974C566.489 624.877 566.221 624.828 565.892 624.828H564.684V631H563.367ZM567.124 627.705L568.924 631H567.454L565.686 627.705H567.124Z" fill="black"/>
<path d="M507.582 631V623.727H512.312V624.832H508.899V626.806H512.067V627.911H508.899V629.896H512.34V631H507.582Z" fill="black"/>
<rect x="377" y="741.407" width="69.1279" height="59.593" rx="5" fill="#D2D5D8"/>
<rect x="853.744" y="741.407" width="69.1279" height="59.593" rx="5" fill="#D2D5D8"/>
<path d="M396.07 777V769.727H400.8V770.832H397.387V772.806H400.555V773.911H397.387V775.896H400.829V777H396.07ZM408.111 769.727V777H406.939L403.512 772.046H403.452V777H402.134V769.727H403.313L406.737 774.685H406.8V769.727H408.111ZM409.217 770.832V769.727H415.019V770.832H412.771V777H411.465V770.832H409.217ZM416.128 777V769.727H420.858V770.832H417.445V772.806H420.613V773.911H417.445V775.896H420.886V777H416.128ZM422.192 777V769.727H424.919C425.478 769.727 425.947 769.824 426.326 770.018C426.707 770.213 426.994 770.485 427.189 770.835C427.385 771.183 427.483 771.589 427.483 772.053C427.483 772.52 427.384 772.924 427.185 773.268C426.989 773.609 426.699 773.873 426.315 774.06C425.931 774.244 425.46 774.337 424.902 774.337H422.959V773.243H424.724C425.051 773.243 425.318 773.198 425.527 773.108C425.735 773.016 425.889 772.882 425.988 772.707C426.09 772.529 426.141 772.311 426.141 772.053C426.141 771.795 426.09 771.575 425.988 771.393C425.886 771.208 425.731 771.068 425.523 770.974C425.315 770.877 425.046 770.828 424.717 770.828H423.51V777H422.192ZM425.949 773.705L427.75 777H426.279L424.511 773.705H425.949Z" fill="black"/>
<path d="M882.553 774.624V773.602L887.411 771.357V772.618L883.96 774.099L883.999 774.031V774.195L883.96 774.127L887.411 775.608V776.869L882.553 774.624ZM889.272 774.624V773.602L894.13 771.357V772.618L890.678 774.099L890.717 774.031V774.195L890.678 774.127L894.13 775.608V776.869L889.272 774.624Z" fill="black"/>
</g>
<defs>
<filter id="filter0_d_1269_317" x="-4" y="0" width="1308" height="83" filterUnits="userSpaceOnUse" color-interpolation-filters="sRGB">
<feFlood flood-opacity="0" result="BackgroundImageFix"/>
<feColorMatrix in="SourceAlpha" type="matrix" values="0 0 0 0 0 0 0 0 0 0 0 0 0 0 0 0 0 0 127 0" result="hardAlpha"/>
<feOffset dy="4"/>
<feGaussianBlur stdDeviation="2"/>
<feComposite in2="hardAlpha" operator="out"/>
<feColorMatrix type="matrix" values="0 0 0 0 0 0 0 0 0 0 0 0 0 0 0 0 0 0 0.1 0"/>
<feBlend mode="normal" in2="BackgroundImageFix" result="effect1_dropShadow_1269_317"/>
<feBlend mode="normal" in="SourceGraphic" in2="effect1_dropShadow_1269_317" result="shape"/>
</filter>
<clipPath id="clip0_1269_317">
<rect width="1300" height="850" fill="white"/>
</clipPath>
</defs>
</svg>
