<svg width="1301" height="2643" viewBox="0 0 1285 2643" fill="none" xmlns="http://www.w3.org/2000/svg">
<rect x="1" width="1280" height="2642" rx="210" fill="black"/>
<rect x="12.5" y="11.5" width="1257" height="2619" rx="198.5" stroke="#565553" stroke-width="13"/>
<rect x="3.5" y="2.5" width="1275" height="2637" rx="207.5" stroke="#3F3E3B" stroke-width="5"/>
<g opacity="0.9" filter="url(#filter0_f_1273_459)">
<rect x="6" y="6" width="1270" height="2631" rx="206" stroke="#31302E" stroke-width="5"/>
</g>
<g opacity="0.8" filter="url(#filter1_f_1273_459)">
<rect x="23" y="22" width="1236" height="2598" rx="188" stroke="#646464" stroke-width="2"/>
</g>
<path d="M54 224H1228V2434C1228 2516.84 1160.84 2584 1078 2584H204C121.157 2584 54 2516.84 54 2434V224Z" fill="white"/>
<path d="M529.6 323.455C529.174 319.856 527.445 317.062 524.415 315.074C521.385 313.085 517.668 312.091 513.265 312.091C510.045 312.091 507.228 312.612 504.813 313.653C502.422 314.695 500.551 316.127 499.202 317.95C497.876 319.773 497.213 321.845 497.213 324.165C497.213 326.106 497.675 327.775 498.598 329.172C499.545 330.545 500.753 331.693 502.221 332.616C503.688 333.516 505.227 334.262 506.837 334.854C508.447 335.422 509.926 335.884 511.276 336.239L518.662 338.227C520.556 338.724 522.663 339.411 524.983 340.287C527.327 341.163 529.564 342.358 531.695 343.874C533.849 345.365 535.625 347.283 537.022 349.626C538.418 351.97 539.117 354.847 539.117 358.256C539.117 362.186 538.087 365.737 536.027 368.909C533.991 372.081 531.008 374.603 527.078 376.473C523.172 378.343 518.426 379.278 512.838 379.278C507.63 379.278 503.12 378.438 499.309 376.757C495.521 375.076 492.538 372.732 490.36 369.726C488.205 366.719 486.986 363.227 486.702 359.25H495.793C496.03 361.996 496.953 364.269 498.563 366.068C500.196 367.844 502.256 369.17 504.742 370.045C507.251 370.898 509.95 371.324 512.838 371.324C516.2 371.324 519.219 370.779 521.894 369.69C524.569 368.578 526.688 367.039 528.25 365.074C529.813 363.085 530.594 360.765 530.594 358.114C530.594 355.699 529.919 353.734 528.57 352.219C527.221 350.704 525.445 349.473 523.243 348.526C521.042 347.579 518.662 346.75 516.105 346.04L507.157 343.483C501.475 341.849 496.977 339.518 493.662 336.487C490.348 333.457 488.691 329.491 488.691 324.591C488.691 320.519 489.792 316.968 491.993 313.938C494.219 310.884 497.202 308.516 500.942 306.835C504.706 305.131 508.908 304.278 513.549 304.278C518.236 304.278 522.403 305.119 526.049 306.8C529.694 308.457 532.583 310.73 534.713 313.618C536.868 316.506 538.004 319.785 538.123 323.455H529.6ZM552.45 378V323.455H560.831V378H552.45ZM556.712 314.364C555.078 314.364 553.669 313.807 552.486 312.695C551.326 311.582 550.746 310.244 550.746 308.682C550.746 307.119 551.326 305.782 552.486 304.669C553.669 303.556 555.078 303 556.712 303C558.345 303 559.742 303.556 560.902 304.669C562.086 305.782 562.677 307.119 562.677 308.682C562.677 310.244 562.086 311.582 560.902 312.695C559.742 313.807 558.345 314.364 556.712 314.364ZM598.188 399.591C594.139 399.591 590.659 399.07 587.747 398.028C584.835 397.01 582.409 395.661 580.468 393.98C578.55 392.323 577.023 390.547 575.887 388.653L582.563 383.966C583.32 384.96 584.279 386.097 585.439 387.375C586.599 388.677 588.185 389.802 590.198 390.749C592.234 391.719 594.897 392.205 598.188 392.205C602.591 392.205 606.225 391.139 609.09 389.009C611.954 386.878 613.387 383.54 613.387 378.994V367.915H612.676C612.061 368.909 611.185 370.14 610.049 371.608C608.936 373.052 607.326 374.342 605.219 375.479C603.136 376.591 600.318 377.148 596.767 377.148C592.364 377.148 588.41 376.106 584.906 374.023C581.426 371.939 578.668 368.909 576.632 364.932C574.62 360.955 573.614 356.125 573.614 350.443C573.614 344.856 574.596 339.991 576.561 335.848C578.526 331.681 581.261 328.462 584.764 326.189C588.268 323.893 592.317 322.744 596.909 322.744C600.46 322.744 603.278 323.336 605.361 324.52C607.468 325.68 609.078 327.006 610.191 328.497C611.327 329.965 612.203 331.172 612.818 332.119H613.671V323.455H621.767V379.562C621.767 384.25 620.702 388.062 618.571 390.997C616.464 393.956 613.623 396.123 610.049 397.496C606.497 398.893 602.544 399.591 598.188 399.591ZM597.904 369.619C601.265 369.619 604.106 368.85 606.426 367.311C608.746 365.772 610.51 363.559 611.718 360.67C612.925 357.782 613.529 354.326 613.529 350.301C613.529 346.371 612.937 342.903 611.753 339.896C610.569 336.89 608.817 334.534 606.497 332.83C604.177 331.125 601.313 330.273 597.904 330.273C594.353 330.273 591.393 331.172 589.026 332.972C586.682 334.771 584.918 337.186 583.735 340.216C582.575 343.246 581.995 346.608 581.995 350.301C581.995 354.089 582.586 357.439 583.77 360.351C584.978 363.239 586.753 365.512 589.097 367.169C591.464 368.803 594.4 369.619 597.904 369.619ZM645.479 345.188V378H637.098V323.455H645.195V331.977H645.905C647.183 329.207 649.125 326.982 651.729 325.301C654.333 323.597 657.695 322.744 661.814 322.744C665.507 322.744 668.739 323.502 671.509 325.017C674.279 326.509 676.433 328.781 677.972 331.835C679.511 334.866 680.28 338.701 680.28 343.341V378H671.899V343.909C671.899 339.624 670.787 336.286 668.561 333.895C666.336 331.48 663.282 330.273 659.399 330.273C656.724 330.273 654.333 330.853 652.226 332.013C650.143 333.173 648.497 334.866 647.29 337.091C646.083 339.316 645.479 342.015 645.479 345.188ZM733.642 305.273V378H724.836V305.273H733.642ZM758.535 345.188V378H750.154V323.455H758.251V331.977H758.961C760.239 329.207 762.181 326.982 764.785 325.301C767.389 323.597 770.751 322.744 774.87 322.744C778.563 322.744 781.795 323.502 784.565 325.017C787.335 326.509 789.489 328.781 791.028 331.835C792.567 334.866 793.336 338.701 793.336 343.341V378H784.955V343.909C784.955 339.624 783.843 336.286 781.617 333.895C779.392 331.48 776.338 330.273 772.455 330.273C769.78 330.273 767.389 330.853 765.282 332.013C763.199 333.173 761.553 334.866 760.346 337.091C759.139 339.316 758.535 342.015 758.535 345.188Z" fill="black"/>
<path d="M529.6 323.455L528.607 323.572L528.711 324.455H529.6V323.455ZM524.415 315.074L523.866 315.91L523.866 315.91L524.415 315.074ZM504.813 313.653L504.417 312.735L504.413 312.737L504.813 313.653ZM499.202 317.95L498.398 317.355L498.393 317.362L499.202 317.95ZM498.598 329.172L497.764 329.723L497.77 329.732L497.775 329.74L498.598 329.172ZM502.221 332.616L501.688 333.463L501.698 333.469L502.221 332.616ZM506.837 334.854L506.492 335.792L506.504 335.797L506.837 334.854ZM511.276 336.239L511.536 335.273L511.53 335.272L511.276 336.239ZM518.662 338.227L518.402 339.193L518.408 339.195L518.662 338.227ZM524.983 340.287L524.63 341.222L524.633 341.224L524.983 340.287ZM531.695 343.874L531.115 344.689L531.126 344.696L531.695 343.874ZM537.022 349.626L537.881 349.114L537.881 349.114L537.022 349.626ZM536.027 368.909L535.189 368.365L535.186 368.369L536.027 368.909ZM527.078 376.473L526.649 375.57L526.647 375.571L527.078 376.473ZM499.309 376.757L498.903 377.671L498.905 377.672L499.309 376.757ZM490.36 369.726L489.547 370.308L489.55 370.313L490.36 369.726ZM486.702 359.25V358.25H485.628L485.705 359.321L486.702 359.25ZM495.793 359.25L496.789 359.164L496.71 358.25H495.793V359.25ZM498.563 366.068L497.818 366.735L497.827 366.745L498.563 366.068ZM504.742 370.045L504.409 370.989L504.42 370.992L504.742 370.045ZM521.894 369.69L522.271 370.617L522.278 370.614L521.894 369.69ZM528.25 365.074L529.033 365.696L529.037 365.692L528.25 365.074ZM528.57 352.219L529.317 351.554L529.317 351.554L528.57 352.219ZM523.243 348.526L522.848 349.444L522.848 349.444L523.243 348.526ZM516.105 346.04L515.831 347.001L515.838 347.003L516.105 346.04ZM507.157 343.483L506.88 344.444L506.882 344.444L507.157 343.483ZM493.662 336.487L492.988 337.225L492.988 337.225L493.662 336.487ZM491.993 313.938L491.185 313.349L491.184 313.35L491.993 313.938ZM500.942 306.835L501.352 307.747L501.355 307.746L500.942 306.835ZM526.049 306.8L525.63 307.708L525.635 307.71L526.049 306.8ZM534.713 313.618L533.909 314.212L533.912 314.216L534.713 313.618ZM538.123 323.455V324.455H539.155L539.122 323.422L538.123 323.455ZM530.593 323.337C530.132 319.445 528.241 316.388 524.964 314.238L523.866 315.91C526.65 317.737 528.215 320.267 528.607 323.572L530.593 323.337ZM524.964 314.238C521.738 312.121 517.821 311.091 513.265 311.091V313.091C517.515 313.091 521.031 314.049 523.866 315.91L524.964 314.238ZM513.265 311.091C509.938 311.091 506.981 311.629 504.417 312.735L505.209 314.572C507.474 313.595 510.151 313.091 513.265 313.091V311.091ZM504.413 312.737C501.886 313.838 499.867 315.372 498.398 317.355L500.006 318.545C501.236 316.883 502.957 315.553 505.212 314.57L504.413 312.737ZM498.393 317.362C496.939 319.361 496.213 321.64 496.213 324.165H498.213C498.213 322.049 498.813 320.185 500.011 318.538L498.393 317.362ZM496.213 324.165C496.213 326.27 496.716 328.138 497.764 329.723L499.433 328.62C498.634 327.412 498.213 325.942 498.213 324.165H496.213ZM497.775 329.74C498.802 331.229 500.11 332.47 501.688 333.463L502.753 331.77C501.395 330.916 500.288 329.861 499.422 328.604L497.775 329.74ZM501.698 333.469C503.222 334.403 504.82 335.178 506.492 335.792L507.182 333.915C505.634 333.346 504.155 332.629 502.743 331.764L501.698 333.469ZM506.504 335.797C508.134 336.372 509.641 336.842 511.021 337.206L511.53 335.272C510.212 334.925 508.759 334.472 507.17 333.911L506.504 335.797ZM511.016 337.204L518.402 339.193L518.922 337.262L511.536 335.273L511.016 337.204ZM518.408 339.195C520.261 339.681 522.334 340.356 524.63 341.222L525.337 339.351C522.992 338.466 520.851 337.768 518.916 337.26L518.408 339.195ZM524.633 341.224C526.892 342.068 529.052 343.222 531.115 344.689L532.274 343.059C530.076 341.495 527.762 340.258 525.333 339.35L524.633 341.224ZM531.126 344.696C533.158 346.102 534.836 347.912 536.163 350.138L537.881 349.114C536.414 346.653 534.541 344.628 532.264 343.051L531.126 344.696ZM536.163 350.138C537.447 352.293 538.117 354.982 538.117 358.256H540.117C540.117 354.711 539.39 351.647 537.881 349.114L536.163 350.138ZM538.117 358.256C538.117 362 537.139 365.361 535.189 368.365L536.866 369.454C539.035 366.113 540.117 362.371 540.117 358.256H538.117ZM535.186 368.369C533.265 371.361 530.437 373.767 526.649 375.57L527.508 377.376C531.58 375.438 534.717 372.802 536.869 369.449L535.186 368.369ZM526.647 375.571C522.908 377.361 518.318 378.278 512.838 378.278V380.278C518.533 380.278 523.436 379.326 527.51 377.375L526.647 375.571ZM512.838 378.278C507.735 378.278 503.369 377.455 499.712 375.842L498.905 377.672C502.871 379.421 507.525 380.278 512.838 380.278V378.278ZM499.714 375.843C496.068 374.225 493.232 371.987 491.17 369.139L489.55 370.313C491.843 373.478 494.973 375.927 498.903 377.671L499.714 375.843ZM491.173 369.143C489.134 366.299 487.972 362.987 487.7 359.179L485.705 359.321C486.001 363.468 487.277 367.14 489.547 370.308L491.173 369.143ZM486.702 360.25H495.793V358.25H486.702V360.25ZM494.797 359.336C495.049 362.266 496.043 364.752 497.818 366.735L499.308 365.401C497.863 363.786 497.01 361.727 496.789 359.164L494.797 359.336ZM497.827 366.745C499.581 368.652 501.784 370.063 504.409 370.989L505.074 369.102C502.728 368.276 500.812 367.035 499.299 365.391L497.827 366.745ZM504.42 370.992C507.042 371.883 509.851 372.324 512.838 372.324V370.324C510.05 370.324 507.46 369.913 505.063 369.099L504.42 370.992ZM512.838 372.324C516.309 372.324 519.458 371.762 522.271 370.617L521.517 368.764C518.979 369.797 516.092 370.324 512.838 370.324V372.324ZM522.278 370.614C525.085 369.446 527.35 367.813 529.033 365.696L527.468 364.451C526.026 366.265 524.053 367.709 521.51 368.767L522.278 370.614ZM529.037 365.692C530.745 363.518 531.594 360.978 531.594 358.114H529.594C529.594 360.553 528.881 362.653 527.464 364.456L529.037 365.692ZM531.594 358.114C531.594 355.503 530.859 353.286 529.317 351.554L527.823 352.884C528.98 354.182 529.594 355.895 529.594 358.114H531.594ZM529.317 351.554C527.854 349.911 525.95 348.601 523.638 347.607L522.848 349.444C524.94 350.344 526.587 351.496 527.823 352.884L529.317 351.554ZM523.638 347.607C521.391 346.64 518.969 345.797 516.373 345.076L515.838 347.003C518.356 347.703 520.692 348.517 522.848 349.444L523.638 347.607ZM516.38 345.078L507.431 342.521L506.882 344.444L515.831 347.001L516.38 345.078ZM507.433 342.522C501.854 340.918 497.507 338.648 494.337 335.749L492.988 337.225C496.446 340.387 501.095 342.781 506.88 344.444L507.433 342.522ZM494.337 335.749C491.25 332.927 489.691 329.239 489.691 324.591H487.691C487.691 329.744 489.446 333.987 492.988 337.225L494.337 335.749ZM489.691 324.591C489.691 320.711 490.736 317.37 492.802 314.525L491.184 313.35C488.847 316.566 487.691 320.327 487.691 324.591H489.691ZM492.801 314.526C494.916 311.625 497.756 309.363 501.352 307.747L500.532 305.923C496.647 307.669 493.521 310.142 491.185 313.349L492.801 314.526ZM501.355 307.746C504.974 306.107 509.033 305.278 513.549 305.278V303.278C508.784 303.278 504.438 304.154 500.53 305.924L501.355 307.746ZM513.549 305.278C518.116 305.278 522.136 306.097 525.63 307.708L526.467 305.892C522.67 304.141 518.357 303.278 513.549 303.278V305.278ZM525.635 307.71C529.144 309.305 531.891 311.476 533.909 314.212L535.518 313.024C533.275 309.983 530.245 307.609 526.462 305.889L525.635 307.71ZM533.912 314.216C535.942 316.937 537.011 320.017 537.123 323.487L539.122 323.422C538.997 319.553 537.794 316.075 535.515 313.02L533.912 314.216ZM538.123 322.455H529.6V324.455H538.123V322.455ZM552.45 378H551.45V379H552.45V378ZM552.45 323.455V322.455H551.45V323.455H552.45ZM560.831 323.455H561.831V322.455H560.831V323.455ZM560.831 378V379H561.831V378H560.831ZM552.486 312.695L551.793 313.416L551.801 313.423L552.486 312.695ZM552.486 304.669L551.801 303.94L551.794 303.947L552.486 304.669ZM560.902 304.669L560.21 305.391L560.217 305.398L560.902 304.669ZM560.902 312.695L560.217 311.966L560.21 311.973L560.902 312.695ZM553.45 378V323.455H551.45V378H553.45ZM552.45 324.455H560.831V322.455H552.45V324.455ZM559.831 323.455V378H561.831V323.455H559.831ZM560.831 377H552.45V379H560.831V377ZM556.712 313.364C555.331 313.364 554.168 312.903 553.171 311.966L551.801 313.423C553.171 314.711 554.825 315.364 556.712 315.364V313.364ZM553.178 311.973C552.208 311.043 551.746 309.963 551.746 308.682H549.746C549.746 310.525 550.443 312.121 551.794 313.416L553.178 311.973ZM551.746 308.682C551.746 307.4 552.208 306.321 553.178 305.391L551.794 303.947C550.443 305.243 549.746 306.838 549.746 308.682H551.746ZM553.171 305.398C554.168 304.46 555.331 304 556.712 304V302C554.825 302 553.171 302.652 551.801 303.94L553.171 305.398ZM556.712 304C558.092 304 559.239 304.46 560.21 305.391L561.594 303.947C560.245 302.653 558.598 302 556.712 302V304ZM560.217 305.398C561.209 306.33 561.677 307.407 561.677 308.682H563.677C563.677 306.831 562.963 305.234 561.587 303.94L560.217 305.398ZM561.677 308.682C561.677 309.956 561.209 311.034 560.217 311.966L561.587 313.423C562.963 312.13 563.677 310.532 563.677 308.682H561.677ZM560.21 311.973C559.239 312.904 558.092 313.364 556.712 313.364V315.364C558.598 315.364 560.245 314.711 561.594 313.416L560.21 311.973ZM587.747 398.028L588.084 397.087L588.077 397.084L587.747 398.028ZM580.468 393.98L581.122 393.224L581.121 393.224L580.468 393.98ZM575.887 388.653L575.312 387.835L574.55 388.37L575.029 389.168L575.887 388.653ZM582.563 383.966L583.358 383.36L582.775 382.595L581.988 383.147L582.563 383.966ZM585.439 387.375L586.186 386.71L586.18 386.703L585.439 387.375ZM590.198 390.749L590.628 389.846L590.623 389.844L590.198 390.749ZM609.09 389.009L609.687 389.811L609.687 389.811L609.09 389.009ZM613.387 367.915H614.387V366.915H613.387V367.915ZM612.676 367.915V366.915H612.119L611.826 367.388L612.676 367.915ZM610.049 371.608L609.258 370.996L609.256 370.998L610.049 371.608ZM605.219 375.479L605.69 376.361L605.694 376.359L605.219 375.479ZM584.906 374.023L584.393 374.881L584.395 374.882L584.906 374.023ZM576.632 364.932L575.74 365.383L575.742 365.387L576.632 364.932ZM576.561 335.848L577.465 336.277L577.466 336.275L576.561 335.848ZM584.764 326.189L585.309 327.028L585.313 327.025L584.764 326.189ZM605.361 324.52L604.867 325.389L604.879 325.396L605.361 324.52ZM610.191 328.497L609.389 329.095L609.394 329.102L609.4 329.109L610.191 328.497ZM612.818 332.119L611.98 332.664L612.276 333.119H612.818V332.119ZM613.671 332.119V333.119H614.671V332.119H613.671ZM613.671 323.455V322.455H612.671V323.455H613.671ZM621.767 323.455H622.767V322.455H621.767V323.455ZM618.571 390.997L617.762 390.41L617.757 390.417L618.571 390.997ZM610.049 397.496L609.69 396.562L609.682 396.565L610.049 397.496ZM606.426 367.311L605.874 366.478L605.874 366.478L606.426 367.311ZM611.718 360.67L612.64 361.056L612.64 361.056L611.718 360.67ZM611.753 339.896L612.684 339.53L612.684 339.53L611.753 339.896ZM606.497 332.83L605.905 333.635L605.905 333.635L606.497 332.83ZM589.026 332.972L588.421 332.175L588.417 332.178L589.026 332.972ZM583.735 340.216L582.803 339.852L582.801 339.858L583.735 340.216ZM583.77 360.351L582.844 360.727L582.847 360.737L583.77 360.351ZM589.097 367.169L588.519 367.986L588.529 367.992L589.097 367.169ZM598.188 398.591C594.221 398.591 590.86 398.08 588.084 397.087L587.411 398.97C590.458 400.06 594.058 400.591 598.188 400.591V398.591ZM588.077 397.084C585.261 396.1 582.951 394.808 581.122 393.224L579.813 394.736C581.867 396.514 584.41 397.921 587.417 398.972L588.077 397.084ZM581.121 393.224C579.272 391.626 577.818 389.93 576.744 388.139L575.029 389.168C576.227 391.165 577.827 393.02 579.814 394.737L581.121 393.224ZM576.461 389.472L583.137 384.784L581.988 383.147L575.312 387.835L576.461 389.472ZM581.767 384.572C582.547 385.596 583.526 386.755 584.699 388.047L586.18 386.703C585.032 385.438 584.093 384.325 583.358 383.36L581.767 384.572ZM584.692 388.04C585.963 389.467 587.67 390.664 589.772 391.653L590.623 389.844C588.701 388.939 587.235 387.888 586.186 386.71L584.692 388.04ZM589.767 391.651C591.985 392.708 594.811 393.205 598.188 393.205V391.205C594.983 391.205 592.482 390.73 590.628 389.846L589.767 391.651ZM598.188 393.205C602.755 393.205 606.612 392.097 609.687 389.811L608.493 388.206C605.838 390.181 602.427 391.205 598.188 391.205V393.205ZM609.687 389.811C612.873 387.441 614.387 383.761 614.387 378.994H612.387C612.387 383.319 611.036 386.315 608.493 388.206L609.687 389.811ZM614.387 378.994V367.915H612.387V378.994H614.387ZM613.387 366.915H612.676V368.915H613.387V366.915ZM611.826 367.388C611.236 368.341 610.384 369.542 609.258 370.996L610.839 372.22C611.986 370.739 612.885 369.477 613.527 368.441L611.826 367.388ZM609.256 370.998C608.252 372.302 606.765 373.509 604.744 374.599L605.694 376.359C607.887 375.176 609.62 373.803 610.841 372.218L609.256 370.998ZM604.748 374.597C602.864 375.603 600.23 376.148 596.767 376.148V378.148C600.407 378.148 603.407 377.58 605.69 376.361L604.748 374.597ZM596.767 376.148C592.529 376.148 588.754 375.147 585.418 373.163L584.395 374.882C588.066 377.065 592.199 378.148 596.767 378.148V376.148ZM585.42 373.165C582.117 371.187 579.482 368.304 577.522 364.476L575.742 365.387C577.855 369.514 580.736 372.692 584.393 374.881L585.42 373.165ZM577.525 364.48C575.6 360.676 574.614 356.01 574.614 350.443H572.614C572.614 356.24 573.64 361.233 575.74 365.383L577.525 364.48ZM574.614 350.443C574.614 344.973 575.576 340.26 577.465 336.277L575.658 335.419C573.617 339.722 572.614 344.74 572.614 350.443H574.614ZM577.466 336.275C579.36 332.258 581.977 329.189 585.309 327.028L584.22 325.35C580.545 327.734 577.693 331.104 575.657 335.421L577.466 336.275ZM585.313 327.025C588.638 324.846 592.492 323.744 596.909 323.744V321.744C592.141 321.744 587.899 322.939 584.216 325.353L585.313 327.025ZM596.909 323.744C600.365 323.744 602.99 324.323 604.867 325.389L605.855 323.65C603.566 322.35 600.556 321.744 596.909 321.744V323.744ZM604.879 325.396C606.896 326.506 608.383 327.746 609.389 329.095L610.992 327.899C609.773 326.265 608.04 324.853 605.843 323.644L604.879 325.396ZM609.4 329.109C610.529 330.567 611.386 331.75 611.98 332.664L613.657 331.574C613.02 330.594 612.125 329.363 610.981 327.885L609.4 329.109ZM612.818 333.119H613.671V331.119H612.818V333.119ZM614.671 332.119V323.455H612.671V332.119H614.671ZM613.671 324.455H621.767V322.455H613.671V324.455ZM620.767 323.455V379.562H622.767V323.455H620.767ZM620.767 379.562C620.767 384.101 619.737 387.689 617.762 390.41L619.381 391.585C621.667 388.434 622.767 384.399 622.767 379.562H620.767ZM617.757 390.417C615.77 393.207 613.092 395.256 609.69 396.562L610.407 398.429C614.155 396.99 617.159 394.705 619.386 391.577L617.757 390.417ZM609.682 396.565C606.263 397.91 602.436 398.591 598.188 398.591V400.591C602.652 400.591 606.732 399.875 610.415 398.426L609.682 396.565ZM597.904 370.619C601.421 370.619 604.464 369.813 606.979 368.144L605.874 366.478C603.749 367.887 601.11 368.619 597.904 368.619V370.619ZM606.979 368.144C609.484 366.483 611.366 364.103 612.64 361.056L610.795 360.285C609.654 363.014 608.009 365.062 605.874 366.478L606.979 368.144ZM612.64 361.056C613.911 358.016 614.529 354.422 614.529 350.301H612.529C612.529 354.23 611.939 357.548 610.795 360.285L612.64 361.056ZM614.529 350.301C614.529 346.272 613.922 342.676 612.684 339.53L610.823 340.263C611.952 343.13 612.529 346.47 612.529 350.301H614.529ZM612.684 339.53C611.439 336.37 609.58 333.853 607.089 332.024L605.905 333.635C608.055 335.215 609.699 337.409 610.823 340.263L612.684 339.53ZM607.089 332.024C604.568 330.171 601.485 329.273 597.904 329.273V331.273C601.14 331.273 603.787 332.079 605.905 333.635L607.089 332.024ZM597.904 329.273C594.178 329.273 590.994 330.22 588.421 332.175L589.631 333.768C591.792 332.125 594.527 331.273 597.904 331.273V329.273ZM588.417 332.178C585.914 334.1 584.046 336.67 582.803 339.852L584.666 340.58C585.79 337.702 587.45 335.442 589.635 333.765L588.417 332.178ZM582.801 339.858C581.591 343.017 580.995 346.502 580.995 350.301H582.995C582.995 346.713 583.558 343.475 584.669 340.573L582.801 339.858ZM580.995 350.301C580.995 354.192 581.603 357.674 582.844 360.727L584.697 359.974C583.57 357.204 582.995 353.986 582.995 350.301H580.995ZM582.847 360.737C584.12 363.782 586.009 366.21 588.519 367.986L589.674 366.353C587.497 364.813 585.835 362.697 584.693 359.965L582.847 360.737ZM588.529 367.992C591.097 369.764 594.242 370.619 597.904 370.619V368.619C594.558 368.619 591.832 367.841 589.665 366.346L588.529 367.992ZM645.479 378V379H646.479V378H645.479ZM637.098 378H636.098V379H637.098V378ZM637.098 323.455V322.455H636.098V323.455H637.098ZM645.195 323.455H646.195V322.455H645.195V323.455ZM645.195 331.977H644.195V332.977H645.195V331.977ZM645.905 331.977V332.977H646.545L646.813 332.396L645.905 331.977ZM651.729 325.301L652.271 326.141L652.277 326.138L651.729 325.301ZM671.509 325.017L671.029 325.894L671.035 325.898L671.509 325.017ZM677.972 331.835L677.079 332.285L677.08 332.288L677.972 331.835ZM680.28 378V379H681.28V378H680.28ZM671.899 378H670.899V379H671.899V378ZM668.561 333.895L667.826 334.573L667.829 334.576L668.561 333.895ZM652.226 332.013L651.744 331.137L651.74 331.139L652.226 332.013ZM647.29 337.091L646.411 336.614L646.411 336.614L647.29 337.091ZM644.479 345.188V378H646.479V345.188H644.479ZM645.479 377H637.098V379H645.479V377ZM638.098 378V323.455H636.098V378H638.098ZM637.098 324.455H645.195V322.455H637.098V324.455ZM644.195 323.455V331.977H646.195V323.455H644.195ZM645.195 332.977H645.905V330.977H645.195V332.977ZM646.813 332.396C648.011 329.802 649.824 327.721 652.271 326.141L651.187 324.461C648.426 326.243 646.356 328.613 644.997 331.558L646.813 332.396ZM652.277 326.138C654.673 324.569 657.828 323.744 661.814 323.744V321.744C657.562 321.744 653.993 322.624 651.181 324.464L652.277 326.138ZM661.814 323.744C665.368 323.744 668.429 324.472 671.029 325.894L671.989 324.14C669.048 322.531 665.646 321.744 661.814 321.744V323.744ZM671.035 325.898C673.608 327.283 675.624 329.398 677.079 332.285L678.865 331.385C677.242 328.165 674.949 325.734 671.983 324.137L671.035 325.898ZM677.08 332.288C678.527 335.136 679.28 338.804 679.28 343.341H681.28C681.28 338.598 680.495 334.595 678.863 331.382L677.08 332.288ZM679.28 343.341V378H681.28V343.341H679.28ZM680.28 377H671.899V379H680.28V377ZM672.899 378V343.909H670.899V378H672.899ZM672.899 343.909C672.899 339.452 671.739 335.842 669.293 333.214L667.829 334.576C669.834 336.73 670.899 339.796 670.899 343.909H672.899ZM669.297 333.217C666.847 330.559 663.506 329.273 659.399 329.273V331.273C663.058 331.273 665.824 332.401 667.826 334.573L669.297 333.217ZM659.399 329.273C656.575 329.273 654.015 329.887 651.744 331.137L652.708 332.889C654.652 331.819 656.873 331.273 659.399 331.273V329.273ZM651.74 331.139C649.48 332.397 647.703 334.233 646.411 336.614L648.169 337.568C649.292 335.498 650.805 333.948 652.713 332.886L651.74 331.139ZM646.411 336.614C645.107 339.018 644.479 341.89 644.479 345.188H646.479C646.479 342.14 647.059 339.614 648.169 337.568L646.411 336.614ZM733.642 305.273H734.642V304.273H733.642V305.273ZM733.642 378V379H734.642V378H733.642ZM724.836 378H723.836V379H724.836V378ZM724.836 305.273V304.273H723.836V305.273H724.836ZM732.642 305.273V378H734.642V305.273H732.642ZM733.642 377H724.836V379H733.642V377ZM725.836 378V305.273H723.836V378H725.836ZM724.836 306.273H733.642V304.273H724.836V306.273ZM758.535 378V379H759.535V378H758.535ZM750.154 378H749.154V379H750.154V378ZM750.154 323.455V322.455H749.154V323.455H750.154ZM758.251 323.455H759.251V322.455H758.251V323.455ZM758.251 331.977H757.251V332.977H758.251V331.977ZM758.961 331.977V332.977H759.601L759.869 332.396L758.961 331.977ZM764.785 325.301L765.327 326.141L765.332 326.138L764.785 325.301ZM784.565 325.017L784.085 325.894L784.091 325.898L784.565 325.017ZM791.028 331.835L790.135 332.285L790.136 332.288L791.028 331.835ZM793.336 378V379H794.336V378H793.336ZM784.955 378H783.955V379H784.955V378ZM781.617 333.895L780.882 334.573L780.885 334.576L781.617 333.895ZM765.282 332.013L764.8 331.137L764.795 331.139L765.282 332.013ZM760.346 337.091L759.467 336.614L759.467 336.614L760.346 337.091ZM757.535 345.188V378H759.535V345.188H757.535ZM758.535 377H750.154V379H758.535V377ZM751.154 378V323.455H749.154V378H751.154ZM750.154 324.455H758.251V322.455H750.154V324.455ZM757.251 323.455V331.977H759.251V323.455H757.251ZM758.251 332.977H758.961V330.977H758.251V332.977ZM759.869 332.396C761.066 329.802 762.88 327.721 765.327 326.141L764.243 324.461C761.482 326.243 759.412 328.613 758.053 331.558L759.869 332.396ZM765.332 326.138C767.729 324.569 770.884 323.744 774.87 323.744V321.744C770.618 321.744 767.049 322.624 764.237 324.464L765.332 326.138ZM774.87 323.744C778.424 323.744 781.485 324.472 784.085 325.894L785.045 324.14C782.104 322.531 778.702 321.744 774.87 321.744V323.744ZM784.091 325.898C786.664 327.283 788.68 329.398 790.135 332.285L791.921 331.385C790.298 328.165 788.005 325.734 785.039 324.137L784.091 325.898ZM790.136 332.288C791.583 335.136 792.336 338.804 792.336 343.341H794.336C794.336 338.598 793.551 334.595 791.919 331.382L790.136 332.288ZM792.336 343.341V378H794.336V343.341H792.336ZM793.336 377H784.955V379H793.336V377ZM785.955 378V343.909H783.955V378H785.955ZM785.955 343.909C785.955 339.452 784.795 335.842 782.349 333.214L780.885 334.576C782.89 336.73 783.955 339.796 783.955 343.909H785.955ZM782.353 333.217C779.903 330.559 776.562 329.273 772.455 329.273V331.273C776.114 331.273 778.88 332.401 780.882 334.573L782.353 333.217ZM772.455 329.273C769.631 329.273 767.07 329.887 764.8 331.137L765.764 332.889C767.707 331.819 769.929 331.273 772.455 331.273V329.273ZM764.795 331.139C762.536 332.397 760.759 334.233 759.467 336.614L761.225 337.568C762.348 335.498 763.861 333.948 765.768 332.886L764.795 331.139ZM759.467 336.614C758.162 339.018 757.535 341.89 757.535 345.188H759.535C759.535 342.14 760.115 339.614 761.225 337.568L759.467 336.614Z" fill="black"/>
<path d="M222.241 129.576C213.889 129.576 207.739 135.189 207.739 143.004V143.058C207.739 150.335 213.003 155.707 220.469 155.707C225.706 155.707 229.573 153.021 231.104 149.476H231.265C231.265 149.906 231.238 150.309 231.211 150.711C230.942 158.043 228.337 164.005 222.107 164.005C218.643 164.005 216.279 162.286 215.232 159.627L215.151 159.386H208.276L208.33 159.681C209.539 165.536 214.91 169.671 222.08 169.671C231.963 169.671 237.898 162.018 237.898 149.208V149.154C237.898 135.565 230.781 129.576 222.241 129.576ZM222.241 150.362C217.837 150.362 214.561 147.22 214.561 142.816V142.762C214.561 138.573 218.025 135.243 222.322 135.243C226.672 135.243 230.056 138.6 230.056 142.896V142.923C230.056 147.247 226.672 150.362 222.241 150.362ZM246.545 143.648C248.721 143.648 250.413 141.93 250.413 139.754C250.413 137.579 248.721 135.887 246.545 135.887C244.37 135.887 242.651 137.579 242.651 139.754C242.651 141.93 244.37 143.648 246.545 143.648ZM246.545 163.36C248.721 163.36 250.413 161.642 250.413 159.466C250.413 157.291 248.721 155.599 246.545 155.599C244.37 155.599 242.651 157.291 242.651 159.466C242.651 161.642 244.37 163.36 246.545 163.36ZM274.233 169H280.84V161.561H286.104V155.868H280.84V130.248H270.984L254.897 155.653V161.561H274.233V169ZM261.128 156.029V155.841L274.18 135.484H274.341V156.029H261.128ZM300.149 169H306.943V130.248H300.095L289.971 137.364V143.729L299.988 136.854H300.149V169Z" fill="white"/>
<g opacity="0.9">
<rect x="893" y="150" width="10" height="12" rx="1" fill="white"/>
<rect x="907" y="144" width="10" height="18" rx="1" fill="white"/>
<rect x="922" y="137" width="10" height="25" rx="1" fill="white"/>
<rect x="936" y="129" width="10" height="33" rx="1" fill="white"/>
</g>
<g opacity="0.9">
<path d="M1025.15 137.632C1018.62 131.066 1009.59 127 999.603 127C989.586 127 980.526 131.09 974 137.692L979.657 143.349C984.735 138.195 991.796 135 999.603 135C1007.38 135 1014.42 138.17 1019.49 143.289L1025.15 137.632Z" fill="white"/>
<path d="M1015.95 146.825C1011.79 142.611 1006 140 999.603 140C993.176 140 987.366 142.635 983.192 146.884L988.85 152.542C991.575 149.74 995.386 148 999.603 148C1003.79 148 1007.58 149.715 1010.3 152.482L1015.95 146.825Z" fill="white"/>
<path d="M1006.76 156.018C1004.95 154.156 1002.41 153 999.603 153C996.766 153 994.206 154.181 992.386 156.078L999.543 163.235L1006.76 156.018Z" fill="white"/>
</g>
<rect opacity="0.6" x="1054.5" y="129.5" width="67" height="32" rx="6.5" stroke="white" stroke-width="3"/>
<rect opacity="0.9" x="1058" y="133" width="60" height="25" rx="4" fill="white"/>
<path opacity="0.6" d="M1125 141V141C1127.21 141 1129 142.791 1129 145V146C1129 148.209 1127.21 150 1125 150V150V141Z" fill="white"/>
<rect x="130" y="653" width="1043" height="104" rx="14" fill="white" stroke="#65A3FF" stroke-width="8"/>
<rect x="133" y="882" width="1037" height="98" rx="11" fill="white" stroke="black" stroke-width="2"/>
<rect x="134" y="1109" width="1035" height="96" rx="10" fill="black"/>
<path d="M272.728 1473.45V1520H267.273L241.91 1483.45H241.455V1520H235.819V1473.45H241.273L266.728 1510.09H267.182V1473.45H272.728ZM297.905 1520.73C294.542 1520.73 291.64 1519.98 289.201 1518.5C286.777 1517 284.905 1514.91 283.587 1512.23C282.284 1509.53 281.633 1506.39 281.633 1502.82C281.633 1499.24 282.284 1496.09 283.587 1493.36C284.905 1490.62 286.739 1488.48 289.087 1486.95C291.451 1485.41 294.208 1484.64 297.36 1484.64C299.178 1484.64 300.974 1484.94 302.746 1485.55C304.519 1486.15 306.133 1487.14 307.587 1488.5C309.042 1489.85 310.201 1491.64 311.065 1493.86C311.928 1496.09 312.36 1498.83 312.36 1502.09V1504.36H285.451V1499.73H306.905C306.905 1497.76 306.512 1496 305.724 1494.45C304.951 1492.91 303.845 1491.69 302.405 1490.8C300.981 1489.9 299.299 1489.45 297.36 1489.45C295.224 1489.45 293.375 1489.98 291.815 1491.05C290.269 1492.09 289.08 1493.45 288.246 1495.14C287.413 1496.82 286.996 1498.62 286.996 1500.55V1503.64C286.996 1506.27 287.451 1508.51 288.36 1510.34C289.284 1512.16 290.565 1513.55 292.201 1514.5C293.837 1515.44 295.739 1515.91 297.905 1515.91C299.315 1515.91 300.587 1515.71 301.724 1515.32C302.875 1514.91 303.868 1514.3 304.701 1513.5C305.534 1512.68 306.178 1511.67 306.633 1510.45L311.815 1511.91C311.269 1513.67 310.352 1515.21 309.065 1516.55C307.777 1517.86 306.186 1518.89 304.292 1519.64C302.398 1520.36 300.269 1520.73 297.905 1520.73ZM335.145 1520.73C331.782 1520.73 328.88 1519.98 326.441 1518.5C324.017 1517 322.145 1514.91 320.827 1512.23C319.524 1509.53 318.873 1506.39 318.873 1502.82C318.873 1499.24 319.524 1496.09 320.827 1493.36C322.145 1490.62 323.979 1488.48 326.327 1486.95C328.691 1485.41 331.448 1484.64 334.6 1484.64C336.418 1484.64 338.214 1484.94 339.986 1485.55C341.759 1486.15 343.373 1487.14 344.827 1488.5C346.282 1489.85 347.441 1491.64 348.305 1493.86C349.168 1496.09 349.6 1498.83 349.6 1502.09V1504.36H322.691V1499.73H344.145C344.145 1497.76 343.752 1496 342.964 1494.45C342.191 1492.91 341.085 1491.69 339.645 1490.8C338.221 1489.9 336.539 1489.45 334.6 1489.45C332.464 1489.45 330.615 1489.98 329.055 1491.05C327.509 1492.09 326.32 1493.45 325.486 1495.14C324.653 1496.82 324.236 1498.62 324.236 1500.55V1503.64C324.236 1506.27 324.691 1508.51 325.6 1510.34C326.524 1512.16 327.805 1513.55 329.441 1514.5C331.077 1515.44 332.979 1515.91 335.145 1515.91C336.555 1515.91 337.827 1515.71 338.964 1515.32C340.115 1514.91 341.108 1514.3 341.941 1513.5C342.774 1512.68 343.418 1511.67 343.873 1510.45L349.055 1511.91C348.509 1513.67 347.592 1515.21 346.305 1516.55C345.017 1517.86 343.426 1518.89 341.532 1519.64C339.638 1520.36 337.509 1520.73 335.145 1520.73ZM370.931 1520.73C368.022 1520.73 365.454 1519.99 363.226 1518.52C360.999 1517.04 359.257 1514.95 357.999 1512.25C356.742 1509.54 356.113 1506.33 356.113 1502.64C356.113 1498.97 356.742 1495.79 357.999 1493.09C359.257 1490.39 361.007 1488.31 363.249 1486.84C365.492 1485.37 368.082 1484.64 371.022 1484.64C373.295 1484.64 375.09 1485.02 376.408 1485.77C377.742 1486.52 378.757 1487.36 379.454 1488.32C380.166 1489.26 380.719 1490.03 381.113 1490.64H381.567V1473.45H386.931V1520H381.749V1514.64H381.113C380.719 1515.27 380.158 1516.08 379.431 1517.05C378.704 1518 377.666 1518.86 376.317 1519.61C374.969 1520.36 373.173 1520.73 370.931 1520.73ZM371.658 1515.91C373.81 1515.91 375.628 1515.35 377.113 1514.23C378.598 1513.09 379.726 1511.52 380.499 1509.52C381.272 1507.51 381.658 1505.18 381.658 1502.55C381.658 1499.94 381.279 1497.66 380.522 1495.7C379.764 1493.73 378.643 1492.2 377.158 1491.11C375.673 1490.01 373.84 1489.45 371.658 1489.45C369.385 1489.45 367.492 1490.04 365.976 1491.2C364.476 1492.36 363.348 1493.92 362.59 1495.91C361.848 1497.88 361.476 1500.09 361.476 1502.55C361.476 1505.03 361.855 1507.29 362.613 1509.32C363.385 1511.33 364.522 1512.94 366.022 1514.14C367.537 1515.32 369.416 1515.91 371.658 1515.91ZM418.115 1520H412.206L429.297 1473.45H435.115L452.206 1520H446.297L432.388 1480.82H432.025L418.115 1520ZM420.297 1501.82H444.115V1506.82H420.297V1501.82ZM464.083 1499V1520H458.719V1485.09H463.901V1490.55H464.355C465.174 1488.77 466.416 1487.35 468.083 1486.27C469.749 1485.18 471.901 1484.64 474.537 1484.64C476.901 1484.64 478.969 1485.12 480.742 1486.09C482.515 1487.05 483.893 1488.5 484.878 1490.45C485.863 1492.39 486.355 1494.85 486.355 1497.82V1520H480.992V1498.18C480.992 1495.44 480.28 1493.3 478.855 1491.77C477.431 1490.23 475.477 1489.45 472.992 1489.45C471.28 1489.45 469.749 1489.83 468.401 1490.57C467.068 1491.31 466.015 1492.39 465.242 1493.82C464.469 1495.24 464.083 1496.97 464.083 1499ZM516.773 1520H510.864L527.955 1473.45H533.773L550.864 1520H544.955L531.046 1480.82H530.682L516.773 1520ZM518.955 1501.82H542.773V1506.82H518.955V1501.82ZM571.558 1520.73C568.286 1520.73 565.467 1519.95 563.104 1518.41C560.74 1516.86 558.922 1514.73 557.649 1512.02C556.377 1509.31 555.74 1506.21 555.74 1502.73C555.74 1499.18 556.392 1496.05 557.695 1493.34C559.013 1490.61 560.846 1488.48 563.195 1486.95C565.558 1485.41 568.316 1484.64 571.467 1484.64C573.922 1484.64 576.134 1485.09 578.104 1486C580.074 1486.91 581.687 1488.18 582.945 1489.82C584.202 1491.45 584.983 1493.36 585.286 1495.55H579.922C579.513 1493.95 578.604 1492.55 577.195 1491.32C575.801 1490.08 573.922 1489.45 571.558 1489.45C569.467 1489.45 567.634 1490 566.058 1491.09C564.498 1492.17 563.278 1493.69 562.399 1495.66C561.536 1497.61 561.104 1499.91 561.104 1502.55C561.104 1505.24 561.528 1507.59 562.377 1509.59C563.24 1511.59 564.452 1513.14 566.013 1514.25C567.589 1515.36 569.437 1515.91 571.558 1515.91C572.952 1515.91 574.217 1515.67 575.354 1515.18C576.49 1514.7 577.452 1514 578.24 1513.09C579.028 1512.18 579.589 1511.09 579.922 1509.82H585.286C584.983 1511.88 584.233 1513.73 583.036 1515.39C581.854 1517.02 580.286 1518.33 578.331 1519.3C576.392 1520.25 574.134 1520.73 571.558 1520.73ZM607.298 1520.73C604.026 1520.73 601.207 1519.95 598.844 1518.41C596.48 1516.86 594.662 1514.73 593.389 1512.02C592.117 1509.31 591.48 1506.21 591.48 1502.73C591.48 1499.18 592.132 1496.05 593.435 1493.34C594.753 1490.61 596.586 1488.48 598.935 1486.95C601.298 1485.41 604.056 1484.64 607.207 1484.64C609.662 1484.64 611.874 1485.09 613.844 1486C615.814 1486.91 617.427 1488.18 618.685 1489.82C619.942 1491.45 620.723 1493.36 621.026 1495.55H615.662C615.253 1493.95 614.344 1492.55 612.935 1491.32C611.541 1490.08 609.662 1489.45 607.298 1489.45C605.207 1489.45 603.374 1490 601.798 1491.09C600.238 1492.17 599.018 1493.69 598.139 1495.66C597.276 1497.61 596.844 1499.91 596.844 1502.55C596.844 1505.24 597.268 1507.59 598.117 1509.59C598.98 1511.59 600.192 1513.14 601.753 1514.25C603.329 1515.36 605.177 1515.91 607.298 1515.91C608.692 1515.91 609.957 1515.67 611.094 1515.18C612.23 1514.7 613.192 1514 613.98 1513.09C614.768 1512.18 615.329 1511.09 615.662 1509.82H621.026C620.723 1511.88 619.973 1513.73 618.776 1515.39C617.594 1517.02 616.026 1518.33 614.071 1519.3C612.132 1520.25 609.874 1520.73 607.298 1520.73ZM643.038 1520.73C639.887 1520.73 637.122 1519.98 634.743 1518.48C632.379 1516.98 630.531 1514.88 629.198 1512.18C627.879 1509.48 627.22 1506.33 627.22 1502.73C627.22 1499.09 627.879 1495.92 629.198 1493.2C630.531 1490.49 632.379 1488.39 634.743 1486.89C637.122 1485.39 639.887 1484.64 643.038 1484.64C646.19 1484.64 648.948 1485.39 651.311 1486.89C653.69 1488.39 655.538 1490.49 656.857 1493.2C658.19 1495.92 658.857 1499.09 658.857 1502.73C658.857 1506.33 658.19 1509.48 656.857 1512.18C655.538 1514.88 653.69 1516.98 651.311 1518.48C648.948 1519.98 646.19 1520.73 643.038 1520.73ZM643.038 1515.91C645.432 1515.91 647.402 1515.3 648.948 1514.07C650.493 1512.84 651.637 1511.23 652.379 1509.23C653.122 1507.23 653.493 1505.06 653.493 1502.73C653.493 1500.39 653.122 1498.22 652.379 1496.2C651.637 1494.19 650.493 1492.56 648.948 1491.32C647.402 1490.08 645.432 1489.45 643.038 1489.45C640.644 1489.45 638.675 1490.08 637.129 1491.32C635.584 1492.56 634.44 1494.19 633.698 1496.2C632.955 1498.22 632.584 1500.39 632.584 1502.73C632.584 1505.06 632.955 1507.23 633.698 1509.23C634.44 1511.23 635.584 1512.84 637.129 1514.07C638.675 1515.3 640.644 1515.91 643.038 1515.91ZM689.034 1505.73V1485.09H694.398V1520H689.034V1514.09H688.67C687.852 1515.86 686.58 1517.37 684.852 1518.61C683.125 1519.84 680.943 1520.45 678.307 1520.45C676.125 1520.45 674.186 1519.98 672.489 1519.02C670.792 1518.05 669.458 1516.6 668.489 1514.66C667.519 1512.7 667.034 1510.24 667.034 1507.27V1485.09H672.398V1506.91C672.398 1509.45 673.11 1511.48 674.534 1513C675.973 1514.52 677.807 1515.27 680.034 1515.27C681.367 1515.27 682.723 1514.93 684.102 1514.25C685.496 1513.57 686.663 1512.52 687.602 1511.11C688.557 1509.7 689.034 1507.91 689.034 1505.73ZM709.575 1499V1520H704.212V1485.09H709.393V1490.55H709.848C710.666 1488.77 711.909 1487.35 713.575 1486.27C715.242 1485.18 717.393 1484.64 720.03 1484.64C722.393 1484.64 724.462 1485.12 726.234 1486.09C728.007 1487.05 729.386 1488.5 730.371 1490.45C731.356 1492.39 731.848 1494.85 731.848 1497.82V1520H726.484V1498.18C726.484 1495.44 725.772 1493.3 724.348 1491.77C722.924 1490.23 720.969 1489.45 718.484 1489.45C716.772 1489.45 715.242 1489.83 713.893 1490.57C712.56 1491.31 711.507 1492.39 710.734 1493.82C709.962 1495.24 709.575 1496.97 709.575 1499ZM756.821 1485.09V1489.64H738.73V1485.09H756.821ZM744.003 1476.73H749.366V1510C749.366 1511.52 749.586 1512.65 750.025 1513.41C750.48 1514.15 751.056 1514.65 751.753 1514.91C752.465 1515.15 753.215 1515.27 754.003 1515.27C754.594 1515.27 755.078 1515.24 755.457 1515.18C755.836 1515.11 756.139 1515.05 756.366 1515L757.457 1519.82C757.094 1519.95 756.586 1520.09 755.935 1520.23C755.283 1520.38 754.457 1520.45 753.457 1520.45C751.942 1520.45 750.457 1520.13 749.003 1519.48C747.563 1518.83 746.366 1517.83 745.412 1516.5C744.472 1515.17 744.003 1513.48 744.003 1511.45V1476.73ZM771.879 1506.91V1506.64C771.909 1503.74 772.212 1501.44 772.788 1499.73C773.364 1498.02 774.182 1496.63 775.243 1495.57C776.303 1494.51 777.576 1493.53 779.061 1492.64C779.955 1492.09 780.758 1491.45 781.47 1490.7C782.182 1489.95 782.743 1489.08 783.152 1488.09C783.576 1487.11 783.788 1486.02 783.788 1484.82C783.788 1483.33 783.44 1482.05 782.743 1480.95C782.046 1479.86 781.114 1479.02 779.947 1478.43C778.781 1477.84 777.485 1477.55 776.061 1477.55C774.818 1477.55 773.621 1477.8 772.47 1478.32C771.318 1478.83 770.356 1479.64 769.584 1480.75C768.811 1481.86 768.364 1483.3 768.243 1485.09H762.515C762.637 1482.52 763.303 1480.31 764.515 1478.48C765.743 1476.64 767.356 1475.24 769.356 1474.27C771.371 1473.3 773.606 1472.82 776.061 1472.82C778.728 1472.82 781.046 1473.35 783.015 1474.41C785 1475.47 786.531 1476.92 787.606 1478.77C788.697 1480.62 789.243 1482.73 789.243 1485.09C789.243 1486.76 788.985 1488.27 788.47 1489.61C787.97 1490.96 787.243 1492.17 786.288 1493.23C785.349 1494.29 784.212 1495.23 782.879 1496.05C781.546 1496.88 780.478 1497.76 779.675 1498.68C778.871 1499.59 778.288 1500.67 777.925 1501.93C777.561 1503.19 777.364 1504.76 777.334 1506.64V1506.91H771.879ZM774.788 1520.36C773.667 1520.36 772.705 1519.96 771.902 1519.16C771.099 1518.36 770.697 1517.39 770.697 1516.27C770.697 1515.15 771.099 1514.19 771.902 1513.39C772.705 1512.58 773.667 1512.18 774.788 1512.18C775.909 1512.18 776.871 1512.58 777.675 1513.39C778.478 1514.19 778.879 1515.15 778.879 1516.27C778.879 1517.02 778.69 1517.7 778.311 1518.32C777.947 1518.94 777.455 1519.44 776.834 1519.82C776.228 1520.18 775.546 1520.36 774.788 1520.36ZM814.433 1520V1473.45H832.797C836.312 1473.45 839.312 1474.08 841.797 1475.34C844.297 1476.58 846.198 1478.35 847.501 1480.64C848.819 1482.91 849.478 1485.58 849.478 1488.66C849.478 1491.75 848.812 1494.41 847.478 1496.64C846.145 1498.85 844.213 1500.55 841.683 1501.73C839.168 1502.91 836.122 1503.5 832.547 1503.5H820.251V1495.59H830.956C832.834 1495.59 834.395 1495.33 835.638 1494.82C836.88 1494.3 837.804 1493.53 838.41 1492.5C839.031 1491.47 839.342 1490.19 839.342 1488.66C839.342 1487.11 839.031 1485.81 838.41 1484.75C837.804 1483.69 836.872 1482.89 835.615 1482.34C834.372 1481.78 832.804 1481.5 830.91 1481.5H824.274V1520H814.433ZM839.569 1498.82L851.138 1520H840.274L828.956 1498.82H839.569ZM871.588 1520.68C867.997 1520.68 864.906 1519.95 862.315 1518.5C859.739 1517.03 857.754 1514.95 856.36 1512.27C854.967 1509.58 854.27 1506.39 854.27 1502.7C854.27 1499.11 854.967 1495.96 856.36 1493.25C857.754 1490.54 859.717 1488.42 862.247 1486.91C864.792 1485.39 867.777 1484.64 871.201 1484.64C873.504 1484.64 875.648 1485.01 877.633 1485.75C879.633 1486.48 881.376 1487.58 882.86 1489.05C884.36 1490.52 885.527 1492.36 886.36 1494.59C887.194 1496.8 887.61 1499.39 887.61 1502.36V1505.02H858.133V1499.02H878.497C878.497 1497.63 878.194 1496.39 877.588 1495.32C876.982 1494.24 876.141 1493.4 875.065 1492.8C874.004 1492.17 872.77 1491.86 871.36 1491.86C869.891 1491.86 868.588 1492.2 867.451 1492.89C866.33 1493.55 865.451 1494.45 864.815 1495.59C864.179 1496.71 863.853 1497.96 863.838 1499.34V1505.05C863.838 1506.77 864.156 1508.27 864.792 1509.52C865.444 1510.78 866.36 1511.75 867.542 1512.43C868.724 1513.11 870.126 1513.45 871.747 1513.45C872.823 1513.45 873.807 1513.3 874.701 1513C875.595 1512.7 876.36 1512.24 876.997 1511.64C877.633 1511.03 878.118 1510.29 878.451 1509.41L887.406 1510C886.951 1512.15 886.02 1514.03 884.61 1515.64C883.217 1517.23 881.413 1518.47 879.201 1519.36C877.004 1520.24 874.467 1520.68 871.588 1520.68ZM909.646 1533.82C906.51 1533.82 903.82 1533.39 901.578 1532.52C899.35 1531.67 897.578 1530.52 896.26 1529.05C894.941 1527.58 894.085 1525.92 893.691 1524.09L902.646 1522.89C902.919 1523.58 903.35 1524.23 903.941 1524.84C904.532 1525.45 905.313 1525.93 906.282 1526.3C907.267 1526.67 908.464 1526.86 909.873 1526.86C911.979 1526.86 913.714 1526.35 915.078 1525.32C916.457 1524.3 917.146 1522.6 917.146 1520.2V1513.82H916.737C916.313 1514.79 915.676 1515.7 914.828 1516.57C913.979 1517.43 912.888 1518.14 911.555 1518.68C910.222 1519.23 908.631 1519.5 906.782 1519.5C904.161 1519.5 901.775 1518.89 899.623 1517.68C897.487 1516.45 895.782 1514.58 894.51 1512.07C893.252 1509.54 892.623 1506.34 892.623 1502.48C892.623 1498.52 893.267 1495.22 894.555 1492.57C895.843 1489.92 897.555 1487.93 899.691 1486.61C901.843 1485.3 904.199 1484.64 906.76 1484.64C908.714 1484.64 910.35 1484.97 911.669 1485.64C912.987 1486.29 914.047 1487.11 914.85 1488.09C915.669 1489.06 916.297 1490.02 916.737 1490.95H917.1V1485.09H926.714V1520.34C926.714 1523.31 925.987 1525.8 924.532 1527.8C923.078 1529.8 921.063 1531.3 918.487 1532.3C915.926 1533.31 912.979 1533.82 909.646 1533.82ZM909.85 1512.23C911.411 1512.23 912.729 1511.84 913.805 1511.07C914.896 1510.28 915.729 1509.16 916.305 1507.7C916.896 1506.23 917.191 1504.48 917.191 1502.43C917.191 1500.39 916.903 1498.61 916.328 1497.11C915.752 1495.6 914.919 1494.42 913.828 1493.59C912.737 1492.76 911.411 1492.34 909.85 1492.34C908.26 1492.34 906.919 1492.77 905.828 1493.64C904.737 1494.48 903.911 1495.67 903.35 1497.18C902.79 1498.7 902.51 1500.45 902.51 1502.43C902.51 1504.45 902.79 1506.19 903.35 1507.66C903.926 1509.11 904.752 1510.24 905.828 1511.05C906.919 1511.83 908.26 1512.23 909.85 1512.23ZM934.409 1520V1485.09H944.09V1520H934.409ZM939.272 1480.59C937.833 1480.59 936.598 1480.11 935.568 1479.16C934.553 1478.19 934.045 1477.03 934.045 1475.68C934.045 1474.35 934.553 1473.2 935.568 1472.25C936.598 1471.28 937.833 1470.8 939.272 1470.8C940.712 1470.8 941.939 1471.28 942.954 1472.25C943.984 1473.2 944.5 1474.35 944.5 1475.68C944.5 1477.03 943.984 1478.19 942.954 1479.16C941.939 1480.11 940.712 1480.59 939.272 1480.59ZM980.882 1495.05L972.018 1495.59C971.866 1494.83 971.541 1494.15 971.041 1493.55C970.541 1492.92 969.882 1492.43 969.063 1492.07C968.26 1491.69 967.298 1491.5 966.177 1491.5C964.677 1491.5 963.412 1491.82 962.382 1492.45C961.351 1493.08 960.836 1493.91 960.836 1494.95C960.836 1495.79 961.169 1496.49 961.836 1497.07C962.503 1497.64 963.647 1498.11 965.268 1498.45L971.586 1499.73C974.98 1500.42 977.51 1501.55 979.177 1503.09C980.844 1504.64 981.677 1506.67 981.677 1509.18C981.677 1511.47 981.003 1513.48 979.654 1515.2C978.321 1516.93 976.488 1518.28 974.154 1519.25C971.836 1520.2 969.162 1520.68 966.132 1520.68C961.51 1520.68 957.829 1519.72 955.086 1517.8C952.359 1515.86 950.76 1513.22 950.291 1509.89L959.813 1509.39C960.101 1510.8 960.798 1511.87 961.904 1512.61C963.01 1513.34 964.427 1513.7 966.154 1513.7C967.851 1513.7 969.215 1513.38 970.245 1512.73C971.291 1512.06 971.821 1511.2 971.836 1510.16C971.821 1509.28 971.45 1508.56 970.722 1508C969.995 1507.42 968.874 1506.98 967.359 1506.68L961.313 1505.48C957.904 1504.8 955.366 1503.61 953.7 1501.93C952.048 1500.25 951.222 1498.11 951.222 1495.5C951.222 1493.26 951.829 1491.33 953.041 1489.7C954.268 1488.08 955.988 1486.83 958.2 1485.95C960.427 1485.08 963.033 1484.64 966.018 1484.64C970.427 1484.64 973.897 1485.57 976.427 1487.43C978.972 1489.3 980.457 1491.83 980.882 1495.05ZM1006.33 1485.09V1492.36H985.309V1485.09H1006.33ZM990.082 1476.73H999.764V1509.27C999.764 1510.17 999.9 1510.86 1000.17 1511.36C1000.45 1511.85 1000.82 1512.19 1001.31 1512.39C1001.81 1512.58 1002.38 1512.68 1003.04 1512.68C1003.49 1512.68 1003.95 1512.64 1004.4 1512.57C1004.85 1512.48 1005.2 1512.41 1005.45 1512.36L1006.97 1519.57C1006.48 1519.72 1005.8 1519.89 1004.92 1520.09C1004.04 1520.3 1002.98 1520.43 1001.72 1520.48C999.385 1520.57 997.339 1520.26 995.582 1519.55C993.839 1518.83 992.483 1517.73 991.514 1516.23C990.544 1514.73 990.067 1512.83 990.082 1510.55V1476.73ZM1028.16 1520.68C1024.57 1520.68 1021.48 1519.95 1018.89 1518.5C1016.31 1517.03 1014.33 1514.95 1012.94 1512.27C1011.54 1509.58 1010.84 1506.39 1010.84 1502.7C1010.84 1499.11 1011.54 1495.96 1012.94 1493.25C1014.33 1490.54 1016.29 1488.42 1018.82 1486.91C1021.37 1485.39 1024.35 1484.64 1027.78 1484.64C1030.08 1484.64 1032.22 1485.01 1034.21 1485.75C1036.21 1486.48 1037.95 1487.58 1039.44 1489.05C1040.94 1490.52 1042.1 1492.36 1042.94 1494.59C1043.77 1496.8 1044.19 1499.39 1044.19 1502.36V1505.02H1014.71V1499.02H1035.07C1035.07 1497.63 1034.77 1496.39 1034.16 1495.32C1033.56 1494.24 1032.72 1493.4 1031.64 1492.8C1030.58 1492.17 1029.34 1491.86 1027.94 1491.86C1026.47 1491.86 1025.16 1492.2 1024.03 1492.89C1022.91 1493.55 1022.03 1494.45 1021.39 1495.59C1020.75 1496.71 1020.43 1497.96 1020.41 1499.34V1505.05C1020.41 1506.77 1020.73 1508.27 1021.37 1509.52C1022.02 1510.78 1022.94 1511.75 1024.12 1512.43C1025.3 1513.11 1026.7 1513.45 1028.32 1513.45C1029.4 1513.45 1030.38 1513.3 1031.28 1513C1032.17 1512.7 1032.94 1512.24 1033.57 1511.64C1034.21 1511.03 1034.69 1510.29 1035.03 1509.41L1043.98 1510C1043.53 1512.15 1042.59 1514.03 1041.19 1515.64C1039.79 1517.23 1037.99 1518.47 1035.78 1519.36C1033.58 1520.24 1031.04 1520.68 1028.16 1520.68ZM1050.49 1520V1485.09H1059.88V1491.18H1060.24C1060.88 1489.02 1061.95 1487.38 1063.45 1486.27C1064.95 1485.15 1066.68 1484.59 1068.63 1484.59C1069.11 1484.59 1069.64 1484.62 1070.2 1484.68C1070.76 1484.74 1071.25 1484.83 1071.68 1484.93V1493.52C1071.22 1493.39 1070.59 1493.27 1069.79 1493.16C1068.99 1493.05 1068.25 1493 1067.58 1493C1066.16 1493 1064.89 1493.31 1063.77 1493.93C1062.66 1494.54 1061.78 1495.39 1061.13 1496.48C1060.49 1497.57 1060.18 1498.83 1060.18 1500.25V1520H1050.49Z" fill="black"/>
<rect x="135" y="1266" width="48" height="48" rx="9" fill="white" stroke="black" stroke-width="2"/>
<path d="M232.067 1279.03V1275.91H253.885V1279.03H244.737V1305H241.214V1279.03H232.067ZM256.591 1305V1283.18H259.83V1286.48H260.057C260.455 1285.4 261.175 1284.52 262.216 1283.85C263.258 1283.18 264.432 1282.84 265.739 1282.84C265.985 1282.84 266.293 1282.85 266.662 1282.86C267.032 1282.86 267.311 1282.88 267.5 1282.9V1286.31C267.387 1286.28 267.126 1286.24 266.719 1286.18C266.321 1286.11 265.9 1286.08 265.455 1286.08C264.394 1286.08 263.447 1286.3 262.614 1286.75C261.79 1287.18 261.137 1287.79 260.654 1288.57C260.18 1289.33 259.944 1290.21 259.944 1291.19V1305H256.591ZM285.214 1296.08V1283.18H288.566V1305H285.214V1301.31H284.987C284.475 1302.41 283.68 1303.36 282.6 1304.13C281.521 1304.9 280.157 1305.28 278.51 1305.28C277.146 1305.28 275.934 1304.99 274.873 1304.39C273.813 1303.78 272.979 1302.87 272.373 1301.66C271.767 1300.44 271.464 1298.9 271.464 1297.05V1283.18H274.816V1296.82C274.816 1298.41 275.261 1299.68 276.152 1300.62C277.051 1301.57 278.197 1302.05 279.589 1302.05C280.422 1302.05 281.27 1301.83 282.132 1301.41C283.003 1300.98 283.732 1300.33 284.319 1299.45C284.916 1298.57 285.214 1297.44 285.214 1296.08ZM310.151 1288.07L307.139 1288.92C306.95 1288.42 306.671 1287.93 306.301 1287.46C305.942 1286.97 305.449 1286.58 304.824 1286.26C304.199 1285.95 303.399 1285.8 302.424 1285.8C301.088 1285.8 299.976 1286.1 299.086 1286.72C298.205 1287.32 297.764 1288.1 297.764 1289.03C297.764 1289.87 298.068 1290.53 298.674 1291.01C299.28 1291.49 300.227 1291.89 301.514 1292.22L304.753 1293.01C306.704 1293.48 308.157 1294.21 309.114 1295.18C310.07 1296.15 310.549 1297.4 310.549 1298.92C310.549 1300.17 310.189 1301.29 309.469 1302.27C308.759 1303.26 307.764 1304.03 306.486 1304.6C305.208 1305.17 303.721 1305.45 302.026 1305.45C299.8 1305.45 297.959 1304.97 296.5 1304.01C295.042 1303.04 294.119 1301.63 293.73 1299.77L296.912 1298.98C297.215 1300.15 297.788 1301.03 298.631 1301.62C299.483 1302.21 300.596 1302.5 301.969 1302.5C303.532 1302.5 304.772 1302.17 305.691 1301.51C306.619 1300.83 307.083 1300.03 307.083 1299.09C307.083 1298.33 306.818 1297.7 306.287 1297.19C305.757 1296.67 304.943 1296.28 303.844 1296.02L300.208 1295.17C298.21 1294.7 296.742 1293.96 295.804 1292.97C294.876 1291.96 294.412 1290.71 294.412 1289.2C294.412 1287.97 294.758 1286.88 295.449 1285.94C296.15 1284.99 297.102 1284.25 298.304 1283.71C299.516 1283.17 300.889 1282.9 302.424 1282.9C304.583 1282.9 306.278 1283.37 307.509 1284.32C308.749 1285.27 309.63 1286.52 310.151 1288.07ZM325.073 1283.18V1286.02H313.767V1283.18H325.073ZM317.062 1277.95H320.414V1298.75C320.414 1299.7 320.552 1300.41 320.826 1300.88C321.11 1301.34 321.47 1301.66 321.906 1301.82C322.351 1301.97 322.82 1302.05 323.312 1302.05C323.681 1302.05 323.984 1302.03 324.221 1301.99C324.458 1301.94 324.647 1301.9 324.789 1301.88L325.471 1304.89C325.244 1304.97 324.927 1305.06 324.519 1305.14C324.112 1305.24 323.596 1305.28 322.971 1305.28C322.024 1305.28 321.096 1305.08 320.187 1304.67C319.287 1304.27 318.539 1303.65 317.943 1302.81C317.356 1301.98 317.062 1300.93 317.062 1299.66V1277.95ZM340.21 1279.03V1275.91H362.028V1279.03H352.88V1305H349.357V1279.03H340.21ZM370.352 1291.88V1305H367V1275.91H370.352V1286.59H370.636C371.148 1285.46 371.915 1284.57 372.938 1283.91C373.97 1283.23 375.343 1282.9 377.057 1282.9C378.544 1282.9 379.846 1283.2 380.963 1283.79C382.081 1284.38 382.947 1285.28 383.563 1286.51C384.188 1287.72 384.5 1289.26 384.5 1291.14V1305H381.148V1291.36C381.148 1289.63 380.698 1288.29 379.798 1287.34C378.908 1286.39 377.672 1285.91 376.091 1285.91C374.992 1285.91 374.008 1286.14 373.136 1286.61C372.275 1287.07 371.593 1287.75 371.091 1288.64C370.599 1289.53 370.352 1290.61 370.352 1291.88ZM390.623 1305V1283.18H393.975V1305H390.623ZM392.327 1279.55C391.674 1279.55 391.111 1279.32 390.637 1278.88C390.173 1278.43 389.941 1277.9 389.941 1277.27C389.941 1276.65 390.173 1276.11 390.637 1275.67C391.111 1275.22 391.674 1275 392.327 1275C392.981 1275 393.54 1275.22 394.004 1275.67C394.477 1276.11 394.714 1276.65 394.714 1277.27C394.714 1277.9 394.477 1278.43 394.004 1278.88C393.54 1279.32 392.981 1279.55 392.327 1279.55ZM415.56 1288.07L412.548 1288.92C412.359 1288.42 412.079 1287.93 411.71 1287.46C411.35 1286.97 410.858 1286.58 410.233 1286.26C409.608 1285.95 408.808 1285.8 407.832 1285.8C406.497 1285.8 405.384 1286.1 404.494 1286.72C403.614 1287.32 403.173 1288.1 403.173 1289.03C403.173 1289.87 403.476 1290.53 404.082 1291.01C404.688 1291.49 405.635 1291.89 406.923 1292.22L410.162 1293.01C412.113 1293.48 413.566 1294.21 414.523 1295.18C415.479 1296.15 415.957 1297.4 415.957 1298.92C415.957 1300.17 415.597 1301.29 414.878 1302.27C414.168 1303.26 413.173 1304.03 411.895 1304.6C410.616 1305.17 409.13 1305.45 407.435 1305.45C405.209 1305.45 403.367 1304.97 401.909 1304.01C400.451 1303.04 399.527 1301.63 399.139 1299.77L402.321 1298.98C402.624 1300.15 403.197 1301.03 404.04 1301.62C404.892 1302.21 406.005 1302.5 407.378 1302.5C408.94 1302.5 410.181 1302.17 411.099 1301.51C412.027 1300.83 412.491 1300.03 412.491 1299.09C412.491 1298.33 412.226 1297.7 411.696 1297.19C411.166 1296.67 410.351 1296.28 409.253 1296.02L405.616 1295.17C403.618 1294.7 402.151 1293.96 401.213 1292.97C400.285 1291.96 399.821 1290.71 399.821 1289.2C399.821 1287.97 400.167 1286.88 400.858 1285.94C401.559 1284.99 402.51 1284.25 403.713 1283.71C404.925 1283.17 406.298 1282.9 407.832 1282.9C409.991 1282.9 411.687 1283.37 412.918 1284.32C414.158 1285.27 415.039 1286.52 415.56 1288.07ZM441.665 1305H432.688V1275.91H442.063C444.885 1275.91 447.3 1276.49 449.307 1277.66C451.315 1278.81 452.854 1280.47 453.924 1282.64C454.994 1284.8 455.529 1287.39 455.529 1290.4C455.529 1293.43 454.989 1296.04 453.91 1298.22C452.83 1300.4 451.258 1302.08 449.194 1303.25C447.129 1304.42 444.62 1305 441.665 1305ZM436.211 1301.88H441.438C443.843 1301.88 445.837 1301.41 447.418 1300.48C449 1299.55 450.179 1298.23 450.955 1296.52C451.732 1294.81 452.12 1292.77 452.12 1290.4C452.12 1288.05 451.736 1286.03 450.969 1284.33C450.202 1282.63 449.056 1281.32 447.532 1280.41C446.007 1279.49 444.108 1279.03 441.836 1279.03H436.211V1301.88ZM470.121 1305.45C468.019 1305.45 466.206 1304.99 464.681 1304.06C463.166 1303.12 461.996 1301.82 461.172 1300.14C460.358 1298.46 459.951 1296.5 459.951 1294.26C459.951 1292.03 460.358 1290.06 461.172 1288.35C461.996 1286.64 463.142 1285.3 464.61 1284.35C466.087 1283.38 467.811 1282.9 469.78 1282.9C470.917 1282.9 472.039 1283.09 473.147 1283.47C474.255 1283.84 475.263 1284.46 476.172 1285.31C477.081 1286.16 477.806 1287.27 478.346 1288.66C478.885 1290.06 479.155 1291.77 479.155 1293.81V1295.23H462.337V1292.33H475.746C475.746 1291.1 475.5 1290 475.008 1289.03C474.525 1288.07 473.833 1287.31 472.934 1286.75C472.044 1286.19 470.992 1285.91 469.78 1285.91C468.445 1285.91 467.29 1286.24 466.314 1286.9C465.349 1287.56 464.605 1288.41 464.084 1289.46C463.563 1290.51 463.303 1291.64 463.303 1292.84V1294.77C463.303 1296.42 463.587 1297.82 464.155 1298.96C464.733 1300.1 465.533 1300.97 466.556 1301.56C467.579 1302.15 468.767 1302.44 470.121 1302.44C471.002 1302.44 471.797 1302.32 472.508 1302.07C473.227 1301.82 473.848 1301.44 474.368 1300.94C474.889 1300.43 475.292 1299.79 475.576 1299.03L478.814 1299.94C478.474 1301.04 477.901 1302.01 477.096 1302.84C476.291 1303.66 475.296 1304.31 474.113 1304.77C472.929 1305.23 471.599 1305.45 470.121 1305.45ZM501.422 1283.18L493.353 1305H489.944L481.876 1283.18H485.512L491.535 1300.57H491.762L497.785 1283.18H501.422ZM505.836 1305V1283.18H509.189V1305H505.836ZM507.541 1279.55C506.887 1279.55 506.324 1279.32 505.851 1278.88C505.386 1278.43 505.154 1277.9 505.154 1277.27C505.154 1276.65 505.386 1276.11 505.851 1275.67C506.324 1275.22 506.887 1275 507.541 1275C508.194 1275 508.753 1275.22 509.217 1275.67C509.69 1276.11 509.927 1276.65 509.927 1277.27C509.927 1277.9 509.69 1278.43 509.217 1278.88C508.753 1279.32 508.194 1279.55 507.541 1279.55ZM524.182 1305.45C522.137 1305.45 520.375 1304.97 518.898 1304.01C517.421 1303.04 516.284 1301.71 515.489 1300.01C514.693 1298.32 514.296 1296.38 514.296 1294.2C514.296 1291.99 514.703 1290.03 515.517 1288.34C516.341 1286.63 517.487 1285.3 518.955 1284.35C520.432 1283.38 522.156 1282.9 524.125 1282.9C525.659 1282.9 527.042 1283.18 528.273 1283.75C529.504 1284.32 530.513 1285.11 531.299 1286.14C532.085 1287.16 532.572 1288.35 532.762 1289.72H529.409C529.154 1288.72 528.586 1287.84 527.705 1287.07C526.834 1286.3 525.659 1285.91 524.182 1285.91C522.875 1285.91 521.729 1286.25 520.745 1286.93C519.769 1287.6 519.007 1288.56 518.458 1289.79C517.918 1291.01 517.648 1292.44 517.648 1294.09C517.648 1295.78 517.913 1297.24 518.443 1298.49C518.983 1299.74 519.741 1300.71 520.716 1301.41C521.701 1302.1 522.856 1302.44 524.182 1302.44C525.053 1302.44 525.844 1302.29 526.554 1301.99C527.265 1301.69 527.866 1301.25 528.358 1300.68C528.851 1300.11 529.201 1299.43 529.409 1298.64H532.762C532.572 1299.92 532.104 1301.08 531.355 1302.12C530.617 1303.14 529.637 1303.95 528.415 1304.56C527.203 1305.16 525.792 1305.45 524.182 1305.45ZM546.8 1305.45C544.698 1305.45 542.884 1304.99 541.36 1304.06C539.844 1303.12 538.675 1301.82 537.851 1300.14C537.037 1298.46 536.63 1296.5 536.63 1294.26C536.63 1292.03 537.037 1290.06 537.851 1288.35C538.675 1286.64 539.821 1285.3 541.289 1284.35C542.766 1283.38 544.489 1282.9 546.459 1282.9C547.595 1282.9 548.718 1283.09 549.826 1283.47C550.933 1283.84 551.942 1284.46 552.851 1285.31C553.76 1286.16 554.485 1287.27 555.024 1288.66C555.564 1290.06 555.834 1291.77 555.834 1293.81V1295.23H539.016V1292.33H552.425C552.425 1291.1 552.179 1290 551.686 1289.03C551.203 1288.07 550.512 1287.31 549.612 1286.75C548.722 1286.19 547.671 1285.91 546.459 1285.91C545.124 1285.91 543.969 1286.24 542.993 1286.9C542.027 1287.56 541.284 1288.41 540.763 1289.46C540.242 1290.51 539.982 1291.64 539.982 1292.84V1294.77C539.982 1296.42 540.266 1297.82 540.834 1298.96C541.412 1300.1 542.212 1300.97 543.235 1301.56C544.257 1302.15 545.446 1302.44 546.8 1302.44C547.681 1302.44 548.476 1302.32 549.186 1302.07C549.906 1301.82 550.526 1301.44 551.047 1300.94C551.568 1300.43 551.97 1299.79 552.255 1299.03L555.493 1299.94C555.152 1301.04 554.579 1302.01 553.774 1302.84C552.969 1303.66 551.975 1304.31 550.791 1304.77C549.608 1305.23 548.277 1305.45 546.8 1305.45Z" fill="black"/>
<path d="M136.998 857V827.909H148.475C150.682 827.909 152.562 828.33 154.115 829.173C155.668 830.007 156.851 831.167 157.666 832.653C158.49 834.131 158.902 835.835 158.902 837.767C158.902 839.699 158.485 841.403 157.652 842.881C156.818 844.358 155.611 845.509 154.029 846.332C152.457 847.156 150.554 847.568 148.319 847.568H141.004V842.639H147.325C148.509 842.639 149.484 842.436 150.251 842.028C151.027 841.612 151.605 841.039 151.984 840.31C152.372 839.571 152.566 838.723 152.566 837.767C152.566 836.801 152.372 835.958 151.984 835.239C151.605 834.509 151.027 833.946 150.251 833.548C149.474 833.141 148.49 832.938 147.296 832.938H143.149V857H136.998ZM168.409 857.412C167.017 857.412 165.776 857.17 164.687 856.688C163.598 856.195 162.736 855.471 162.102 854.514C161.477 853.548 161.164 852.346 161.164 850.906C161.164 849.694 161.387 848.676 161.832 847.852C162.277 847.028 162.883 846.366 163.65 845.864C164.417 845.362 165.288 844.983 166.264 844.727C167.249 844.472 168.281 844.292 169.36 844.188C170.629 844.055 171.652 843.932 172.428 843.818C173.205 843.695 173.768 843.515 174.119 843.278C174.469 843.042 174.644 842.691 174.644 842.227V842.142C174.644 841.242 174.36 840.546 173.792 840.054C173.233 839.562 172.438 839.315 171.406 839.315C170.317 839.315 169.45 839.557 168.806 840.04C168.162 840.513 167.736 841.11 167.528 841.83L161.931 841.375C162.215 840.049 162.774 838.903 163.607 837.938C164.441 836.962 165.516 836.214 166.832 835.693C168.158 835.163 169.692 834.898 171.434 834.898C172.646 834.898 173.806 835.04 174.914 835.324C176.032 835.608 177.021 836.048 177.883 836.645C178.754 837.241 179.441 838.009 179.943 838.946C180.445 839.874 180.695 840.987 180.695 842.284V857H174.957V853.974H174.786C174.436 854.656 173.967 855.258 173.38 855.778C172.793 856.29 172.088 856.692 171.264 856.986C170.44 857.27 169.488 857.412 168.409 857.412ZM170.142 853.236C171.032 853.236 171.818 853.061 172.499 852.71C173.181 852.35 173.716 851.867 174.105 851.261C174.493 850.655 174.687 849.969 174.687 849.202V846.886C174.498 847.009 174.237 847.123 173.906 847.227C173.584 847.322 173.219 847.412 172.812 847.497C172.405 847.573 171.998 847.644 171.59 847.71C171.183 847.767 170.814 847.819 170.482 847.866C169.772 847.971 169.152 848.136 168.622 848.364C168.091 848.591 167.679 848.899 167.386 849.287C167.092 849.666 166.945 850.139 166.945 850.707C166.945 851.531 167.244 852.161 167.84 852.597C168.446 853.023 169.213 853.236 170.142 853.236ZM203.533 841.403L197.994 841.744C197.899 841.271 197.695 840.845 197.383 840.466C197.07 840.078 196.658 839.77 196.147 839.543C195.645 839.306 195.044 839.188 194.343 839.188C193.406 839.188 192.615 839.386 191.971 839.784C191.327 840.172 191.005 840.693 191.005 841.347C191.005 841.867 191.213 842.308 191.63 842.668C192.047 843.027 192.762 843.316 193.775 843.534L197.724 844.33C199.845 844.765 201.426 845.466 202.468 846.432C203.51 847.398 204.031 848.667 204.031 850.239C204.031 851.669 203.609 852.923 202.766 854.003C201.933 855.082 200.787 855.925 199.329 856.531C197.88 857.128 196.209 857.426 194.315 857.426C191.426 857.426 189.125 856.825 187.411 855.622C185.707 854.41 184.708 852.762 184.414 850.679L190.366 850.366C190.546 851.247 190.981 851.92 191.673 852.384C192.364 852.838 193.249 853.065 194.329 853.065C195.39 853.065 196.242 852.862 196.886 852.455C197.539 852.038 197.871 851.503 197.88 850.849C197.871 850.3 197.639 849.85 197.184 849.5C196.73 849.14 196.029 848.866 195.082 848.676L191.303 847.923C189.173 847.497 187.587 846.759 186.545 845.707C185.513 844.656 184.997 843.316 184.997 841.688C184.997 840.286 185.375 839.079 186.133 838.065C186.9 837.052 187.975 836.271 189.357 835.722C190.749 835.172 192.378 834.898 194.244 834.898C196.999 834.898 199.168 835.48 200.749 836.645C202.34 837.81 203.268 839.396 203.533 841.403ZM225.984 841.403L220.445 841.744C220.35 841.271 220.146 840.845 219.834 840.466C219.521 840.078 219.109 839.77 218.598 839.543C218.096 839.306 217.495 839.188 216.794 839.188C215.857 839.188 215.066 839.386 214.422 839.784C213.778 840.172 213.456 840.693 213.456 841.347C213.456 841.867 213.664 842.308 214.081 842.668C214.498 843.027 215.213 843.316 216.226 843.534L220.175 844.33C222.296 844.765 223.877 845.466 224.919 846.432C225.961 847.398 226.482 848.667 226.482 850.239C226.482 851.669 226.06 852.923 225.217 854.003C224.384 855.082 223.238 855.925 221.78 856.531C220.331 857.128 218.66 857.426 216.766 857.426C213.877 857.426 211.576 856.825 209.862 855.622C208.158 854.41 207.159 852.762 206.865 850.679L212.817 850.366C212.997 851.247 213.432 851.92 214.124 852.384C214.815 852.838 215.7 853.065 216.78 853.065C217.84 853.065 218.693 852.862 219.337 852.455C219.99 852.038 220.322 851.503 220.331 850.849C220.322 850.3 220.09 849.85 219.635 849.5C219.18 849.14 218.48 848.866 217.533 848.676L213.754 847.923C211.624 847.497 210.037 846.759 208.996 845.707C207.964 844.656 207.448 843.316 207.448 841.688C207.448 840.286 207.826 839.079 208.584 838.065C209.351 837.052 210.426 836.271 211.808 835.722C213.2 835.172 214.829 834.898 216.695 834.898C219.45 834.898 221.619 835.48 223.2 836.645C224.791 837.81 225.719 839.396 225.984 841.403ZM234.586 857L228.648 835.182H234.771L238.151 849.841H238.35L241.873 835.182H247.881L251.461 849.756H251.646L254.969 835.182H261.077L255.154 857H248.748L244.998 843.278H244.728L240.978 857H234.586ZM273.606 857.426C271.4 857.426 269.492 856.957 267.882 856.02C266.282 855.073 265.046 853.757 264.175 852.071C263.303 850.376 262.868 848.411 262.868 846.176C262.868 843.922 263.303 841.953 264.175 840.267C265.046 838.572 266.282 837.256 267.882 836.318C269.492 835.371 271.4 834.898 273.606 834.898C275.813 834.898 277.716 835.371 279.317 836.318C280.927 837.256 282.167 838.572 283.038 840.267C283.91 841.953 284.345 843.922 284.345 846.176C284.345 848.411 283.91 850.376 283.038 852.071C282.167 853.757 280.927 855.073 279.317 856.02C277.716 856.957 275.813 857.426 273.606 857.426ZM273.635 852.739C274.639 852.739 275.477 852.455 276.149 851.886C276.821 851.309 277.328 850.523 277.669 849.528C278.019 848.534 278.195 847.402 278.195 846.134C278.195 844.865 278.019 843.733 277.669 842.739C277.328 841.744 276.821 840.958 276.149 840.381C275.477 839.803 274.639 839.514 273.635 839.514C272.622 839.514 271.769 839.803 271.078 840.381C270.396 840.958 269.88 841.744 269.53 842.739C269.189 843.733 269.018 844.865 269.018 846.134C269.018 847.402 269.189 848.534 269.53 849.528C269.88 850.523 270.396 851.309 271.078 851.886C271.769 852.455 272.622 852.739 273.635 852.739ZM288.27 857V835.182H294.136V838.989H294.364C294.761 837.634 295.429 836.612 296.366 835.92C297.304 835.22 298.383 834.869 299.605 834.869C299.908 834.869 300.235 834.888 300.585 834.926C300.936 834.964 301.243 835.016 301.508 835.082V840.452C301.224 840.366 300.831 840.291 300.329 840.224C299.828 840.158 299.368 840.125 298.952 840.125C298.061 840.125 297.266 840.319 296.565 840.707C295.874 841.086 295.325 841.616 294.918 842.298C294.52 842.98 294.321 843.766 294.321 844.656V857H288.27ZM311.651 857.355C309.994 857.355 308.493 856.929 307.148 856.077C305.813 855.215 304.752 853.951 303.966 852.284C303.19 850.608 302.802 848.553 302.802 846.119C302.802 843.619 303.204 841.541 304.009 839.884C304.814 838.217 305.884 836.972 307.219 836.148C308.564 835.314 310.037 834.898 311.637 834.898C312.858 834.898 313.876 835.106 314.691 835.523C315.515 835.93 316.178 836.441 316.68 837.057C317.191 837.663 317.579 838.259 317.844 838.847H318.029V827.909H324.066V857H318.1V853.506H317.844C317.56 854.112 317.158 854.713 316.637 855.31C316.126 855.897 315.458 856.384 314.634 856.773C313.82 857.161 312.825 857.355 311.651 857.355ZM313.569 852.54C314.544 852.54 315.368 852.275 316.04 851.744C316.722 851.205 317.243 850.452 317.603 849.486C317.972 848.52 318.157 847.388 318.157 846.091C318.157 844.794 317.977 843.667 317.617 842.71C317.257 841.754 316.736 841.015 316.055 840.494C315.373 839.973 314.544 839.713 313.569 839.713C312.574 839.713 311.736 839.983 311.055 840.523C310.373 841.062 309.857 841.811 309.506 842.767C309.156 843.723 308.981 844.831 308.981 846.091C308.981 847.36 309.156 848.482 309.506 849.457C309.866 850.423 310.382 851.181 311.055 851.73C311.736 852.27 312.574 852.54 313.569 852.54ZM332.568 857.369C331.63 857.369 330.826 857.038 330.153 856.375C329.49 855.703 329.159 854.898 329.159 853.96C329.159 853.032 329.49 852.237 330.153 851.574C330.826 850.911 331.63 850.58 332.568 850.58C333.477 850.58 334.272 850.911 334.954 851.574C335.636 852.237 335.977 853.032 335.977 853.96C335.977 854.585 335.816 855.158 335.494 855.679C335.182 856.19 334.77 856.602 334.258 856.915C333.747 857.218 333.183 857.369 332.568 857.369ZM332.568 842.085C331.63 842.085 330.826 841.754 330.153 841.091C329.49 840.428 329.159 839.623 329.159 838.676C329.159 837.748 329.49 836.957 330.153 836.304C330.826 835.641 331.63 835.31 332.568 835.31C333.477 835.31 334.272 835.641 334.954 836.304C335.636 836.957 335.977 837.748 335.977 838.676C335.977 839.311 335.816 839.888 335.494 840.409C335.182 840.92 334.77 841.328 334.258 841.631C333.747 841.934 333.183 842.085 332.568 842.085Z" fill="black"/>
<path d="M154.885 595.909H161.035V614.801C161.035 616.922 160.529 618.778 159.515 620.369C158.512 621.96 157.105 623.201 155.297 624.091C153.488 624.972 151.381 625.412 148.976 625.412C146.561 625.412 144.449 624.972 142.64 624.091C140.832 623.201 139.426 621.96 138.422 620.369C137.418 618.778 136.916 616.922 136.916 614.801V595.909H143.067V614.276C143.067 615.384 143.308 616.368 143.791 617.23C144.283 618.092 144.975 618.769 145.865 619.261C146.755 619.754 147.792 620 148.976 620C150.169 620 151.206 619.754 152.087 619.261C152.977 618.769 153.663 618.092 154.146 617.23C154.639 616.368 154.885 615.384 154.885 614.276V595.909ZM184.126 609.403L178.586 609.744C178.491 609.271 178.287 608.845 177.975 608.466C177.662 608.078 177.251 607.77 176.739 607.543C176.237 607.306 175.636 607.188 174.935 607.188C173.998 607.188 173.207 607.386 172.563 607.784C171.919 608.172 171.597 608.693 171.597 609.347C171.597 609.867 171.805 610.308 172.222 610.668C172.639 611.027 173.354 611.316 174.367 611.534L178.316 612.33C180.437 612.765 182.019 613.466 183.06 614.432C184.102 615.398 184.623 616.667 184.623 618.239C184.623 619.669 184.201 620.923 183.358 622.003C182.525 623.082 181.379 623.925 179.921 624.531C178.472 625.128 176.801 625.426 174.907 625.426C172.019 625.426 169.717 624.825 168.003 623.622C166.299 622.41 165.3 620.762 165.006 618.679L170.958 618.366C171.138 619.247 171.573 619.92 172.265 620.384C172.956 620.838 173.841 621.065 174.921 621.065C175.982 621.065 176.834 620.862 177.478 620.455C178.131 620.038 178.463 619.503 178.472 618.849C178.463 618.3 178.231 617.85 177.776 617.5C177.322 617.14 176.621 616.866 175.674 616.676L171.895 615.923C169.765 615.497 168.179 614.759 167.137 613.707C166.105 612.656 165.589 611.316 165.589 609.688C165.589 608.286 165.967 607.079 166.725 606.065C167.492 605.052 168.567 604.271 169.949 603.722C171.341 603.172 172.97 602.898 174.836 602.898C177.591 602.898 179.76 603.48 181.341 604.645C182.932 605.81 183.86 607.396 184.126 609.403ZM198.366 625.426C196.122 625.426 194.19 624.972 192.571 624.062C190.961 623.144 189.72 621.847 188.849 620.17C187.978 618.485 187.542 616.491 187.542 614.19C187.542 611.946 187.978 609.976 188.849 608.281C189.72 606.586 190.947 605.265 192.528 604.318C194.119 603.371 195.985 602.898 198.125 602.898C199.564 602.898 200.904 603.13 202.145 603.594C203.395 604.048 204.484 604.735 205.412 605.653C206.349 606.572 207.078 607.727 207.599 609.119C208.12 610.502 208.38 612.121 208.38 613.977V615.639H189.957V611.889H202.684C202.684 611.018 202.495 610.246 202.116 609.574C201.737 608.902 201.212 608.376 200.54 607.997C199.877 607.609 199.105 607.415 198.224 607.415C197.306 607.415 196.491 607.628 195.781 608.054C195.08 608.471 194.531 609.034 194.133 609.744C193.736 610.445 193.532 611.226 193.522 612.088V615.653C193.522 616.733 193.721 617.666 194.119 618.452C194.526 619.238 195.099 619.844 195.838 620.27C196.576 620.696 197.452 620.909 198.466 620.909C199.138 620.909 199.754 620.814 200.312 620.625C200.871 620.436 201.349 620.152 201.747 619.773C202.145 619.394 202.448 618.93 202.656 618.381L208.253 618.75C207.969 620.095 207.386 621.269 206.505 622.273C205.634 623.267 204.507 624.044 203.125 624.602C201.752 625.152 200.165 625.426 198.366 625.426ZM212.319 625V603.182H218.186V606.989H218.413C218.811 605.634 219.478 604.612 220.416 603.92C221.353 603.22 222.433 602.869 223.655 602.869C223.958 602.869 224.284 602.888 224.635 602.926C224.985 602.964 225.293 603.016 225.558 603.082V608.452C225.274 608.366 224.881 608.291 224.379 608.224C223.877 608.158 223.418 608.125 223.001 608.125C222.111 608.125 221.316 608.319 220.615 608.707C219.923 609.086 219.374 609.616 218.967 610.298C218.569 610.98 218.37 611.766 218.37 612.656V625H212.319ZM234.728 612.386V625H228.676V603.182H234.444V607.031H234.699C235.182 605.762 235.992 604.759 237.128 604.02C238.265 603.272 239.642 602.898 241.262 602.898C242.777 602.898 244.098 603.229 245.225 603.892C246.352 604.555 247.228 605.502 247.853 606.733C248.478 607.955 248.79 609.413 248.79 611.108V625H242.739V612.188C242.748 610.852 242.408 609.811 241.716 609.062C241.025 608.305 240.073 607.926 238.861 607.926C238.047 607.926 237.327 608.101 236.702 608.452C236.087 608.802 235.604 609.313 235.253 609.986C234.912 610.649 234.737 611.449 234.728 612.386ZM259.771 625.412C258.379 625.412 257.138 625.17 256.049 624.688C254.96 624.195 254.099 623.471 253.464 622.514C252.839 621.548 252.527 620.346 252.527 618.906C252.527 617.694 252.749 616.676 253.194 615.852C253.639 615.028 254.245 614.366 255.012 613.864C255.779 613.362 256.651 612.983 257.626 612.727C258.611 612.472 259.643 612.292 260.723 612.188C261.992 612.055 263.014 611.932 263.791 611.818C264.567 611.695 265.131 611.515 265.481 611.278C265.831 611.042 266.007 610.691 266.007 610.227V610.142C266.007 609.242 265.723 608.546 265.154 608.054C264.596 607.562 263.8 607.315 262.768 607.315C261.679 607.315 260.813 607.557 260.169 608.04C259.525 608.513 259.099 609.11 258.89 609.83L253.294 609.375C253.578 608.049 254.136 606.903 254.97 605.938C255.803 604.962 256.878 604.214 258.194 603.693C259.52 603.163 261.054 602.898 262.796 602.898C264.009 602.898 265.169 603.04 266.277 603.324C267.394 603.608 268.384 604.048 269.245 604.645C270.117 605.241 270.803 606.009 271.305 606.946C271.807 607.874 272.058 608.987 272.058 610.284V625H266.319V621.974H266.149C265.798 622.656 265.33 623.258 264.742 623.778C264.155 624.29 263.45 624.692 262.626 624.986C261.802 625.27 260.85 625.412 259.771 625.412ZM261.504 621.236C262.394 621.236 263.18 621.061 263.862 620.71C264.544 620.35 265.079 619.867 265.467 619.261C265.855 618.655 266.049 617.969 266.049 617.202V614.886C265.86 615.009 265.599 615.123 265.268 615.227C264.946 615.322 264.581 615.412 264.174 615.497C263.767 615.573 263.36 615.644 262.953 615.71C262.546 615.767 262.176 615.819 261.845 615.866C261.135 615.971 260.514 616.136 259.984 616.364C259.454 616.591 259.042 616.899 258.748 617.287C258.455 617.666 258.308 618.139 258.308 618.707C258.308 619.531 258.606 620.161 259.203 620.597C259.809 621.023 260.576 621.236 261.504 621.236ZM276.742 625V603.182H282.509V607.031H282.765C283.22 605.753 283.977 604.744 285.038 604.006C286.099 603.267 287.367 602.898 288.845 602.898C290.341 602.898 291.615 603.272 292.666 604.02C293.717 604.759 294.418 605.762 294.768 607.031H294.995C295.44 605.781 296.245 604.782 297.41 604.034C298.584 603.277 299.972 602.898 301.572 602.898C303.608 602.898 305.26 603.546 306.529 604.844C307.808 606.132 308.447 607.959 308.447 610.327V625H302.41V611.52C302.41 610.308 302.088 609.399 301.444 608.793C300.8 608.187 299.995 607.884 299.029 607.884C297.931 607.884 297.074 608.234 296.458 608.935C295.843 609.626 295.535 610.54 295.535 611.676V625H289.669V611.392C289.669 610.322 289.361 609.47 288.745 608.835C288.139 608.201 287.339 607.884 286.345 607.884C285.672 607.884 285.066 608.054 284.527 608.395C283.996 608.726 283.575 609.195 283.262 609.801C282.95 610.398 282.794 611.098 282.794 611.903V625H276.742ZM323.16 625.426C320.916 625.426 318.984 624.972 317.365 624.062C315.755 623.144 314.514 621.847 313.643 620.17C312.772 618.485 312.336 616.491 312.336 614.19C312.336 611.946 312.772 609.976 313.643 608.281C314.514 606.586 315.74 605.265 317.322 604.318C318.913 603.371 320.778 602.898 322.919 602.898C324.358 602.898 325.698 603.13 326.938 603.594C328.188 604.048 329.277 604.735 330.205 605.653C331.143 606.572 331.872 607.727 332.393 609.119C332.914 610.502 333.174 612.121 333.174 613.977V615.639H314.751V611.889H327.478C327.478 611.018 327.289 610.246 326.91 609.574C326.531 608.902 326.006 608.376 325.333 607.997C324.67 607.609 323.899 607.415 323.018 607.415C322.099 607.415 321.285 607.628 320.575 608.054C319.874 608.471 319.325 609.034 318.927 609.744C318.529 610.445 318.326 611.226 318.316 612.088V615.653C318.316 616.733 318.515 617.666 318.913 618.452C319.32 619.238 319.893 619.844 320.632 620.27C321.37 620.696 322.246 620.909 323.259 620.909C323.932 620.909 324.547 620.814 325.106 620.625C325.665 620.436 326.143 620.152 326.541 619.773C326.938 619.394 327.241 618.93 327.45 618.381L333.046 618.75C332.762 620.095 332.18 621.269 331.299 622.273C330.428 623.267 329.301 624.044 327.919 624.602C326.545 625.152 324.959 625.426 323.16 625.426ZM340.65 625.369C339.712 625.369 338.908 625.038 338.235 624.375C337.572 623.703 337.241 622.898 337.241 621.96C337.241 621.032 337.572 620.237 338.235 619.574C338.908 618.911 339.712 618.58 340.65 618.58C341.559 618.58 342.355 618.911 343.036 619.574C343.718 620.237 344.059 621.032 344.059 621.96C344.059 622.585 343.898 623.158 343.576 623.679C343.264 624.19 342.852 624.602 342.34 624.915C341.829 625.218 341.266 625.369 340.65 625.369ZM340.65 610.085C339.712 610.085 338.908 609.754 338.235 609.091C337.572 608.428 337.241 607.623 337.241 606.676C337.241 605.748 337.572 604.957 338.235 604.304C338.908 603.641 339.712 603.31 340.65 603.31C341.559 603.31 342.355 603.641 343.036 604.304C343.718 604.957 344.059 605.748 344.059 606.676C344.059 607.311 343.898 607.888 343.576 608.409C343.264 608.92 342.852 609.328 342.34 609.631C341.829 609.934 341.266 610.085 340.65 610.085Z" fill="black"/>
<path d="M605.307 1150.55C605.156 1149.21 604.531 1148.16 603.432 1147.43C602.334 1146.68 600.951 1146.3 599.285 1146.3C598.091 1146.3 597.059 1146.49 596.188 1146.87C595.317 1147.24 594.64 1147.75 594.157 1148.41C593.683 1149.05 593.447 1149.78 593.447 1150.61C593.447 1151.3 593.608 1151.9 593.93 1152.4C594.261 1152.9 594.692 1153.32 595.222 1153.66C595.762 1153.99 596.34 1154.27 596.955 1154.5C597.571 1154.72 598.162 1154.9 598.731 1155.04L601.572 1155.78C602.5 1156.01 603.451 1156.31 604.427 1156.7C605.402 1157.09 606.306 1157.6 607.14 1158.24C607.973 1158.87 608.645 1159.66 609.157 1160.59C609.678 1161.53 609.938 1162.65 609.938 1163.96C609.938 1165.61 609.512 1167.07 608.66 1168.35C607.817 1169.63 606.59 1170.64 604.981 1171.38C603.38 1172.11 601.444 1172.48 599.171 1172.48C596.993 1172.48 595.108 1172.14 593.518 1171.45C591.927 1170.75 590.681 1169.77 589.782 1168.51C588.882 1167.23 588.385 1165.71 588.29 1163.96H592.694C592.779 1165.01 593.12 1165.89 593.716 1166.59C594.322 1167.28 595.094 1167.8 596.032 1168.14C596.979 1168.47 598.016 1168.63 599.143 1168.63C600.383 1168.63 601.486 1168.44 602.452 1168.05C603.428 1167.65 604.195 1167.1 604.753 1166.4C605.312 1165.69 605.591 1164.86 605.591 1163.92C605.591 1163.06 605.345 1162.35 604.853 1161.8C604.37 1161.25 603.712 1160.8 602.878 1160.44C602.055 1160.08 601.122 1159.76 600.08 1159.49L596.643 1158.55C594.313 1157.91 592.466 1156.98 591.103 1155.75C589.749 1154.52 589.072 1152.89 589.072 1150.86C589.072 1149.19 589.526 1147.72 590.435 1146.47C591.344 1145.22 592.575 1144.25 594.128 1143.56C595.681 1142.86 597.433 1142.51 599.384 1142.51C601.354 1142.51 603.091 1142.86 604.597 1143.55C606.112 1144.24 607.305 1145.19 608.177 1146.4C609.048 1147.61 609.502 1148.99 609.54 1150.55H605.307ZM614.832 1172V1150.18H619.079V1172H614.832ZM616.977 1146.82C616.238 1146.82 615.604 1146.57 615.074 1146.08C614.553 1145.57 614.292 1144.98 614.292 1144.29C614.292 1143.59 614.553 1142.99 615.074 1142.5C615.604 1142 616.238 1141.74 616.977 1141.74C617.716 1141.74 618.345 1142 618.866 1142.5C619.397 1142.99 619.662 1143.59 619.662 1144.29C619.662 1144.98 619.397 1145.57 618.866 1146.08C618.345 1146.57 617.716 1146.82 616.977 1146.82ZM633.931 1180.64C632.198 1180.64 630.706 1180.41 629.456 1179.95C628.216 1179.5 627.203 1178.9 626.417 1178.15C625.631 1177.4 625.043 1176.58 624.655 1175.69L628.306 1174.19C628.561 1174.6 628.902 1175.04 629.329 1175.51C629.764 1175.98 630.351 1176.38 631.09 1176.72C631.838 1177.05 632.799 1177.21 633.973 1177.21C635.583 1177.21 636.914 1176.82 637.965 1176.03C639.016 1175.26 639.542 1174.02 639.542 1172.31V1168.02H639.272C639.016 1168.49 638.647 1169 638.164 1169.57C637.69 1170.14 637.037 1170.63 636.204 1171.05C635.37 1171.46 634.286 1171.67 632.951 1171.67C631.227 1171.67 629.674 1171.27 628.292 1170.47C626.918 1169.65 625.829 1168.45 625.025 1166.87C624.229 1165.28 623.831 1163.33 623.831 1161.01C623.831 1158.69 624.224 1156.7 625.01 1155.04C625.806 1153.38 626.895 1152.11 628.277 1151.23C629.66 1150.34 631.227 1149.9 632.979 1149.9C634.333 1149.9 635.427 1150.12 636.26 1150.58C637.094 1151.02 637.742 1151.55 638.206 1152.14C638.68 1152.74 639.044 1153.26 639.3 1153.72H639.613V1150.18H643.775V1172.48C643.775 1174.36 643.339 1175.9 642.468 1177.1C641.597 1178.3 640.418 1179.19 638.931 1179.77C637.454 1180.35 635.787 1180.64 633.931 1180.64ZM633.888 1168.15C635.11 1168.15 636.142 1167.87 636.985 1167.3C637.837 1166.72 638.481 1165.9 638.917 1164.83C639.362 1163.75 639.584 1162.45 639.584 1160.95C639.584 1159.48 639.366 1158.19 638.931 1157.07C638.495 1155.95 637.856 1155.08 637.013 1154.46C636.17 1153.82 635.129 1153.51 633.888 1153.51C632.61 1153.51 631.544 1153.84 630.692 1154.5C629.84 1155.15 629.196 1156.04 628.76 1157.17C628.334 1158.3 628.121 1159.56 628.121 1160.95C628.121 1162.38 628.339 1163.63 628.775 1164.71C629.21 1165.79 629.854 1166.64 630.706 1167.24C631.568 1167.85 632.629 1168.15 633.888 1168.15ZM653.708 1159.05V1172H649.461V1150.18H653.537V1153.73H653.807C654.309 1152.58 655.095 1151.65 656.165 1150.95C657.245 1150.25 658.604 1149.9 660.242 1149.9C661.729 1149.9 663.031 1150.21 664.148 1150.84C665.266 1151.45 666.132 1152.37 666.748 1153.59C667.363 1154.81 667.671 1156.32 667.671 1158.12V1172H663.424V1158.63C663.424 1157.05 663.012 1155.82 662.188 1154.93C661.364 1154.03 660.232 1153.58 658.793 1153.58C657.808 1153.58 656.932 1153.79 656.165 1154.22C655.408 1154.64 654.806 1155.27 654.361 1156.09C653.926 1156.91 653.708 1157.89 653.708 1159.05ZM688.663 1142.91V1172H684.274V1142.91H688.663ZM698.951 1159.05V1172H694.704V1150.18H698.781V1153.73H699.051C699.553 1152.58 700.338 1151.65 701.409 1150.95C702.488 1150.25 703.847 1149.9 705.485 1149.9C706.972 1149.9 708.274 1150.21 709.392 1150.84C710.509 1151.45 711.375 1152.37 711.991 1153.59C712.606 1154.81 712.914 1156.32 712.914 1158.12V1172H708.667V1158.63C708.667 1157.05 708.255 1155.82 707.431 1154.93C706.607 1154.03 705.476 1153.58 704.036 1153.58C703.052 1153.58 702.176 1153.79 701.409 1154.22C700.651 1154.64 700.05 1155.27 699.605 1156.09C699.169 1156.91 698.951 1157.89 698.951 1159.05Z" fill="white"/>
<defs>
<filter id="filter0_f_1273_459" x="0.5" y="0.5" width="1281" height="2642" filterUnits="userSpaceOnUse" color-interpolation-filters="sRGB">
<feFlood flood-opacity="0" result="BackgroundImageFix"/>
<feBlend mode="normal" in="SourceGraphic" in2="BackgroundImageFix" result="shape"/>
<feGaussianBlur stdDeviation="1.5" result="effect1_foregroundBlur_1273_459"/>
</filter>
<filter id="filter1_f_1273_459" x="20" y="19" width="1242" height="2604" filterUnits="userSpaceOnUse" color-interpolation-filters="sRGB">
<feFlood flood-opacity="0" result="BackgroundImageFix"/>
<feBlend mode="normal" in="SourceGraphic" in2="BackgroundImageFix" result="shape"/>
<feGaussianBlur stdDeviation="1" result="effect1_foregroundBlur_1273_459"/>
</filter>
</defs>
</svg>
